<svg xmlns="http://www.w3.org/2000/svg" width="20.217" height="25.362" viewBox="0 0 20.217 25.362">
  <g id="my_orders" data-name="my orders" transform="translate(-52.768 0.25)">
    <g id="Group_89" data-name="Group 89" transform="translate(53.02)">
      <g id="Group_88" data-name="Group 88">
        <path id="Path_27" data-name="Path 27" d="M72.721,20.5,71.611,6.512A1.749,1.749,0,0,0,69.876,4.9H67.683v-.1a4.806,4.806,0,1,0-9.612,0v.1H55.878A1.748,1.748,0,0,0,54.142,6.51L53.032,20.5a4.048,4.048,0,0,0,4.036,4.358H68.685a4.048,4.048,0,0,0,4.036-4.36ZM59.527,4.806a3.35,3.35,0,0,1,6.7,0v.1h-6.7Zm11.06,17.77a2.565,2.565,0,0,1-1.9.831H57.068a2.592,2.592,0,0,1-2.584-2.788L55.594,6.623a.286.286,0,0,1,.283-.263h2.193V8.154a.728.728,0,0,0,1.456,0V6.361h6.7V8.154a.728.728,0,1,0,1.456,0V6.361h2.193a.286.286,0,0,1,.284.264l1.11,13.991A2.565,2.565,0,0,1,70.587,22.575Z" transform="translate(-53.02)" fill="#058f46" stroke="#058f46" stroke-width="0.5"/>
      </g>
    </g>
    <g id="Group_91" data-name="Group 91" transform="translate(59.383 12.135)">
      <g id="Group_90" data-name="Group 90">
        <path id="Path_28" data-name="Path 28" d="M190.826,250.106a.728.728,0,0,0-1.03,0l-3.251,3.251-1.25-1.25a.728.728,0,0,0-1.03,1.03l1.765,1.765a.728.728,0,0,0,1.03,0l3.766-3.766A.728.728,0,0,0,190.826,250.106Z" transform="translate(-184.052 -249.893)" fill="#058f46" stroke="#058f46" stroke-width="0.5"/>
      </g>
    </g>
  </g>
</svg>
