<svg xmlns="http://www.w3.org/2000/svg" width="24.5" height="24.5" viewBox="0 0 24.5 24.5">
  <g id="tick-mark" transform="translate(0.25 0.25)">
    <g id="Group_96" data-name="Group 96">
      <g id="Group_93" data-name="Group 93">
        <g id="Group_92" data-name="Group 92">
          <path id="Path_31" data-name="Path 31" d="M13.515,21H8.357A1.359,1.359,0,0,1,7,19.643V12.357A1.359,1.359,0,0,1,8.357,11h7.285A1.359,1.359,0,0,1,17,12.357v5.157a1.5,1.5,0,0,1-.438,1.061l-1.986,1.986A1.515,1.515,0,0,1,13.515,21ZM8.357,12A.357.357,0,0,0,8,12.357v7.286A.357.357,0,0,0,8.357,20h5.157a.5.5,0,0,0,.354-.146l1.985-1.985A.5.5,0,0,0,16,17.514V12.357A.357.357,0,0,0,15.643,12Z" fill="#058f46" stroke="#058f46" stroke-width="0.5"/>
        </g>
      </g>
      <g id="Group_95" data-name="Group 95">
        <g id="Group_94" data-name="Group 94">
          <path id="Path_32" data-name="Path 32" d="M11.2,18.634a.5.5,0,0,1-.354-.146L8.711,16.354a.5.5,0,0,1,.707-.707L11.174,17.4l3.384-3.866a.5.5,0,1,1,.752.659l-3.735,4.269a.5.5,0,0,1-.359.17H11.2Z" fill="#058f46" stroke="#058f46" stroke-width="0.5"/>
        </g>
      </g>
    </g>
    <g id="Group_98" data-name="Group 98">
      <g id="Group_97" data-name="Group 97">
        <path id="Path_33" data-name="Path 33" d="M21.5,24H2.5A2.5,2.5,0,0,1,0,21.5V4.5A2.5,2.5,0,0,1,2.5,2h19A2.5,2.5,0,0,1,24,4.5v17A2.5,2.5,0,0,1,21.5,24ZM2.5,3A1.5,1.5,0,0,0,1,4.5v17A1.5,1.5,0,0,0,2.5,23h19A1.5,1.5,0,0,0,23,21.5V4.5A1.5,1.5,0,0,0,21.5,3Z" fill="#058f46" stroke="#058f46" stroke-width="0.5"/>
      </g>
    </g>
    <g id="Group_100" data-name="Group 100">
      <g id="Group_99" data-name="Group 99">
        <path id="Path_34" data-name="Path 34" d="M23.5,8H.5a.5.5,0,0,1,0-1h23a.5.5,0,0,1,0,1Z" fill="#058f46" stroke="#058f46" stroke-width="0.5"/>
      </g>
    </g>
    <g id="Group_102" data-name="Group 102">
      <g id="Group_101" data-name="Group 101">
        <path id="Path_35" data-name="Path 35" d="M5.5,5A.5.5,0,0,1,5,4.5V.5a.5.5,0,0,1,1,0v4A.5.5,0,0,1,5.5,5Z" fill="#058f46" stroke="#058f46" stroke-width="0.5"/>
      </g>
    </g>
    <g id="Group_104" data-name="Group 104">
      <g id="Group_103" data-name="Group 103">
        <path id="Path_36" data-name="Path 36" d="M18.5,5a.5.5,0,0,1-.5-.5V.5a.5.5,0,0,1,1,0v4A.5.5,0,0,1,18.5,5Z" fill="#058f46" stroke="#058f46" stroke-width="0.5"/>
      </g>
    </g>
  </g>
</svg>
