<svg xmlns="http://www.w3.org/2000/svg" version="1.1"
    xmlns:xlink="http://www.w3.org/1999/xlink"
    xmlns:svgjs="http://svgjs.com/svgjs" width="24" height="24" x="0" y="0" viewBox="0 0 512 512" style="enable-background:new 0 0 512 512" xml:space="preserve" class="">
    <g>
        <path xmlns="http://www.w3.org/2000/svg" d="m474.229 159.006-66.813-149.533c-2.575-5.763-8.297-9.473-14.608-9.473h-273.616c-6.312 0-12.033 3.71-14.608 9.473l-66.813 149.533c-.917 2.054-1.392 4.278-1.392 6.527v330.467c0 8.836 7.163 16 16 16h407.242c8.837 0 16-7.164 16-16v-330.466c0-2.25-.475-4.474-1.392-6.528zm-344.661-127.006h252.863l52.516 117.534h-357.895zm-61.189 448v-298.466h375.242v298.466zm275.121-201.726h-38.36v-38.36c0-8.836-7.163-16-16-16h-66.28c-8.837 0-16 7.164-16 16v38.36h-38.36c-8.837 0-16 7.164-16 16v66.28c0 8.836 7.163 16 16 16h38.36v38.36c0 8.836 7.163 16 16 16h66.279c8.837 0 16-7.164 16-16v-38.36h38.36c8.837 0 16-7.164 16-16v-66.28c.001-8.836-7.162-16-15.999-16zm-16 66.28h-38.36c-8.837 0-16 7.164-16 16v38.36h-34.28v-38.36c0-8.836-7.163-16-16-16h-38.36v-34.28h38.36c8.837 0 16-7.164 16-16v-38.36h34.279v38.36c0 8.836 7.163 16 16 16h38.36v34.28z" fill="#058f46" data-original="#058f46" class=""></path>
    </g>
</svg>