<svg width="19" height="10" viewBox="0 0 19 10" fill="none" xmlns="http://www.w3.org/2000/svg">
<path d="M16.2296 0H12.2712C11.6157 0 11.0837 0.532 11.0837 1.1875C11.0837 1.843 11.6157 2.375 12.2712 2.375H14.9463L10.2921 7.02921L7.03119 3.76833C6.21023 2.94738 4.8739 2.94738 4.05294 3.76833L0.347938 7.47254C-0.115979 7.93646 -0.115979 8.68775 0.347938 9.15167C0.811854 9.61558 1.56315 9.61558 2.02706 9.15167L5.54127 5.63746L8.80215 8.89833C9.21302 9.30921 9.75135 9.51425 10.2913 9.51425C10.8312 9.51425 11.3695 9.30842 11.7804 8.89833L16.6246 4.05413V6.72917C16.6246 7.38467 17.1566 7.91667 17.8121 7.91667C18.4676 7.91667 18.9996 7.38467 18.9996 6.72917V2.77083C18.9996 1.24292 17.7575 0 16.2296 0Z" fill="url(#paint0_linear_1129_1174)"/>
<defs>
<linearGradient id="paint0_linear_1129_1174" x1="-1.09633e-07" y1="3.5" x2="10.4796" y2="16.0914" gradientUnits="userSpaceOnUse">
<stop stop-color="#CA7715"/>
<stop offset="0.440625" stop-color="#E7AF40"/>
<stop offset="0.711458" stop-color="#FFE294"/>
<stop offset="1" stop-color="#F6C206"/>
</linearGradient>
</defs>
</svg>
