<svg width="77" height="36" viewBox="0 0 77 36" fill="none" xmlns="http://www.w3.org/2000/svg">
<g clip-path="url(#clip0_2923_5)">
<path d="M77 12.8948C76.5405 13.8788 76.1535 14.8952 75.8421 15.9359C74.7399 18.9645 73.6694 22.0007 72.5538 25.0264C72.2148 25.9438 71.779 26.8411 70.6662 27.0432C69.7527 27.1781 68.8286 27.2274 67.9059 27.1905C67.6582 27.1905 67.6285 27.0625 67.6304 26.8613C67.6371 26.2606 67.6304 25.6608 67.6304 25.0601C67.6304 24.6885 67.7677 24.4825 68.1776 24.5287C68.4089 24.5436 68.6409 24.5413 68.8718 24.522C69.0495 24.543 69.2296 24.5149 69.3925 24.4407C69.5554 24.3665 69.695 24.249 69.7961 24.101C69.8973 23.953 69.9561 23.7801 69.9663 23.601C69.9765 23.4218 69.9376 23.2433 69.8539 23.0847C69.1684 20.9534 68.3044 18.8884 67.5209 16.7927C67.0697 15.5855 66.5982 14.386 66.1422 13.1807C66.1052 13.0496 66.0789 12.9157 66.0635 12.7803C67.0591 12.7803 68.0259 12.8063 68.9889 12.7687C69.4421 12.7514 69.5909 12.9266 69.6994 13.3377C70.2178 15.2967 70.7737 17.2451 71.3056 19.2003C71.3524 19.366 71.425 19.5233 71.5207 19.6663C71.8481 18.5361 72.1669 17.4521 72.4808 16.3624C72.7967 15.2524 73.1241 14.1482 73.4006 13.0248C73.4764 12.7206 73.6444 12.7841 73.8182 12.7831C74.8801 12.7764 75.942 12.7774 77.0038 12.7764L77 12.8948Z" fill="#069041"/>
<path d="M23.083 6.60531C23.0974 6.51578 23.1032 6.42144 23.2107 6.38967L23.3211 6.27703L23.4325 6.16052C23.5081 6.01267 23.6248 5.88995 23.7685 5.80721L23.8924 5.685L24.4617 5.10736L24.5846 4.98321L24.5779 4.98897L24.6998 4.86669L24.6941 4.87251L24.817 4.7483L25.0407 4.52497L25.1655 4.40557L25.2845 4.28524L25.4065 4.16684L25.5197 4.0552L25.6388 3.93775L25.7569 3.82223C25.9297 3.82223 26.0997 3.82218 26.0977 3.57863V3.58345L26.2197 3.46123L26.2139 3.46699L26.3358 3.34472L26.3301 3.35048L26.453 3.23208L26.5759 3.1185C26.6226 3.12542 26.6703 3.11673 26.7116 3.09377C26.7529 3.0708 26.7855 3.03481 26.8044 2.99141L26.7976 2.99817L26.9205 2.87878H26.9157L27.0386 2.76038L27.1548 2.65256C27.3267 2.65256 27.4966 2.65256 27.4985 2.4119C27.7206 2.40482 27.9362 2.33528 28.1208 2.21118C28.3053 2.08709 28.4513 1.91344 28.5421 1.7101L28.5373 1.71586L28.6631 1.59847C28.7015 1.49065 28.8023 1.50215 28.8878 1.48771L29.0136 1.39722C29.0461 1.38163 29.0813 1.37218 29.1172 1.36932C29.3496 1.35391 29.5013 1.42323 29.4734 1.69759C29.4441 1.71429 29.4112 1.72385 29.3774 1.7255L29.2526 1.84489L29.1316 1.96235L29.0097 2.07017L28.9022 2.15489L28.5594 2.42441L28.4356 2.53611C28.401 2.64393 28.304 2.64392 28.2167 2.65932C28.1843 2.65421 28.1512 2.65676 28.1199 2.66678C28.0887 2.6768 28.0603 2.69401 28.0368 2.71702C28.0134 2.74003 27.9957 2.76818 27.9851 2.79928C27.9744 2.83038 27.9712 2.86354 27.9757 2.89611L27.8643 3.00393L27.7424 3.11944C27.4851 3.105 27.2882 3.17051 27.2815 3.47857L27.0588 3.70284L26.934 3.82411L26.9388 3.8193L26.8168 3.94257L26.7093 4.05039L26.5864 4.17166L26.4587 4.29681L26.2437 4.51245L26.116 4.63954L25.9969 4.75794L25.8779 4.87539C25.7984 4.86068 25.7166 4.86569 25.6395 4.88996C25.5624 4.91424 25.4924 4.95702 25.4356 5.01464C25.3788 5.07227 25.3369 5.14295 25.3136 5.22053C25.2902 5.2981 25.2862 5.38023 25.3018 5.45973L25.1828 5.581C24.9456 5.581 24.9398 5.74756 24.9398 5.91891L24.8256 6.04018L24.7123 6.16052L24.5961 6.28473C23.1449 8.00118 21.806 9.80997 20.5877 11.6998C18.9564 14.2612 17.5889 16.9822 16.5063 19.8208C16.4822 19.9283 16.4275 20.0264 16.3487 20.1031C16.2699 20.1799 16.1706 20.232 16.0628 20.2531C15.1953 20.5537 14.4371 21.1071 13.8853 21.8425C14.0793 21.0943 14.3483 20.3676 14.6879 19.6736C15.2304 18.4635 15.8055 17.2669 16.3671 16.0664C16.49 15.8508 16.6196 15.6419 16.7358 15.4243C16.9729 14.9796 17.3618 14.607 17.3915 14.0621C17.4674 13.8301 17.8841 13.8407 17.7871 13.4345C14.5663 14.8451 11.2329 15.9818 7.82224 16.8327L8.60085 16.9492C8.79863 16.9858 8.85723 17.1196 8.84475 17.3025C8.27829 17.3737 7.75886 17.6394 7.1828 17.6875C6.93317 17.7078 6.84388 17.9831 6.76035 18.193C6.02821 19.9828 5.47818 21.8422 5.11859 23.7428C4.87172 24.8652 4.75796 26.013 4.77968 27.1622C4.89777 29.229 5.29622 31.2112 6.87078 32.738C7.47861 33.3164 8.19717 33.765 8.98298 34.0568C9.11644 34.1078 9.27775 34.1406 9.26623 34.2859C9.2499 34.4871 9.05405 34.3986 8.9398 34.3986C7.3723 34.4986 5.81327 34.1001 4.48492 33.2597C3.42402 32.4948 2.69782 31.3495 2.45719 30.0617C1.90321 27.6666 2.45719 25.3648 3.0707 23.0747C3.51783 21.5666 4.06303 20.0897 4.70285 18.6531C4.76633 18.5393 4.78549 18.4058 4.75662 18.2786C3.89907 18.54 3.01629 18.7095 2.12308 18.7841C0.639727 18.8803 -0.292542 18.3027 0.0770966 16.6296C0.164656 16.1571 0.317841 15.6992 0.532183 15.2693C0.648497 15.7848 0.863721 16.2726 1.16585 16.7057C1.36621 16.9362 1.6137 17.1207 1.89152 17.2468C2.16935 17.3729 2.47099 17.4375 2.77594 17.4363C3.40675 17.4527 4.03794 17.4273 4.66541 17.3603C4.91566 17.349 5.15634 17.2605 5.35463 17.107C5.55291 16.9535 5.69916 16.7424 5.77338 16.5025C5.88754 16.1987 6.04328 15.9123 6.23614 15.6515C6.29033 15.5985 6.33007 15.5324 6.35159 15.4596C6.3731 15.3868 6.37565 15.3097 6.35903 15.2356C6.22893 14.5608 6.26821 13.8641 6.4733 13.2083C6.56271 12.6951 6.82247 12.2273 7.21043 11.8807C7.59838 11.5342 8.09175 11.3293 8.61046 11.2993C8.71305 11.2894 8.81131 11.2529 8.89549 11.1933C8.97968 11.1337 9.04689 11.0531 9.09051 10.9595C9.91944 9.70236 10.8169 8.492 11.7788 7.33401C12.8374 6.01015 13.9989 4.77248 15.2524 3.63257C16.3275 2.52189 17.5809 1.59999 18.9603 0.905313C19.1524 0.826374 19.2138 0.550084 19.473 0.577039C19.5511 0.573743 19.6282 0.595609 19.693 0.639439C19.7578 0.683268 19.8069 0.746748 19.8331 0.820586L19.7121 0.928404C19.6657 0.921939 19.6184 0.930849 19.5775 0.953787C19.5366 0.976725 19.5043 1.01245 19.4855 1.0555L19.3722 1.16331L19.2493 1.27401L19.1418 1.35874C17.7177 2.43929 16.3926 3.64515 15.1823 4.962C13.4545 6.82062 11.9031 8.8365 10.548 10.9835C10.3694 11.2723 10.3867 11.3493 10.7467 11.4023C12.0976 11.6006 13.435 11.8634 14.7897 12.0531C15.5472 12.1609 16.3172 12.1753 17.0824 12.2148C17.6398 12.3535 18.2233 12.3479 18.7779 12.1984C18.7934 12.1943 18.8077 12.1867 18.8198 12.1762C18.8319 12.1656 18.8414 12.1525 18.8476 12.1377C18.8538 12.1229 18.8565 12.1069 18.8556 12.0909C18.8547 12.0749 18.8501 12.0593 18.8423 12.0454L18.8547 12.0203C19.1581 12.1282 19.1284 11.9125 19.1341 11.7315C19.1775 11.7111 19.2131 11.677 19.2353 11.6344C19.2575 11.5918 19.2651 11.543 19.257 11.4956L19.4058 11.2704L19.4913 11.1549C19.545 11.1279 19.7111 11.2088 19.6017 11.0346C19.6238 10.9489 19.6132 10.842 19.7217 10.8064L19.835 10.6793L19.979 10.4569L20.0664 10.3318C20.1826 10.1806 20.2066 9.96018 20.4101 9.87354L20.5282 9.7455C20.5293 9.70865 20.541 9.6729 20.5618 9.6425L20.6492 9.52987L20.7596 9.40859L20.8757 9.28632C21.1215 9.28632 21.1177 9.10824 21.1129 8.93495L21.4576 8.47671L21.5756 8.34968L21.6832 8.24186L21.808 8.11571C21.81 8.07915 21.8212 8.04371 21.8406 8.01271L21.928 7.89525L22.0432 7.77304L22.1507 7.6604L22.2717 7.53525L22.266 7.54101L22.3889 7.41586C22.3911 7.37935 22.4023 7.34398 22.4215 7.31286L22.5089 7.1954L22.6164 7.07895L22.7355 6.95761L22.8535 6.8354L22.9726 6.71313L22.9668 6.71888L23.083 6.60531Z" fill="#099041"/>
<path d="M58.5646 14.1641C59.0901 13.3954 59.879 12.8472 60.7814 12.6238C62.2772 12.3793 63.7664 12.5777 64.546 13.8811C64.9125 14.6187 65.0781 15.4403 65.026 16.2628C65.0731 18.3537 65.0366 20.4465 65.0491 22.5384C65.0491 22.8676 64.9953 23.0274 64.6132 23.013C63.8029 22.9831 62.9897 22.987 62.1794 23.013C61.8088 23.0245 61.6888 22.9254 61.6993 22.5316C61.7195 20.7305 61.6993 18.9284 61.7137 17.1272C61.7132 16.6863 61.6565 16.2473 61.5447 15.8209C61.4747 15.5705 61.319 15.3529 61.1051 15.2061C60.8911 15.0594 60.6324 14.9927 60.3744 15.018C60.078 14.9902 59.78 15.0505 59.5176 15.1914C59.2552 15.3323 59.0399 15.5475 58.8987 15.8103C58.6763 16.2534 58.564 16.7438 58.5713 17.2398C58.5636 19.0025 58.5579 20.7661 58.5771 22.5345C58.5771 22.9129 58.4762 23.0293 58.097 23.0159C57.3059 22.987 56.5118 22.9956 55.7207 23.0159C55.4221 23.0226 55.3232 22.9389 55.3232 22.6308C55.3328 18.2725 55.3328 13.9138 55.3232 9.55486C55.3232 9.22563 55.4567 9.17654 55.7342 9.18328C56.5455 9.19772 57.3577 9.20639 58.168 9.18328C58.5185 9.17173 58.5751 9.31036 58.5732 9.61938C58.5569 11.0692 58.5646 12.5333 58.5646 14.1641Z" fill="#069041"/>
<path d="M23.3004 18.6773C24.2663 18.6946 25.2322 18.6831 26.198 18.6831C27.2023 18.6831 28.2056 18.6686 29.2098 18.6888C29.5939 18.6956 29.7235 18.5588 29.7062 18.1805C29.7169 17.6235 29.6764 17.0666 29.5853 16.517C29.4805 15.8476 29.2356 15.2081 28.8666 14.6404C28.4975 14.0728 28.0128 13.59 27.4442 13.2237C26.2875 12.5408 24.9246 12.2972 23.6038 12.5373C22.7859 12.6249 22.0079 12.937 21.3554 13.4392C20.703 13.9414 20.2013 14.6144 19.9055 15.384C19.3102 16.8421 19.2517 18.465 19.7404 19.9624C19.9368 20.6846 20.314 21.3444 20.836 21.8795C21.3581 22.4145 22.0077 22.8071 22.7234 23.0199C23.6117 23.27 24.5415 23.3355 25.4558 23.2124C26.3135 23.1566 27.1375 22.8563 27.8308 22.3469C28.524 21.8375 29.0578 21.1402 29.3692 20.3369C29.5305 19.896 29.3443 19.8277 29.0428 19.8017C28.2654 19.7502 27.4852 19.7569 26.7088 19.8219C26.6068 19.826 26.5079 19.8584 26.4231 19.9155C26.3384 19.9726 26.2711 20.0522 26.2288 20.1453C26.0036 20.4893 25.6671 20.745 25.2759 20.8693C24.8847 20.9937 24.4627 20.979 24.081 20.8279C23.71 20.7274 23.3844 20.5026 23.1586 20.1908C22.9327 19.8791 22.8202 19.4992 22.8396 19.1143C22.8281 18.7331 22.9644 18.6696 23.3004 18.6773ZM22.7436 16.4352C22.7653 16.1057 22.8712 15.7873 23.0511 15.5107C23.231 15.234 23.4789 15.0084 23.7709 14.8555C24.0628 14.7027 24.3891 14.6277 24.7183 14.6378C25.0476 14.6479 25.3686 14.7428 25.6508 14.9132C25.9216 15.0875 26.1466 15.3247 26.3066 15.6047C26.4665 15.8848 26.5567 16.1994 26.5696 16.5219C26.6157 16.8222 26.3862 16.853 26.1519 16.8501C25.6316 16.8453 25.1112 16.8501 24.5908 16.8501C24.1107 16.8501 23.6307 16.8289 23.1449 16.8568C22.8021 16.8761 22.686 16.7606 22.7407 16.4343L22.7436 16.4352Z" fill="#079042"/>
<path d="M40.8144 22.5866C40.6237 22.3487 40.5048 22.0611 40.4716 21.7577C40.3733 20.5088 40.3374 19.2558 40.3641 18.0033C40.3641 17.2332 40.3938 16.4544 40.3564 15.6823C40.3725 15.0957 40.2044 14.5188 39.8759 14.0331C39.5474 13.5474 39.075 13.1773 38.5255 12.9753C37.0102 12.4104 35.3507 12.366 33.8076 12.8492C33.2038 12.9998 32.6548 13.3185 32.224 13.7685C31.7932 14.2185 31.4981 14.7815 31.3727 15.3925C31.3228 15.5947 31.149 15.923 31.6176 15.9192C32.4289 15.9144 33.2392 15.9192 34.0495 15.9192C34.1127 15.9276 34.1767 15.9135 34.2307 15.8796C34.2847 15.8457 34.3252 15.794 34.3452 15.7333C34.5459 15.3227 34.8953 15.0044 35.3221 14.8434C35.7489 14.6824 36.2209 14.6908 36.6417 14.867C36.8378 14.9127 37.0119 15.0253 37.1345 15.1854C37.257 15.3454 37.3204 15.5432 37.3138 15.7449C37.3062 15.9373 37.233 16.1213 37.1063 16.2661C36.9796 16.4108 36.8071 16.5075 36.6178 16.5401C35.7604 16.7903 34.879 16.9088 34.0111 17.0955C32.6065 17.3978 31.3919 17.9321 31.0502 19.5311C30.8553 20.1866 30.8959 20.8899 31.1648 21.5186C31.4338 22.1472 31.914 22.6614 32.522 22.9717C33.2482 23.2847 34.047 23.3886 34.8288 23.2718C35.6106 23.155 36.3445 22.822 36.9481 22.3103C37.0777 22.2141 37.1535 21.9667 37.3398 22.0312C37.526 22.0957 37.4569 22.3324 37.4675 22.497C37.4896 22.859 37.6288 23.0371 38.033 23.0207C38.8817 22.9919 39.7314 23.0083 40.5801 23.014C40.9363 23.0073 41.0774 22.9303 40.8144 22.5866ZM37.358 18.7869C37.3523 20.1789 36.9039 20.8268 35.9697 21.1022C34.8493 21.4324 34.0428 20.873 34.1042 19.8141C34.1073 19.6515 34.1551 19.4929 34.2423 19.3559C34.3296 19.2188 34.4529 19.1085 34.5987 19.0372C35.4165 18.6921 36.2688 18.4356 37.141 18.2719C37.5462 18.1477 37.237 18.6474 37.357 18.7831L37.358 18.7869Z" fill="#069041"/>
<path d="M51.5358 33.7671C50.9892 34.3443 50.2814 34.7422 49.5052 34.9088C48.2782 35.059 47.0627 35.1418 46.1074 34.0598C45.0974 32.9161 45.225 30.2553 47.1001 29.4977C48.1635 29.1639 49.2471 28.899 50.3443 28.7044C50.5804 28.6418 50.8118 28.5562 51.0442 28.4792C51.1948 28.4479 51.3275 28.3596 51.4148 28.2326C51.5021 28.1057 51.5372 27.9498 51.5127 27.7976C51.5239 27.626 51.4806 27.4552 51.389 27.3097C51.2974 27.1643 51.1623 27.0517 51.0029 26.988C50.5891 26.7969 50.1174 26.7745 49.6875 26.9255C49.2575 27.0766 48.903 27.3893 48.6987 27.7976C48.5729 28.0132 48.3924 27.9901 48.2023 27.9901H46.3493C45.8021 27.9901 45.7032 27.8698 45.8693 27.348C46.007 26.8181 46.2781 26.3326 46.6567 25.9379C47.0353 25.5433 47.5086 25.2528 48.0314 25.0944C49.3442 24.6667 50.7506 24.618 52.0897 24.9538C53.9024 25.4005 54.4535 26.5442 54.4967 28.1797C54.539 29.7855 54.5073 31.3931 54.5121 33.0008C54.4727 33.4589 54.6017 33.9157 54.875 34.285C55.067 34.5171 55.0584 34.75 54.6427 34.7452C53.8516 34.7355 53.0595 34.7307 52.2683 34.7452C51.9246 34.7519 51.7134 34.6865 51.722 34.2783C51.6895 34.0977 51.6275 33.9237 51.5386 33.7632L51.5358 33.7671ZM51.5146 30.109C50.6793 30.5229 49.7865 30.5412 48.9963 30.9186C48.8065 31.008 48.6518 31.1583 48.5565 31.3456C48.4612 31.533 48.4309 31.7468 48.4702 31.9534C48.4668 32.1545 48.5243 32.3519 48.6353 32.5195C48.7462 32.6871 48.9052 32.817 49.0913 32.892C49.5026 33.0437 49.954 33.0446 50.3659 32.8947C50.7777 32.7448 51.1234 32.4536 51.3418 32.0728C51.6567 31.4528 51.4378 30.7944 51.5156 30.109H51.5146Z" fill="#079041"/>
<path d="M16.0094 20.865C15.7502 21.7872 15.417 22.694 15.249 23.6336C14.9664 24.8735 14.7831 26.1342 14.7008 27.4034C14.6436 28.5381 14.8157 29.6727 15.2068 30.739C15.5075 31.4783 16.0209 32.1112 16.6816 32.5569C17.3422 33.0027 18.1203 33.2412 18.9166 33.242C19.4297 33.165 19.9222 32.9851 20.3644 32.713C20.8067 32.4409 21.1897 32.0823 21.4906 31.6584C21.949 31.1255 22.2381 30.4675 22.3211 29.7687C22.3803 29.2644 22.2963 28.7537 22.0787 28.2952C21.8612 27.8367 21.5188 27.4492 21.0912 27.1772C20.39 26.795 19.6163 26.5653 18.8206 26.5033C18.2942 26.3994 17.7584 26.3519 17.222 26.3618C17.041 26.3511 16.8647 26.2996 16.7062 26.2111C16.5478 26.1226 16.4114 25.9993 16.307 25.8506C16.2303 25.758 16.1773 25.648 16.1528 25.5302C16.1283 25.4123 16.133 25.2903 16.1664 25.1747C16.1998 25.059 16.2611 24.9534 16.3447 24.867C16.4283 24.7806 16.5317 24.7161 16.646 24.679C17.3696 24.3907 18.1452 24.2567 18.9234 24.2854C19.7015 24.3141 20.4652 24.5049 21.1658 24.8457C21.8664 25.1866 22.4885 25.67 22.9925 26.2651C23.4966 26.8603 23.8715 27.5542 24.0934 28.3026C24.2797 28.976 24.3222 29.6812 24.2183 30.3722C24.1145 31.0633 23.8664 31.7246 23.4905 32.313C23.0197 33.1664 22.3441 33.8887 21.5249 34.4145C20.7056 34.9403 19.7686 35.2529 18.7985 35.3242C17.8409 35.4808 16.8584 35.338 15.9846 34.9152C15.1108 34.4923 14.388 33.81 13.9145 32.9609C13.2728 31.8516 12.8796 30.6154 12.7623 29.3384C12.5904 27.9279 12.678 26.4978 13.0206 25.119C13.2655 23.7195 13.9453 22.4334 14.9629 21.4445C15.2664 21.2064 15.5821 20.9844 15.9086 20.7793L16.0094 20.865Z" fill="#F5C307"/>
<path d="M34.3116 34.3251C34.0702 33.9614 33.9564 33.5276 33.988 33.092C33.9775 32.0465 33.9986 31.001 33.9813 29.9565C33.9688 29.2432 33.8478 28.5251 33.892 27.8175C33.9118 27.3125 33.7896 26.8122 33.5393 26.3735C33.2891 25.9349 32.9209 25.5756 32.4768 25.3367C31.3742 24.8986 30.1789 24.7473 29.0022 24.8968C28.1508 24.9084 27.3244 25.1875 26.6394 25.6948C26.1091 26.1082 25.726 26.6822 25.5468 27.3313C25.4739 27.5941 25.4767 27.8646 25.9049 27.8512C26.4128 27.8358 26.9217 27.8723 27.4296 27.881C27.8444 27.8887 28.2303 27.881 28.358 27.341C28.4051 27.1379 28.6576 27.0521 28.8505 26.9742C29.3712 26.7501 29.9571 26.7322 30.4904 26.9241C30.7012 26.967 30.8899 27.0836 31.023 27.253C31.1561 27.4224 31.2249 27.6337 31.2172 27.8492C31.2266 28.0543 31.1575 28.2554 31.024 28.4111C30.8905 28.5668 30.7027 28.6653 30.499 28.6867C29.7713 28.8696 29.0166 28.9505 28.2822 29.1142C26.6951 29.4665 25.4614 29.7938 25.2022 31.8751C24.9333 34.0344 26.625 34.9951 28.2908 34.9104C29.2193 34.8691 30.1079 34.5204 30.8178 33.9189C31.0607 33.7138 31.2825 33.7947 31.3151 34.0892C31.3689 34.5619 31.6406 34.6438 32.0333 34.6255C32.3213 34.611 32.6093 34.6255 32.8974 34.6255C33.3035 34.6255 33.7077 34.6312 34.1138 34.6255C34.2981 34.6158 34.5103 34.5898 34.3116 34.3251ZM30.2379 32.8811C29.9244 33.0332 29.5775 33.1028 29.2298 33.0833C28.9274 33.0963 28.6306 32.9987 28.3947 32.8087C28.1587 32.6187 27.9997 32.3492 27.9471 32.0503C27.8808 31.783 27.9224 31.5002 28.0628 31.2634C28.2032 31.0266 28.431 30.8548 28.6969 30.7854C29.3786 30.5601 30.0708 30.3657 30.7535 30.1452C31.0136 30.0605 31.1797 30.1212 31.2056 30.3974C31.3136 30.8609 31.2788 31.3462 31.1061 31.7894C30.9333 32.2326 30.6306 32.6139 30.2379 32.8811Z" fill="#F6C206"/>
<path d="M40.077 25.1041C41.2551 25.1041 42.4341 25.1214 43.6112 25.0964C44.0423 25.0868 44.2228 25.1725 44.2036 25.6576C44.1264 26.103 44.1193 26.5577 44.1824 27.0053C44.241 27.221 44.0749 27.3538 43.9395 27.4944C42.7778 28.6958 41.6075 29.8905 40.4707 31.115C40.2259 31.3798 40.0003 31.6686 39.7478 31.9304C39.6402 32.0411 39.4827 32.1528 39.572 32.3155C39.6172 32.3882 39.6811 32.4473 39.757 32.4866C39.8328 32.5259 39.9179 32.544 40.0031 32.5388H41.2177C42.0866 32.5388 42.9564 32.5475 43.8243 32.5388C44.1632 32.533 44.3274 32.6466 44.3044 33.0076C44.2717 33.3551 44.2736 33.705 44.3101 34.0521C44.3773 34.5171 44.144 34.6297 43.7638 34.6297C41.4298 34.597 39.0958 34.7019 36.7637 34.5758C35.6068 34.5132 35.6328 34.5094 35.6021 33.3609C35.5817 33.048 35.6321 32.7345 35.7494 32.4438C35.8668 32.1531 36.0481 31.8927 36.2799 31.682C37.4781 30.5085 38.6244 29.2831 39.7833 28.0691C39.9945 27.8477 40.3593 27.5666 40.2422 27.3134C40.125 27.0602 39.6585 27.0872 39.3531 27.093C38.4261 27.0443 37.4966 27.0743 36.5746 27.1825C36.1263 27.2662 35.8305 27.1286 35.9477 26.5626C35.9776 26.3145 35.9649 26.0631 35.9102 25.8193C35.8248 25.2475 35.9246 25.1108 36.4863 25.1099C37.6832 25.106 38.8801 25.1041 40.077 25.1041Z" fill="#F6C206"/>
<path d="M51.9566 17.4159C51.9337 18.2572 51.9658 19.099 52.0526 19.9361C52.1899 20.6418 52.4069 20.9402 53.1241 20.9045C53.6445 20.8786 53.7472 21.075 53.7001 21.5255C53.6588 21.8128 53.6588 22.1046 53.7001 22.3919C53.7846 22.8607 53.5657 23.0465 53.1529 23.0908C52.287 23.2454 51.4006 23.2454 50.5347 23.0908C50.0212 22.9428 49.5725 22.6256 49.2607 22.1906C48.9489 21.7556 48.7923 21.228 48.8161 20.6928C48.6491 18.8791 48.7489 17.0674 48.7259 15.2556C48.7211 14.8705 48.651 14.6722 48.2266 14.7396C48.0769 14.7637 47.9155 14.7242 47.7648 14.7464C47.3961 14.8003 47.2762 14.6385 47.3232 14.291C47.3322 14.1557 47.3322 14.02 47.3232 13.8848C47.3232 12.8422 47.3232 12.8259 48.3697 12.7825C48.6577 12.77 48.722 12.668 48.7172 12.4042C48.7047 11.6889 48.7269 10.9727 48.7077 10.2574C48.7 9.95705 48.7873 9.85406 49.0965 9.8608C49.926 9.88101 50.7555 9.8839 51.585 9.8608C51.9182 9.85117 51.9624 9.99754 51.9557 10.2729C51.9432 10.9881 51.9643 11.7043 51.947 12.4196C51.9403 12.7007 52.0325 12.8124 52.3071 12.7729C52.3262 12.7705 52.3455 12.7705 52.3647 12.7729C52.7957 12.8191 53.4697 12.5707 53.6128 12.8807C53.7433 13.4224 53.7691 13.9841 53.6887 14.5355C53.6887 14.6848 53.6157 14.7416 53.4765 14.7377H53.3123C51.9566 14.7859 51.9566 14.7859 51.9614 16.1721C51.9576 16.5504 51.9566 16.9182 51.9566 17.4159Z" fill="#059040"/>
<path d="M45.9239 16.1113C45.9239 18.2398 45.9133 20.3692 45.9335 22.4977C45.9335 22.8991 45.8432 23.031 45.4285 23.0118C44.6604 22.9771 43.8846 22.9906 43.1136 23.0118C42.8083 23.0185 42.6778 22.9579 42.6787 22.6075C42.6915 18.2722 42.6915 13.937 42.6787 9.60177C42.6787 9.27832 42.7584 9.16279 43.0954 9.17338C43.8865 9.19648 44.6796 9.20707 45.4688 9.17338C45.8807 9.15413 45.9335 9.31971 45.9315 9.67205C45.9181 11.8207 45.9248 13.9685 45.9248 16.122L45.9239 16.1113Z" fill="#059040"/>
<path d="M59.7925 26.585C60.0914 26.2255 60.41 25.8829 60.7468 25.5588C61.2428 25.1368 61.8776 24.9148 62.5278 24.936C62.7899 24.936 62.8562 25.0323 62.8543 25.2633C62.8485 25.9603 62.8466 26.6563 62.8543 27.3533C62.8543 27.5718 62.7871 27.6536 62.5586 27.6632C62.164 27.6786 61.7722 27.7364 61.3786 27.7758C61.0013 27.8471 60.6535 28.0286 60.3788 28.2975C60.1041 28.5665 59.9148 28.9108 59.8347 29.2872C59.6876 30.8468 59.6555 32.4151 59.7387 33.9793C59.7263 34.4828 59.6005 34.6715 59.0839 34.6359C58.4685 34.5945 57.8492 34.6118 57.2319 34.6311C56.9371 34.6407 56.8277 34.5579 56.8306 34.246C56.8431 32.6316 56.8536 31.0162 56.8306 29.4018C56.8124 28.1109 56.9112 26.818 56.7768 25.5261C56.7528 25.3008 56.8526 25.0698 57.2203 25.0938C57.8563 25.1313 58.4939 25.1329 59.13 25.0987C59.5035 25.0813 59.6456 25.1872 59.6235 25.58C59.6005 25.9111 59.5092 26.2673 59.7925 26.585Z" fill="#F6C206"/>
<path d="M8.84933 17.2951C8.86181 17.1122 8.80325 16.9783 8.60547 16.9418C8.75332 16.6867 9.01446 16.8455 9.21705 16.7877C11.3486 16.2212 13.4428 15.5219 15.4875 14.6939C16.0797 14.3679 16.7255 14.1514 17.3942 14.0547C17.3654 14.5996 16.9756 14.9721 16.7385 15.4168C16.6223 15.6325 16.4937 15.8452 16.3698 16.0589C15.0545 17.0553 13.9955 18.3694 12.5505 19.2001C10.9318 20.1291 9.83441 20.0367 9.17002 18.045C9.08841 17.7918 9.17385 17.4462 8.84933 17.2951Z" fill="#F4C307"/>
<path d="M29.4646 1.71053C29.4972 1.43713 29.3417 1.36685 29.1084 1.38225C29.7854 0.889448 30.5622 0.551889 31.3838 0.393555L29.4646 1.71053Z" fill="#1B8A4D"/>
<path d="M19.8512 0.81184C19.8251 0.738002 19.776 0.674522 19.7112 0.630692C19.6464 0.586863 19.5693 0.564997 19.4912 0.568293C19.8523 0.281114 20.3015 0.128325 20.7624 0.136019C20.5086 0.422173 20.1984 0.652334 19.8512 0.81184Z" fill="#1B8A4D"/>
<path d="M28.5348 1.72363C28.444 1.92697 28.298 2.10062 28.1135 2.22471C27.9289 2.3488 27.7133 2.41834 27.4912 2.42542C27.7773 2.11019 28.1354 1.86936 28.5348 1.72363Z" fill="#1B8A4D"/>
<path d="M25.2994 5.46173C25.2838 5.38223 25.2878 5.30011 25.3111 5.22253C25.3344 5.14496 25.3763 5.07427 25.4331 5.01665C25.4899 4.95903 25.5599 4.91624 25.637 4.89197C25.7141 4.86769 25.796 4.86268 25.8754 4.8774C25.7225 5.10737 25.5269 5.30573 25.2994 5.46173Z" fill="#1B8A4D"/>
<path d="M27.2705 3.4916C27.2772 3.18258 27.4731 3.11806 27.7314 3.13153C27.6898 3.22479 27.6261 3.30637 27.5457 3.36915C27.4654 3.43192 27.3709 3.474 27.2705 3.4916Z" fill="#1B8A4D"/>
<path d="M26.0996 3.58496C26.0996 3.82852 25.9316 3.83043 25.7588 3.82851C25.787 3.75988 25.834 3.70061 25.8942 3.65753C25.9545 3.61444 26.0257 3.58931 26.0996 3.58496Z" fill="#1B8A4D"/>
<path d="M24.9434 5.91604C24.9434 5.74468 24.9491 5.57812 25.1863 5.57812C25.1839 5.6523 25.1596 5.7241 25.1163 5.7843C25.073 5.8445 25.0128 5.89038 24.9434 5.91604Z" fill="#1B8A4D"/>
<path d="M27.4922 2.42578C27.4922 2.66741 27.3203 2.66837 27.1484 2.66645C27.1763 2.59725 27.2236 2.53766 27.2847 2.49494C27.3457 2.45221 27.4178 2.42819 27.4922 2.42578Z" fill="#1B8A4D"/>
<path d="M19.1437 11.7236C19.1379 11.9056 19.1676 12.1202 18.8643 12.0124L19.1437 11.7236Z" fill="#1B8A4D"/>
<path d="M21.119 8.93359C21.119 9.10784 21.1276 9.28111 20.8818 9.28496C20.8834 9.20971 20.9067 9.13653 20.9487 9.0742C20.9908 9.01187 21.0499 8.96305 21.119 8.93359Z" fill="#1B8A4D"/>
<path d="M27.9638 2.90445C27.9594 2.87188 27.9626 2.83872 27.9733 2.80762C27.9839 2.77652 28.0016 2.74831 28.025 2.7253C28.0484 2.70229 28.0769 2.68508 28.1081 2.67506C28.1393 2.66504 28.1725 2.66249 28.2048 2.6676C28.1831 2.72156 28.1504 2.77046 28.109 2.8112C28.0675 2.85195 28.0181 2.8837 27.9638 2.90445Z" fill="#1B8A4D"/>
<path d="M26.7978 3.00195C26.779 3.04508 26.7463 3.08079 26.705 3.10362C26.6637 3.12644 26.6161 3.13507 26.5693 3.1282C26.6029 3.00957 26.7095 3.02204 26.7978 3.00195Z" fill="#1B8A4D"/>
<path d="M19.501 1.04723C19.5198 1.00446 19.5521 0.969007 19.593 0.94621C19.6339 0.923414 19.6811 0.914559 19.7276 0.920984C19.692 1.03292 19.5903 1.0281 19.501 1.04723Z" fill="#1B8A4D"/>
<path d="M19.6094 11.0303C19.717 11.2044 19.5509 11.126 19.499 11.1489L19.6094 11.0303Z" fill="#1B8A4D"/>
<path d="M19.2635 11.4922C19.2716 11.5396 19.264 11.5883 19.2418 11.6309C19.2196 11.6735 19.184 11.7076 19.1406 11.728C19.1579 11.6366 19.1464 11.5259 19.2635 11.4922Z" fill="#1B8A4D"/>
<path d="M22.5107 7.19727L22.4233 7.314C22.4012 7.23554 22.4511 7.21257 22.5107 7.19727Z" fill="#1B8A4D"/>
<path d="M21.933 7.89453L21.8456 8.01126C21.8226 7.93377 21.8716 7.90984 21.933 7.89453Z" fill="#1B8A4D"/>
<path d="M19.1523 1.3547L19.2599 1.27148C19.2474 1.32315 19.2253 1.37 19.1523 1.3547Z" fill="#1B8A4D"/>
<path d="M20.6576 9.52539L20.5702 9.63733C20.5501 9.56271 20.5962 9.53783 20.6576 9.52539Z" fill="#1B8A4D"/>
<path d="M29.0047 1.40966L28.8789 1.49959C28.8971 1.43644 28.926 1.38766 29.0047 1.40966Z" fill="#1B8A4D"/>
<path d="M20.0744 10.3271L19.9861 10.4515C19.966 10.3721 20.0139 10.3463 20.0744 10.3271Z" fill="#1B8A4D"/>
<path d="M19.4971 11.1514L19.4116 11.2662C19.3924 11.1887 19.4385 11.1667 19.4971 11.1514Z" fill="#1B8A4D"/>
<path d="M18.8524 12.0371C18.8603 12.051 18.8648 12.0665 18.8658 12.0824C18.8667 12.0983 18.8639 12.1142 18.8577 12.1289C18.8515 12.1436 18.842 12.1567 18.8299 12.1672C18.8179 12.1776 18.8036 12.1851 18.7881 12.1892L18.8524 12.0371Z" fill="#1B8A4D"/>
<path d="M28.8906 2.16618L28.9982 2.08203C28.9847 2.13752 28.9626 2.18244 28.8906 2.16618Z" fill="#1B8A4D"/>
</g>
<defs>
<clipPath id="clip0_2923_5">
<rect width="77" height="35.2174" fill="white" transform="translate(0 0.136719)"/>
</clipPath>
</defs>
</svg>
