<svg width="12" height="12" viewBox="0 0 12 12" fill="none" xmlns="http://www.w3.org/2000/svg">
<path d="M10.5833 5.08333H6.91667V1.41667C6.91667 1.17355 6.82009 0.940394 6.64818 0.768486C6.47627 0.596577 6.24312 0.5 6 0.5C5.75689 0.5 5.52373 0.596577 5.35182 0.768486C5.17991 0.940394 5.08333 1.17355 5.08333 1.41667V5.08333H1.41667C1.17355 5.08333 0.940394 5.17991 0.768486 5.35182C0.596577 5.52373 0.5 5.75689 0.5 6C0.5 6.24312 0.596577 6.47627 0.768486 6.64818C0.940394 6.82009 1.17355 6.91667 1.41667 6.91667H5.08333V10.5833C5.08333 10.8264 5.17991 11.0596 5.35182 11.2315C5.52373 11.4034 5.75689 11.5 6 11.5C6.24312 11.5 6.47627 11.4034 6.64818 11.2315C6.82009 11.0596 6.91667 10.8264 6.91667 10.5833V6.91667H10.5833C10.8264 6.91667 11.0596 6.82009 11.2315 6.64818C11.4034 6.47627 11.5 6.24312 11.5 6C11.5 5.75689 11.4034 5.52373 11.2315 5.35182C11.0596 5.17991 10.8264 5.08333 10.5833 5.08333Z" fill="#8E8E8E"/>
</svg>
