<svg width="24" height="19" viewBox="0 0 24 19" fill="none" xmlns="http://www.w3.org/2000/svg">
<path d="M11.97 0.304688C15.7 0.304688 19.44 0.304688 23.17 0.304688C23.8 0.304688 23.96 0.4492 23.96 1.05615C23.96 6.49944 23.96 11.9427 23.96 17.386C23.96 17.5113 23.96 17.6365 23.93 17.7521C23.87 17.9737 23.72 18.099 23.48 18.1279C23.4 18.1375 23.31 18.1279 23.23 18.1279C15.73 18.1279 8.24001 18.1279 0.740005 18.1279C0.650005 18.1279 0.570005 18.1279 0.490005 18.1279C0.240005 18.099 0.0799988 17.9641 0.0299988 17.7329C-1.22003e-06 17.6269 0 17.5016 0 17.3957C0 11.9427 0 6.48981 0 1.04652C0 0.930907 -1.22003e-06 0.815297 0.0299988 0.709322C0.0899988 0.478102 0.250005 0.343224 0.490005 0.323956C0.590006 0.314322 0.690003 0.323956 0.800003 0.323956C4.53 0.323956 8.25 0.323956 11.98 0.323956L11.97 0.304688ZM22.84 17.0777V1.36444H14.69C14.69 1.47042 14.69 1.55713 14.69 1.64383C14.69 2.73249 14.69 3.82115 14.69 4.90981C14.69 5.43969 14.39 5.63237 13.87 5.44932C13.81 5.43005 13.75 5.42042 13.71 5.38188C13.26 5.08322 12.83 5.08322 12.38 5.41079C12.17 5.56493 11.88 5.6131 11.64 5.43969C11.14 5.08322 10.67 5.11213 10.14 5.43969C9.66 5.72871 9.26001 5.46859 9.26001 4.91944C9.26001 3.83079 9.26001 2.74213 9.26001 1.65347C9.26001 1.56676 9.26001 1.48005 9.26001 1.37408H1.11V17.0874H22.84V17.0777ZM10.35 4.17761C10.74 3.87896 11.09 4.01383 11.45 4.17761C11.51 4.20652 11.58 4.22579 11.63 4.26432C11.88 4.457 12.12 4.40883 12.37 4.24505C12.74 4.01383 13.13 3.85005 13.55 4.13908C13.55 4.13908 13.58 4.13908 13.58 4.12944V1.36444H10.34V4.17761H10.35Z" fill="#707070"/>
<path d="M10.3309 12.3664C9.99093 12.3664 9.66093 12.3664 9.33093 12.3664C8.93093 12.3664 8.72094 12.1641 8.71094 11.7787C8.71094 11.1236 8.71094 10.4684 8.71094 9.81332C8.71094 9.42796 8.92093 9.22564 9.33093 9.22564C9.66093 9.22564 9.99093 9.22564 10.3409 9.22564C10.3409 8.89808 10.3409 8.58979 10.3409 8.28149C10.3409 7.85759 10.5409 7.65527 10.9709 7.65527C11.6409 7.65527 12.3109 7.65527 12.9809 7.65527C13.3809 7.65527 13.5909 7.85759 13.6009 8.24296C13.6009 8.56088 13.6009 8.87881 13.6009 9.22564C13.9509 9.22564 14.2709 9.22564 14.6009 9.22564C15.0209 9.22564 15.2309 9.42796 15.2309 9.83259C15.2309 10.4781 15.2309 11.1236 15.2309 11.7691C15.2309 12.1737 15.0209 12.3664 14.6009 12.376C14.2909 12.376 13.9909 12.376 13.6809 12.376C13.6609 12.376 13.6509 12.376 13.6009 12.3953C13.6009 12.6843 13.6009 12.983 13.6009 13.2816C13.6009 13.7633 13.4109 13.9464 12.9009 13.9464C12.2509 13.9464 11.6109 13.9464 10.9609 13.9464C10.5409 13.9464 10.3309 13.7441 10.3309 13.3394C10.3309 13.0408 10.3309 12.7517 10.3309 12.4531C10.3309 12.4338 10.3309 12.4242 10.3109 12.3664H10.3309ZM14.1509 10.2661C13.8109 10.2661 13.4909 10.2661 13.1809 10.2661C12.7109 10.2661 12.5309 10.0927 12.5309 9.63991C12.5309 9.33162 12.5309 9.02332 12.5309 8.68613C12.2209 8.68613 11.9509 8.68613 11.6809 8.68613C11.6109 8.68613 11.5309 8.68613 11.4309 8.7054C11.4309 9.00405 11.4309 9.28344 11.4309 9.57247C11.4309 10.1023 11.2709 10.2661 10.7209 10.2661C10.4209 10.2661 10.1209 10.2661 9.82094 10.2661V11.3259C10.1509 11.3259 10.4709 11.3259 10.7809 11.3259C11.2509 11.3259 11.4309 11.4993 11.4309 11.9521C11.4309 12.2604 11.4309 12.5687 11.4309 12.8866H12.4909C12.4909 12.8866 12.5209 12.8481 12.5209 12.8288C12.5209 12.5591 12.5209 12.2893 12.5209 12.0195C12.5209 11.4897 12.6809 11.3259 13.2309 11.3259C13.5309 11.3259 13.8309 11.3259 14.1409 11.3259V10.2661H14.1509Z" fill="#707070"/>
</svg>
