<svg width="24" height="24" viewBox="0 0 24 24" fill="none" xmlns="http://www.w3.org/2000/svg">
<path d="M3.78 23.4379C3.72 23.4186 3.67 23.3897 3.61 23.3705C3.09 23.1874 2.76 22.8406 2.67 22.3203C2.19 19.7577 1.73 17.195 1.26 14.6323C1.18 14.2084 1.11 13.7941 1.02 13.3702C1 13.3028 0.939999 13.2161 0.869999 13.1775C0.279999 12.9078 0 12.4646 0 11.8384C0 11.4819 0 11.1158 0 10.7594C0.01 10.0079 0.609999 9.42986 1.39 9.41059C1.66 9.41059 1.93 9.41059 2.23 9.41059C2.51 8.21596 3.16 7.25254 4.22 6.56852C5.29 5.88449 6.46 5.68218 7.74 5.90376C7.74 5.79779 7.74 5.70145 7.74 5.6051C7.63 3.41815 8.03 3.02315 10.33 3.11949C10.84 3.13876 11.36 3.11949 11.87 3.11949C12.74 3.11949 13.33 3.68791 13.34 4.52608C13.34 5.20047 13.34 5.86523 13.34 6.58779C13.43 6.50108 13.49 6.45291 13.55 6.3951C15.46 4.55498 17.36 2.72449 19.27 0.884371C19.7 0.470103 20.19 0.306323 20.78 0.489371C21.77 0.797664 22.06 1.98266 21.33 2.71486C20.61 3.42779 19.87 4.12144 19.14 4.83437C18.82 5.14266 18.49 5.46059 18.12 5.81705C18.47 5.81705 18.76 5.83632 19.05 5.81705C20.22 5.72071 20.9 6.42401 20.82 7.51266C20.78 8.13888 20.82 8.7651 20.82 9.42023C21.29 9.42023 21.74 9.43949 22.18 9.42023C23.01 9.37205 23.64 9.68035 23.89 10.5474V12.166C23.75 12.6477 23.47 13.0234 22.96 13.2161C22.91 13.2353 22.88 13.3221 22.87 13.3799C22.76 13.9772 22.65 14.5745 22.54 15.1622C22.1 17.5514 21.67 19.9407 21.23 22.33C21.17 22.6864 20.98 22.9755 20.67 23.1778C20.5 23.2838 20.3 23.3512 20.12 23.4379H3.8H3.78ZM10.61 10.3355C10.61 10.3355 10.56 10.3258 10.54 10.3258C7.5 10.3258 4.47 10.3258 1.43 10.3258C1.12 10.3258 0.94 10.5089 0.93 10.8075C0.93 11.1351 0.93 11.4627 0.93 11.7999C0.93 12.2623 1.08 12.3972 1.56 12.3972C4.33 12.3972 7.09 12.3972 9.86 12.3972C9.94 12.3972 10.02 12.3972 10.09 12.3972C10.34 12.4164 10.53 12.5995 10.53 12.8403C10.53 13.0716 10.35 13.2642 10.1 13.2932C10.02 13.2932 9.94 13.2932 9.87 13.2932C7.33 13.2932 4.79 13.2932 2.25 13.2932H1.95C2.01 13.6111 2.06 13.9097 2.12 14.218C2.59 16.8 3.07 19.3819 3.54 21.9735C3.63 22.4552 3.73 22.5516 4.24 22.5516C9.37 22.5516 14.49 22.5516 19.62 22.5516C20.13 22.5516 20.24 22.4552 20.32 21.9735C20.71 19.8058 21.11 17.6478 21.51 15.4801C21.64 14.7575 21.77 14.0446 21.91 13.3028H21.61C19.07 13.3028 16.53 13.3028 13.99 13.3028C13.9 13.3028 13.82 13.3028 13.73 13.3028C13.49 13.2739 13.32 13.0812 13.32 12.8596C13.32 12.638 13.5 12.4453 13.74 12.4164C13.82 12.4164 13.9 12.4164 13.97 12.4164C16.74 12.4164 19.52 12.4164 22.29 12.4164C22.78 12.4164 22.92 12.2719 22.92 11.7999C22.92 11.5205 22.92 11.2507 22.92 10.9713C22.92 10.4896 22.78 10.3547 22.28 10.3547C19.56 10.3547 16.84 10.3644 14.12 10.3451C13.63 10.3451 13.27 10.4511 12.93 10.8075C12.27 11.4916 11.2 11.3663 10.72 10.6052C10.67 10.5282 10.63 10.4511 10.59 10.3644L10.61 10.3355ZM3.22 9.41059H10.39C10.16 8.24486 8.86 6.71303 6.78 6.7323C4.73 6.74193 3.45 8.24486 3.22 9.41059ZM11.16 8.71693C11.56 8.33157 11.95 7.95583 12.33 7.5801C12.37 7.54157 12.4 7.46449 12.4 7.40669C12.4 6.43364 12.4 5.46059 12.4 4.48754C12.4 4.21779 12.21 4.03474 11.92 4.03474C11 4.03474 10.07 4.03474 9.15 4.03474C8.87 4.03474 8.68 4.21779 8.67 4.48754C8.67 5.01742 8.67 5.5473 8.67 6.07718C8.67 6.13498 8.72 6.22169 8.77 6.24096C9.88 6.7612 10.66 7.5801 11.15 8.7073L11.16 8.71693ZM20.85 1.78035C20.74 1.63583 20.66 1.49132 20.54 1.40462C20.4 1.29864 20.21 1.30827 20.06 1.41425C19.98 1.47205 19.91 1.53949 19.84 1.60693C17.14 4.20815 14.44 6.80937 11.74 9.42023C11.43 9.72852 11.38 9.97901 11.61 10.191C11.83 10.4029 12.09 10.3547 12.39 10.0657C14.2 8.32193 16.01 6.57815 17.83 4.82474C18.74 3.94803 19.66 3.07132 20.56 2.18498C20.67 2.07901 20.74 1.93449 20.85 1.78035ZM19.85 9.41059C19.85 8.6784 19.85 7.9751 19.85 7.26218C19.85 6.89608 19.68 6.7323 19.3 6.72266C18.66 6.72266 18.01 6.72266 17.37 6.72266C17.26 6.72266 17.12 6.78047 17.03 6.85754C16.21 7.63791 15.39 8.42791 14.57 9.21791C14.52 9.26608 14.47 9.32388 14.4 9.40096H19.85V9.41059Z" fill="#1D5CFF"/>
<path d="M6.80914 17.9079C6.80914 18.669 6.80914 19.4301 6.80914 20.1912C6.80914 20.5284 6.61914 20.7404 6.32914 20.7308C6.04914 20.7308 5.86914 20.5188 5.86914 20.1912C5.86914 18.669 5.86914 17.1372 5.86914 15.615C5.86914 15.2778 6.05914 15.0659 6.34914 15.0755C6.62914 15.0755 6.80914 15.2875 6.80914 15.615C6.80914 16.3761 6.80914 17.1372 6.80914 17.8983V17.9079Z" fill="#1D5CFF"/>
<path d="M9.60992 17.9079C9.60992 18.669 9.60992 19.4301 9.60992 20.1912C9.60992 20.5284 9.41992 20.7404 9.12992 20.7308C8.84992 20.7308 8.66992 20.5188 8.66992 20.1912C8.66992 18.669 8.66992 17.1372 8.66992 15.615C8.66992 15.2778 8.85993 15.0659 9.14993 15.0755C9.42993 15.0755 9.60992 15.2875 9.60992 15.615C9.60992 16.3761 9.60992 17.1372 9.60992 17.8983V17.9079Z" fill="#1D5CFF"/>
<path d="M12.4007 17.898C12.4007 18.6784 12.4007 19.4684 12.4007 20.2487C12.4007 20.5378 12.2107 20.7401 11.9407 20.7401C11.6707 20.7401 11.4707 20.5474 11.4707 20.2584C11.4707 19.6996 11.4707 19.1408 11.4707 18.5724C11.4707 17.5801 11.4707 16.5878 11.4707 15.5858C11.4707 15.2775 11.6507 15.0752 11.9307 15.0752C12.2107 15.0752 12.4007 15.2679 12.4007 15.5762C12.4007 16.3469 12.4007 17.1176 12.4007 17.8884V17.898Z" fill="#1D5CFF"/>
<path d="M15.1993 17.927C15.1993 18.7074 15.1993 19.4781 15.1993 20.2585C15.1993 20.5379 15.0093 20.7306 14.7593 20.7402C14.5293 20.7498 14.3193 20.5861 14.2793 20.3645C14.2793 20.3163 14.2793 20.2585 14.2793 20.2103C14.2793 18.6785 14.2793 17.1467 14.2793 15.6148C14.2793 15.2873 14.4593 15.085 14.7493 15.085C15.0293 15.085 15.2093 15.2873 15.2093 15.6148C15.2093 16.3856 15.2093 17.1563 15.2093 17.927H15.1993Z" fill="#1D5CFF"/>
<path d="M17.0703 17.8885C17.0703 17.137 17.0703 16.3759 17.0703 15.6245C17.0703 15.2969 17.2403 15.0946 17.5203 15.085C17.8103 15.085 18.0003 15.2873 18.0003 15.6245C18.0003 17.1467 18.0003 18.6785 18.0003 20.2007C18.0003 20.5283 17.8203 20.7306 17.5503 20.7402C17.2603 20.7402 17.0703 20.5379 17.0703 20.2007C17.0703 19.43 17.0703 18.6592 17.0703 17.8885Z" fill="#1D5CFF"/>
<path d="M11.9298 13.283C11.6698 13.283 11.4598 13.0615 11.4798 12.811C11.4898 12.5701 11.7098 12.3774 11.9498 12.3871C12.2098 12.3871 12.4198 12.6087 12.3998 12.8591C12.3898 13.1 12.1698 13.2927 11.9298 13.283Z" fill="#1D5CFF"/>
</svg>
