<svg width="18" height="18" viewBox="0 0 18 18" fill="none" xmlns="http://www.w3.org/2000/svg">
<g clip-path="url(#clip0_2720_5467)">
<path d="M16.125 5.99968H5.25C4.836 5.99968 4.5 5.66368 4.5 5.24968C4.5 4.83568 4.836 4.49968 5.25 4.49968H10.755L8.025 2.40868C6.53625 1.13668 4.3215 1.21768 2.9295 2.59543L1.11075 4.39468C0.402 5.10118 0.003 6.05968 0 7.06018V12.7497C0 14.8204 1.67925 16.4997 3.75 16.4997H7.29075C9.078 16.4997 10.617 15.2382 10.968 13.4854L11.865 9.74968H16.1258C17.1615 9.74968 18.0008 8.91043 18.0008 7.87468C18.0008 6.83893 17.1608 5.99968 16.125 5.99968Z" fill="#F6C206"/>
</g>
<defs>
<clipPath id="clip0_2720_5467">
<rect width="18" height="18" fill="white"/>
</clipPath>
</defs>
</svg>
