<svg id="Group_4120" data-name="Group 4120" xmlns="http://www.w3.org/2000/svg" xmlns:xlink="http://www.w3.org/1999/xlink" width="299.18" height="200.785" viewBox="0 0 299.18 200.785">
  <defs>
    <clipPath id="clip-path">
      <rect id="Rectangle_971" data-name="Rectangle 971" width="299.18" height="200.785" fill="none"/>
    </clipPath>
  </defs>
  <g id="Group_4117" data-name="Group 4117">
    <g id="Group_4116" data-name="Group 4116" clip-path="url(#clip-path)">
      <path id="Path_1352" data-name="Path 1352" d="M80,146.155a12.983,12.983,0,0,1,3.17-1.378l.653-3.138,5.3-.093.764,3.113a12.964,12.964,0,0,1,3.217,1.265l2.679-1.756,3.815,3.683-1.661,2.739a12.978,12.978,0,0,1,1.378,3.171l3.138.653.093,5.3-3.113.763a13.017,13.017,0,0,1-1.265,3.217l1.756,2.68-3.683,3.815L93.5,168.53a12.988,12.988,0,0,1-3.171,1.378l-.653,3.138-5.3.092-.764-3.113A13.012,13.012,0,0,1,80.4,168.76l-2.68,1.756L73.9,166.833l1.661-2.739a12.973,12.973,0,0,1-1.378-3.171l-3.138-.653-.093-5.3,3.114-.763a12.991,12.991,0,0,1,1.265-3.217l-1.756-2.68,3.683-3.815Zm2.826,7.063a5.689,5.689,0,1,0,8.044-.141,5.688,5.688,0,0,0-8.044.141" transform="translate(-22.706 -45.297)" fill="#e0e0e0"/>
      <path id="Path_1353" data-name="Path 1353" d="M87.614,157.845a4.283,4.283,0,0,1,1.059-.93,5.664,5.664,0,0,1,3.711-.877,5.734,5.734,0,0,1,2.523.9,5.83,5.83,0,0,1,2.039,2.3,5.832,5.832,0,0,1,.549,3.348,5.8,5.8,0,0,1-4.8,4.974,5.838,5.838,0,0,1-3.366-.432,5.819,5.819,0,0,1-2.368-1.958,5.721,5.721,0,0,1-.984-2.489,5.66,5.66,0,0,1,.747-3.74,4.3,4.3,0,0,1,.891-1.091c.031.026-.343.373-.782,1.154a5.674,5.674,0,0,0-.628,3.642,5.56,5.56,0,0,0,3.247,4.208,5.568,5.568,0,0,0,3.19.391,5.513,5.513,0,0,0,4.539-4.7,5.569,5.569,0,0,0-.5-3.173,5.556,5.556,0,0,0-4.319-3.1,5.67,5.67,0,0,0-3.618.757c-.765.465-1.1.851-1.126.821" transform="translate(-27.495 -49.924)" fill="#e0e0e0"/>
      <path id="Path_1354" data-name="Path 1354" d="M79.943,146.109a1.177,1.177,0,0,1-.177-.093l-.526-.3-2.064-1.219.065-.009-3.661,3.836.01-.1,1.767,2.672.032.048-.029.051a12.994,12.994,0,0,0-1.245,3.2l-.015.063-.063.016-3.111.772.088-.114c.033,1.669.068,3.441.105,5.3l-.1-.124,3.139.647.08.016.022.079a12.924,12.924,0,0,0,1.369,3.135l.044.073-.044.073-1.657,2.742-.023-.18,3.819,3.678-.189-.018,2.678-1.759.078-.051.082.045a12.924,12.924,0,0,0,3.179,1.248l.093.022.022.093c.24.975.5,2.039.765,3.112l-.158-.122,5.3-.1-.156.129c.206-.991.428-2.061.653-3.138l.02-.1.1-.027a12.892,12.892,0,0,0,3.128-1.359h0l.085-.051.084.051,2.74,1.661-.2.026,3.684-3.814-.019.2-1.755-2.68-.053-.081.048-.084a12.864,12.864,0,0,0,1.252-3.177l.023-.093.092-.022,3.114-.761-.118.154q-.045-2.715-.088-5.3l.119.144-3.137-.657-.087-.018-.024-.085a12.874,12.874,0,0,0-1.358-3.137l-.044-.073.044-.073,1.665-2.736.022.167-3.807-3.691.155.015-2.684,1.75-.06.039-.061-.035a12.957,12.957,0,0,0-3.186-1.263l-.063-.016-.016-.063c-.273-1.132-.52-2.151-.753-3.115l.1.073-5.3.069.07-.058c-.269,1.251-.49,2.278-.673,3.134l-.007.031-.03.008a13.411,13.411,0,0,0-2.425.933l-.57.3a1.244,1.244,0,0,1-.19.1,1.69,1.69,0,0,1,.177-.12c.121-.075.3-.186.559-.322a12.54,12.54,0,0,1,2.42-.985l-.037.039.633-3.142.012-.057h.058l5.3-.116h.076l.019.075.773,3.11-.078-.078a13.092,13.092,0,0,1,3.248,1.268l-.121,0,2.675-1.763.084-.055.072.069,3.822,3.676.078.075-.056.092L98,150.618v-.146a13.156,13.156,0,0,1,1.4,3.2l-.111-.1,3.138.649.118.024,0,.12q.048,2.586.1,5.3l0,.124-.12.03-3.112.766.116-.116a13.143,13.143,0,0,1-1.279,3.256l-.006-.165L100,166.242l.071.107-.089.093L96.3,170.258l-.09.093-.111-.067-2.74-1.661h.166a13.184,13.184,0,0,1-3.208,1.393l.115-.123c-.224,1.077-.447,2.147-.653,3.137l-.027.127-.129,0-5.3.09-.127,0-.031-.124c-.262-1.074-.523-2.138-.761-3.114l.116.116a13.175,13.175,0,0,1-3.254-1.283l.16-.007L77.744,170.6l-.1.067-.088-.084-3.81-3.688-.084-.081.061-.1,1.665-2.736v.146A13.174,13.174,0,0,1,74,160.914l.1.095-3.137-.659-.1-.021,0-.1c-.029-1.86-.055-3.632-.081-5.3v-.093l.09-.022,3.115-.754-.078.078a13.113,13.113,0,0,1,1.285-3.237l0,.1-1.746-2.687-.037-.056.046-.047,3.705-3.794.029-.03.035.022,2.018,1.256.52.329a1.557,1.557,0,0,1,.175.12" transform="translate(-22.651 -45.251)" fill="#e0e0e0"/>
      <path id="Path_1355" data-name="Path 1355" d="M310.619,202.376a7.8,7.8,0,0,1,1.9-.825l.391-1.878,3.173-.056.457,1.863a7.78,7.78,0,0,1,1.926.758l1.6-1.051,2.283,2.205-.994,1.639a7.789,7.789,0,0,1,.825,1.9l1.878.39.056,3.174-1.863.457a7.763,7.763,0,0,1-.758,1.925l1.051,1.6-2.205,2.284-1.639-.994a7.782,7.782,0,0,1-1.9.824l-.391,1.879-3.174.056-.457-1.864a7.763,7.763,0,0,1-1.925-.758l-1.6,1.052-2.284-2.205.995-1.64a7.773,7.773,0,0,1-.825-1.9l-1.878-.391-.056-3.173,1.864-.457a7.779,7.779,0,0,1,.757-1.926l-1.051-1.6,2.2-2.283Zm1.692,4.228a3.4,3.4,0,1,0,4.815-.085,3.405,3.405,0,0,0-4.815.085" transform="translate(-97.67 -63.881)" fill="#f5f5f5"/>
      <path id="Path_1356" data-name="Path 1356" d="M315.177,209.374a2.576,2.576,0,0,1,.634-.556,3.389,3.389,0,0,1,2.221-.526,3.436,3.436,0,0,1,1.51.537,3.486,3.486,0,0,1,1.221,1.376,3.487,3.487,0,0,1,.329,2,3.473,3.473,0,0,1-2.874,2.978,3.492,3.492,0,0,1-2.015-.258,3.489,3.489,0,0,1-1.418-1.172,3.432,3.432,0,0,1-.589-1.491,3.39,3.39,0,0,1,.447-2.238,2.575,2.575,0,0,1,.534-.653c.018.016-.205.224-.468.691a3.4,3.4,0,0,0-.377,2.18,3.328,3.328,0,0,0,1.944,2.519,3.322,3.322,0,0,0,1.909.234,3.3,3.3,0,0,0,2.717-2.814,3.321,3.321,0,0,0-.3-1.9,3.328,3.328,0,0,0-2.585-1.854,3.393,3.393,0,0,0-2.166.453c-.458.278-.658.509-.674.492" transform="translate(-100.537 -66.651)" fill="#f5f5f5"/>
      <path id="Path_1357" data-name="Path 1357" d="M310.586,202.348a.8.8,0,0,1-.106-.056l-.314-.182-1.236-.73.039,0-2.192,2.3.006-.062,1.057,1.6.019.029-.016.031a7.737,7.737,0,0,0-.745,1.913l-.009.037-.038.01-1.862.462.053-.069c.02,1,.041,2.06.063,3.173l-.061-.074,1.879.388.048.01.014.048a7.7,7.7,0,0,0,.819,1.876l.026.044-.026.044-.992,1.641-.014-.107,2.286,2.2-.113-.01,1.6-1.053.047-.031.049.027a7.711,7.711,0,0,0,1.9.747l.055.014.014.056c.143.583.3,1.22.458,1.863l-.095-.073,3.173-.057-.093.078c.124-.594.256-1.233.391-1.879l.012-.058.057-.016a7.679,7.679,0,0,0,1.872-.813h0l.051-.031.05.031,1.64.994-.12.016,2.205-2.283-.012.12-1.051-1.6-.032-.049.029-.05a7.681,7.681,0,0,0,.749-1.9l.014-.056.056-.014,1.864-.455-.071.092q-.028-1.625-.053-3.173l.071.086-1.877-.394-.052-.011-.014-.051a7.689,7.689,0,0,0-.813-1.878l-.027-.044.027-.044,1-1.637.013.1-2.279-2.209.092.009-1.606,1.047-.036.023-.037-.02a7.734,7.734,0,0,0-1.907-.756l-.038-.01-.009-.038-.451-1.865.057.044-3.174.041.042-.035c-.161.749-.293,1.364-.4,1.875l0,.019-.018.005a8.027,8.027,0,0,0-1.452.558l-.341.178a.763.763,0,0,1-.114.058.949.949,0,0,1,.106-.072c.072-.045.182-.112.335-.192a7.5,7.5,0,0,1,1.448-.59l-.022.024c.1-.513.227-1.13.379-1.882l.007-.034h.035l3.173-.069h.046l.012.046c.143.575.294,1.185.463,1.861l-.047-.047a7.864,7.864,0,0,1,1.944.759l-.072,0,1.6-1.055.05-.033.043.041,2.288,2.2.047.045-.034.055-.991,1.641v-.087a7.891,7.891,0,0,1,.836,1.918l-.067-.062,1.879.389.071.014v.072q.029,1.548.059,3.173v.074l-.072.018-1.863.458.069-.069a7.886,7.886,0,0,1-.766,1.95l0-.1,1.052,1.6.042.065-.054.056-2.2,2.284-.054.056-.067-.041-1.639-.994h.1a7.89,7.89,0,0,1-1.92.834l.069-.074c-.135.645-.268,1.285-.391,1.879l-.016.075h-.078l-3.173.054h-.077l-.018-.074-.456-1.864.069.069a7.889,7.889,0,0,1-1.947-.768l.1,0-1.605,1.05-.061.04-.052-.051-2.281-2.207-.05-.048.036-.06,1-1.638v.087a7.852,7.852,0,0,1-.83-1.92l.061.057-1.878-.394-.06-.013V210.8c-.017-1.114-.033-2.175-.048-3.173v-.056l.054-.014,1.865-.451-.046.047a7.855,7.855,0,0,1,.769-1.938l0,.059-1.045-1.608-.022-.033.028-.028,2.217-2.271.018-.018.021.014,1.208.751.311.2a.885.885,0,0,1,.105.072" transform="translate(-97.637 -63.853)" fill="#f5f5f5"/>
      <path id="Path_1358" data-name="Path 1358" d="M346.534,30.638a9.981,9.981,0,0,1,2.443-1.061l.5-2.419,4.086-.072.588,2.4a10.015,10.015,0,0,1,2.479.975l2.065-1.354,2.94,2.839-1.28,2.111a10.01,10.01,0,0,1,1.062,2.444l2.418.5.072,4.086-2.4.588a10.016,10.016,0,0,1-.975,2.479l1.353,2.065-2.838,2.94-2.111-1.28a10.036,10.036,0,0,1-2.444,1.062l-.5,2.418-4.086.072-.588-2.4a10.015,10.015,0,0,1-2.479-.975l-2.065,1.354-2.94-2.839,1.28-2.111a10,10,0,0,1-1.062-2.444l-2.418-.5-.072-4.086,2.4-.588a10.044,10.044,0,0,1,.976-2.479L341.584,32.3l2.838-2.94Zm2.178,5.443a4.384,4.384,0,1,0,6.2-.109,4.384,4.384,0,0,0-6.2.109" transform="translate(-108.666 -8.668)" fill="#f5f5f5"/>
      <path id="Path_1359" data-name="Path 1359" d="M352.4,39.648a3.311,3.311,0,0,1,.816-.716,4.365,4.365,0,0,1,2.861-.677,4.413,4.413,0,0,1,1.943.691,4.483,4.483,0,0,1,1.572,1.771,4.5,4.5,0,0,1,.424,2.581,4.473,4.473,0,0,1-3.7,3.833,4.488,4.488,0,0,1-2.594-.333,4.493,4.493,0,0,1-1.826-1.509,4.417,4.417,0,0,1-.758-1.918,4.364,4.364,0,0,1,.575-2.882,3.322,3.322,0,0,1,.687-.841c.024.02-.264.288-.6.889a4.376,4.376,0,0,0-.485,2.806,4.285,4.285,0,0,0,2.5,3.243,4.277,4.277,0,0,0,2.458.3,4.248,4.248,0,0,0,3.5-3.624,4.288,4.288,0,0,0-.388-2.445,4.281,4.281,0,0,0-3.328-2.387,4.371,4.371,0,0,0-2.788.583c-.59.358-.847.656-.868.633" transform="translate(-112.356 -12.234)" fill="#f5f5f5"/>
      <path id="Path_1360" data-name="Path 1360" d="M346.491,30.6a.923.923,0,0,1-.136-.072l-.405-.234-1.591-.94.05-.007-2.821,2.957.008-.079,1.362,2.06.024.037-.022.039A10,10,0,0,0,342,36.827l-.012.048-.049.012-2.4.595.068-.088c.026,1.287.053,2.652.082,4.085l-.079-.1,2.419.5.062.012.017.061a9.988,9.988,0,0,0,1.055,2.416l.034.056-.034.057L341.887,46.6l-.018-.139,2.944,2.835-.146-.014,2.064-1.356.061-.039.063.035a9.972,9.972,0,0,0,2.45.961l.071.017.018.072c.184.751.386,1.571.59,2.4l-.122-.094,4.086-.073-.12.1.5-2.419.015-.074.073-.021a9.9,9.9,0,0,0,2.411-1.047h0l.066-.039.065.039,2.111,1.28-.155.02,2.839-2.94-.014.154-1.352-2.066-.041-.062.036-.065a9.907,9.907,0,0,0,.965-2.448l.018-.072.071-.018,2.4-.586-.091.118q-.035-2.092-.068-4.085l.092.111-2.418-.507-.067-.014-.018-.066a9.947,9.947,0,0,0-1.046-2.418l-.034-.056.034-.056,1.283-2.109.017.129-2.934-2.844.12.012L356.64,30.5l-.046.03-.048-.027a9.985,9.985,0,0,0-2.455-.974l-.048-.012-.012-.048c-.21-.872-.4-1.658-.58-2.4l.073.056-4.086.054.054-.045c-.207.964-.377,1.756-.519,2.415l-.005.024-.024.007a10.316,10.316,0,0,0-1.868.719l-.439.229a.972.972,0,0,1-.147.075,1.237,1.237,0,0,1,.136-.092c.094-.058.235-.144.431-.248a9.671,9.671,0,0,1,1.865-.76l-.029.031c.133-.661.293-1.454.488-2.421l.009-.044h.046l4.086-.09h.058l.015.058.6,2.4-.06-.061a10.081,10.081,0,0,1,2.5.976l-.093,0,2.062-1.359.064-.042.056.054,2.946,2.832.06.058-.044.072-1.276,2.113v-.112a10.118,10.118,0,0,1,1.076,2.469l-.085-.08,2.419.5.09.018,0,.093q.037,1.992.076,4.085l0,.1-.093.022-2.4.59.089-.089a10.141,10.141,0,0,1-.986,2.51l0-.127,1.354,2.064.054.083-.069.071L359.1,49.214l-.07.072-.086-.052-2.111-1.279h.128a10.152,10.152,0,0,1-2.472,1.074l.088-.1c-.173.83-.345,1.655-.5,2.419l-.02.1-.1,0-4.086.07h-.1l-.023-.1c-.2-.828-.4-1.648-.586-2.4l.088.089a10.16,10.16,0,0,1-2.508-.989l.124,0L344.8,49.476l-.079.051-.067-.065-2.937-2.842-.065-.063.047-.076,1.283-2.109v.112a10.115,10.115,0,0,1-1.069-2.471l.078.073-2.417-.508-.077-.016,0-.079c-.022-1.433-.042-2.8-.062-4.086v-.071l.069-.017,2.4-.581-.061.061a10.128,10.128,0,0,1,.991-2.495l0,.076c-.484-.747-.937-1.444-1.345-2.071l-.028-.044.035-.036L344.35,29.3l.023-.024.026.017,1.556.968.4.254a1.2,1.2,0,0,1,.135.092" transform="translate(-108.623 -8.632)" fill="#f5f5f5"/>
      <path id="Path_1361" data-name="Path 1361" d="M249.172,57.646a7.8,7.8,0,0,1,1.9-.825l.391-1.878,3.173-.056.457,1.863a7.778,7.778,0,0,1,1.926.758l1.6-1.051,2.283,2.205L259.91,60.3a7.759,7.759,0,0,1,.825,1.9l1.878.39.056,3.174-1.863.457a7.763,7.763,0,0,1-.758,1.925l1.051,1.6-2.2,2.283-1.64-.994a7.773,7.773,0,0,1-1.9.824l-.39,1.879-3.174.056-.457-1.864a7.764,7.764,0,0,1-1.925-.757l-1.6,1.052-2.284-2.205.995-1.64a7.745,7.745,0,0,1-.825-1.9l-1.879-.391-.056-3.173,1.864-.457a7.778,7.778,0,0,1,.757-1.926l-1.051-1.6,2.2-2.283Zm1.692,4.228a3.4,3.4,0,1,0,4.815-.085,3.405,3.405,0,0,0-4.815.085" transform="translate(-78.006 -17.565)" fill="#f5f5f5"/>
      <path id="Path_1362" data-name="Path 1362" d="M253.73,64.644a2.576,2.576,0,0,1,.634-.556,3.388,3.388,0,0,1,2.222-.526,3.436,3.436,0,0,1,1.51.537,3.486,3.486,0,0,1,1.221,1.376,3.487,3.487,0,0,1,.329,2,3.473,3.473,0,0,1-2.874,2.978,3.491,3.491,0,0,1-2.015-.258,3.489,3.489,0,0,1-1.418-1.172A3.44,3.44,0,0,1,253.2,65.3a2.575,2.575,0,0,1,.534-.653c.018.016-.205.224-.468.691a3.4,3.4,0,0,0-.377,2.18,3.328,3.328,0,0,0,1.944,2.519,3.322,3.322,0,0,0,1.909.234,3.3,3.3,0,0,0,2.717-2.814,3.336,3.336,0,0,0-.3-1.9A3.328,3.328,0,0,0,256.57,63.7a3.393,3.393,0,0,0-2.166.453c-.458.278-.658.509-.674.492" transform="translate(-80.873 -20.334)" fill="#f5f5f5"/>
      <path id="Path_1363" data-name="Path 1363" d="M249.138,57.618a.8.8,0,0,1-.106-.056l-.314-.182-1.236-.73.039,0-2.192,2.3.006-.062,1.057,1.6.019.029-.016.031a7.763,7.763,0,0,0-.746,1.913l-.009.038-.038.009-1.862.462.053-.069c.02,1,.041,2.06.063,3.173l-.061-.074,1.879.388.048.01.014.048a7.694,7.694,0,0,0,.819,1.876l.026.044-.026.044-.992,1.641-.014-.107,2.287,2.2-.113-.01,1.6-1.053.047-.031.049.027a7.711,7.711,0,0,0,1.9.747l.055.014.014.056c.143.583.3,1.22.458,1.863l-.095-.073,3.173-.057-.093.078c.123-.594.256-1.233.39-1.879l.012-.058.057-.016a7.68,7.68,0,0,0,1.872-.813h0l.051-.031.05.031,1.64.994-.12.016L261,69.656l-.012.12-1.051-1.6-.032-.049.029-.05a7.681,7.681,0,0,0,.749-1.9l.014-.056.056-.013,1.864-.456-.071.092q-.028-1.625-.053-3.173l.071.086-1.877-.394-.052-.011-.014-.051a7.689,7.689,0,0,0-.813-1.878l-.027-.044.027-.044,1-1.638.013.1-2.279-2.209.092.009-1.606,1.047-.036.023-.037-.02a7.734,7.734,0,0,0-1.907-.756l-.038-.01L255,56.737l-.451-1.865.057.044-3.174.041.042-.035c-.161.749-.293,1.364-.4,1.875l0,.019-.018.005a8.025,8.025,0,0,0-1.452.558l-.341.178a.766.766,0,0,1-.114.058.944.944,0,0,1,.106-.072c.072-.045.182-.112.335-.192a7.5,7.5,0,0,1,1.448-.59l-.022.024c.1-.513.227-1.13.379-1.882l.007-.034h.035L254.6,54.8h.046l.012.046c.143.575.294,1.185.463,1.861l-.047-.047a7.864,7.864,0,0,1,1.944.759l-.072,0,1.6-1.055.05-.033.043.041,2.288,2.2.047.045-.034.055-.991,1.641V60.23a7.891,7.891,0,0,1,.836,1.918l-.067-.062,1.879.389.071.014v.072q.03,1.548.059,3.173v.074l-.072.018-1.863.458.069-.069a7.888,7.888,0,0,1-.766,1.95l0-.1,1.052,1.6.042.065-.054.056-2.2,2.284-.054.056-.067-.041L257.17,71.1h.1a7.9,7.9,0,0,1-1.92.834l.069-.074c-.135.645-.268,1.285-.391,1.879l-.016.075h-.078l-3.173.054h-.077l-.018-.074c-.158-.643-.313-1.28-.456-1.864l.069.069a7.889,7.889,0,0,1-1.947-.768l.1,0-1.605,1.05-.061.04-.052-.051-2.281-2.207-.05-.048.036-.06,1-1.638V68.4a7.853,7.853,0,0,1-.83-1.92l.061.057-1.878-.394-.06-.013v-.061c-.017-1.114-.033-2.175-.048-3.173v-.056l.054-.014,1.865-.452-.047.047a7.884,7.884,0,0,1,.77-1.938l0,.059-1.044-1.608-.022-.033.028-.029,2.217-2.27.018-.018.021.014,1.208.751.311.2a.883.883,0,0,1,.105.072" transform="translate(-77.973 -17.537)" fill="#f5f5f5"/>
      <path id="Path_1364" data-name="Path 1364" d="M35.283,139.967a7.8,7.8,0,0,1,1.9-.825l.391-1.878,3.173-.056.457,1.863a7.779,7.779,0,0,1,1.926.758l1.6-1.051,2.283,2.205-.994,1.639a7.788,7.788,0,0,1,.825,1.9l1.878.391.056,3.173-1.863.457a7.778,7.778,0,0,1-.757,1.926l1.051,1.6-2.2,2.283-1.64-.994a7.774,7.774,0,0,1-1.9.824l-.39,1.879-3.174.056-.457-1.864a7.763,7.763,0,0,1-1.925-.758l-1.6,1.052-2.284-2.205.994-1.64a7.8,7.8,0,0,1-.825-1.9l-1.878-.391-.056-3.173,1.864-.457a7.778,7.778,0,0,1,.757-1.926l-1.051-1.6,2.2-2.283Zm1.692,4.228a3.4,3.4,0,1,0,4.815-.085,3.406,3.406,0,0,0-4.815.085" transform="translate(-9.558 -43.909)" fill="#f5f5f5"/>
      <path id="Path_1365" data-name="Path 1365" d="M39.841,146.965a2.576,2.576,0,0,1,.634-.556,3.388,3.388,0,0,1,2.222-.526,3.436,3.436,0,0,1,1.51.537,3.486,3.486,0,0,1,1.221,1.376,3.488,3.488,0,0,1,.329,2,3.473,3.473,0,0,1-2.874,2.977,3.477,3.477,0,0,1-2.015-.258,3.483,3.483,0,0,1-1.418-1.172,3.44,3.44,0,0,1-.142-3.729,2.574,2.574,0,0,1,.534-.653c.018.016-.205.224-.468.691a3.4,3.4,0,0,0-.377,2.18,3.328,3.328,0,0,0,1.944,2.519,3.322,3.322,0,0,0,1.909.234,3.3,3.3,0,0,0,2.717-2.814,3.336,3.336,0,0,0-.3-1.9,3.328,3.328,0,0,0-2.585-1.854,3.393,3.393,0,0,0-2.166.453c-.458.278-.658.509-.674.492" transform="translate(-12.425 -46.679)" fill="#f5f5f5"/>
      <path id="Path_1366" data-name="Path 1366" d="M35.25,139.939a.7.7,0,0,1-.106-.056l-.314-.182-1.236-.73.039,0-2.192,2.3.006-.062,1.057,1.6.019.029-.016.031a7.735,7.735,0,0,0-.745,1.913l-.01.038-.038.009-1.862.462.053-.069c.02,1,.041,2.06.063,3.173l-.061-.074,1.879.388.048.01.014.047a7.694,7.694,0,0,0,.819,1.876l.026.044-.026.044-.992,1.641-.014-.107,2.287,2.2-.113-.01,1.6-1.053.047-.031.049.027a7.711,7.711,0,0,0,1.9.747l.055.014.014.056c.143.583.3,1.22.458,1.863L37.868,156l3.173-.057-.093.078c.124-.594.256-1.233.391-1.879l.012-.058.057-.016a7.709,7.709,0,0,0,1.872-.814h0l.051-.031.05.031,1.64.994-.121.016,2.206-2.283-.012.12-1.051-1.6-.032-.049.029-.05a7.68,7.68,0,0,0,.749-1.9l.014-.056.056-.013,1.864-.456-.071.092q-.028-1.625-.053-3.173l.071.086-1.877-.394-.052-.011-.014-.05a7.683,7.683,0,0,0-.813-1.879l-.027-.044.027-.044,1-1.638.013.1L44.647,138.8l.092.009-1.606,1.047-.036.023-.037-.02a7.735,7.735,0,0,0-1.907-.756l-.038-.01-.009-.037-.451-1.865.057.044-3.174.041.042-.035-.4,1.875,0,.019-.018.005a8.026,8.026,0,0,0-1.452.558l-.341.178a.763.763,0,0,1-.114.058.945.945,0,0,1,.106-.072c.072-.044.182-.112.335-.192a7.5,7.5,0,0,1,1.448-.59l-.022.024c.1-.513.227-1.13.379-1.881l.007-.035h.035l3.173-.069h.046l.012.046c.143.575.294,1.185.463,1.861l-.047-.046a7.836,7.836,0,0,1,1.944.758l-.072,0,1.6-1.055.05-.033.043.041,2.288,2.2.047.045-.034.055-.991,1.641v-.087a7.892,7.892,0,0,1,.836,1.918l-.067-.062,1.879.389.071.014v.072q.029,1.548.058,3.173v.074l-.072.018-1.863.458.069-.069a7.886,7.886,0,0,1-.766,1.95l0-.1,1.052,1.6.042.065-.054.056-2.2,2.284-.054.056-.067-.041-1.639-.994h.1a7.9,7.9,0,0,1-1.92.834l.069-.073c-.135.645-.268,1.284-.391,1.878l-.016.075h-.078l-3.173.054h-.077l-.018-.074-.456-1.864.069.069a7.888,7.888,0,0,1-1.947-.768l.1,0-1.605,1.05-.061.04-.052-.051L31.54,152.38l-.05-.048.036-.06,1-1.638v.087a7.853,7.853,0,0,1-.83-1.92l.061.057-1.878-.394-.06-.013v-.061c-.017-1.114-.033-2.175-.048-3.173v-.056l.054-.014,1.865-.452-.046.047a7.855,7.855,0,0,1,.769-1.938l0,.059-1.045-1.608-.022-.033.028-.028,2.217-2.271.018-.018.021.014,1.208.751.311.2a.886.886,0,0,1,.105.072" transform="translate(-9.525 -43.881)" fill="#f5f5f5"/>
      <path id="Path_1367" data-name="Path 1367" d="M51.579,209.777a24.62,24.62,0,0,1,6.014-2.613l1.238-5.953,10.057-.176,1.447,5.9a24.64,24.64,0,0,1,6.1,2.4l5.082-3.332L88.755,213l-3.15,5.2a24.641,24.641,0,0,1,2.613,6.015l5.951,1.238.177,10.057-5.9,1.447a24.66,24.66,0,0,1-2.4,6.1l3.331,5.083-6.985,7.236-5.2-3.151a24.648,24.648,0,0,1-6.014,2.613l-1.239,5.953-10.056.176-1.448-5.9a24.659,24.659,0,0,1-6.1-2.4l-5.082,3.332L40.014,249l3.15-5.2a24.61,24.61,0,0,1-2.613-6.014L34.6,236.551l-.177-10.056,5.9-1.448a24.66,24.66,0,0,1,2.4-6.1L39.4,213.862l6.985-7.236Zm5.361,13.4a10.79,10.79,0,1,0,15.256-.269A10.79,10.79,0,0,0,56.94,223.174Z" transform="translate(-11.016 -64.335)" fill="none" stroke="#e0e0e0" stroke-miterlimit="10" stroke-width="0.05"/>
      <path id="Path_1368" data-name="Path 1368" d="M66.022,231.951a8.154,8.154,0,0,1,2.009-1.763,10.742,10.742,0,0,1,7.039-1.664,10.868,10.868,0,0,1,4.784,1.7,11.044,11.044,0,0,1,3.869,4.359,11.063,11.063,0,0,1,1.042,6.35,11.006,11.006,0,0,1-9.108,9.435,11.059,11.059,0,0,1-6.384-.818,11.05,11.05,0,0,1-4.493-3.714,10.868,10.868,0,0,1-1.867-4.722,10.74,10.74,0,0,1,1.416-7.093,8.141,8.141,0,0,1,1.691-2.069c.058.05-.651.708-1.482,2.189a10.761,10.761,0,0,0-1.193,6.907,10.545,10.545,0,0,0,6.16,7.981,10.536,10.536,0,0,0,6.049.742,10.455,10.455,0,0,0,8.609-8.919,10.549,10.549,0,0,0-.953-6.019,10.545,10.545,0,0,0-8.192-5.875,10.76,10.76,0,0,0-6.862,1.435c-1.451.883-2.084,1.616-2.136,1.559" transform="translate(-20.098 -73.111)" fill="#ebebeb"/>
      <path id="Path_1369" data-name="Path 1369" d="M51.474,209.689a2.346,2.346,0,0,1-.335-.177l-1-.576-3.917-2.313.122-.016L39.4,213.883l.018-.194c1.016,1.536,2.145,3.242,3.352,5.069l.061.091-.053.1a24.607,24.607,0,0,0-2.362,6.061l-.029.119-.12.03-5.9,1.465.167-.218c.063,3.167.13,6.527.2,10.056l-.194-.234,5.954,1.227.152.032.043.149a24.455,24.455,0,0,0,2.6,5.946l.084.138-.084.139-3.143,5.2-.044-.341,7.245,6.977-.358-.034,5.079-3.336.149-.1.156.086a24.482,24.482,0,0,0,6.029,2.367l.176.043.043.176,1.452,5.9-.3-.231,10.056-.181-.3.245,1.238-5.952.038-.184.18-.051a24.41,24.41,0,0,0,5.934-2.577l0,0,.163-.1.158.1,5.2,3.151-.382.05,6.988-7.234-.036.381-3.329-5.084-.1-.154.09-.16a24.351,24.351,0,0,0,2.375-6.025l.044-.177.176-.042,5.9-1.444-.224.292q-.085-5.15-.167-10.056l.226.273-5.95-1.246-.165-.035-.046-.161a24.425,24.425,0,0,0-2.576-5.952l-.084-.139.084-.138,3.159-5.19.041.318-7.221-7,.294.028-5.091,3.318-.113.073-.117-.065a24.536,24.536,0,0,0-6.042-2.4l-.12-.03-.029-.119c-.518-2.147-.986-4.082-1.427-5.909l.181.139-10.058.132.133-.11c-.51,2.374-.928,4.322-1.276,5.944l-.013.06-.058.016a25.535,25.535,0,0,0-4.6,1.769l-1.081.565a2.48,2.48,0,0,1-.361.184,3.139,3.139,0,0,1,.335-.228c.23-.141.579-.354,1.06-.611a23.811,23.811,0,0,1,4.591-1.87l-.07.075c.328-1.627.721-3.579,1.2-5.96l.022-.108.112,0,10.056-.22.146,0,.035.143c.454,1.824.934,3.756,1.467,5.9l-.149-.149a24.838,24.838,0,0,1,6.161,2.4l-.23.008,5.075-3.343.157-.1.137.132,7.25,6.971.148.143-.107.176-3.142,5.2v-.277a24.933,24.933,0,0,1,2.651,6.077l-.21-.2,5.953,1.231.222.046,0,.228q.092,4.905.187,10.056l0,.235-.229.056-5.9,1.452.22-.22a24.953,24.953,0,0,1-2.426,6.178l-.012-.314,3.333,5.082.135.2-.17.176L82.5,255.495l-.171.177-.211-.129-5.2-3.15h.32l-.005,0a24.981,24.981,0,0,1-6.084,2.642l.218-.234-1.24,5.951-.05.241-.245,0-10.056.173-.242,0-.058-.235c-.5-2.038-.991-4.056-1.444-5.906l.219.219a25,25,0,0,1-6.172-2.434l.3-.011L47.3,256.138l-.193.126-.165-.16-7.228-6.995-.158-.153.114-.188,3.158-5.191v.276a24.942,24.942,0,0,1-2.631-6.082l.194.18-5.95-1.25-.19-.04,0-.194c-.054-3.529-.105-6.89-.154-10.057l0-.176.171-.041,5.908-1.431-.149.149a24.9,24.9,0,0,1,2.439-6.141l.007.188-3.311-5.1-.069-.106.087-.089,7.028-7.2.056-.057.067.041,3.828,2.381.985.626a2.961,2.961,0,0,1,.333.228" transform="translate(-10.911 -64.247)" fill="#ebebeb"/>
      <path id="Path_1370" data-name="Path 1370" d="M304.935,62.94a16.593,16.593,0,0,1,4.359.67l2.84-2.942,5.785,3.508-1.295,3.879a16.541,16.541,0,0,1,2.61,3.555l4.087-.071,1.61,6.571-3.657,1.826A16.557,16.557,0,0,1,320.6,84.3l2.942,2.84-3.508,5.785-3.879-1.3a16.608,16.608,0,0,1-3.555,2.61l.071,4.087-6.571,1.61-1.826-3.656a16.593,16.593,0,0,1-4.359-.672l-2.841,2.942-5.785-3.508,1.3-3.879a16.565,16.565,0,0,1-2.61-3.555l-4.087.071-1.61-6.571,3.657-1.825a16.564,16.564,0,0,1,.671-4.36l-2.942-2.84,3.508-5.785,3.879,1.295a16.564,16.564,0,0,1,3.555-2.61l-.071-4.087,6.571-1.61Zm-1.757,9.546a7.258,7.258,0,1,0,8.777,5.322,7.257,7.257,0,0,0-8.777-5.322" transform="translate(-90.975 -18.971)" fill="#e0e0e0"/>
      <path id="Path_1371" data-name="Path 1371" d="M309.389,78.565a5.478,5.478,0,0,1,1.775-.282,7.225,7.225,0,0,1,4.6,1.579,7.312,7.312,0,0,1,2.112,2.684,7.425,7.425,0,0,1,.637,3.868A7.445,7.445,0,0,1,316.83,90.4a7.406,7.406,0,0,1-8.567,2.1,7.445,7.445,0,0,1-3.339-2.757,7.434,7.434,0,0,1-1.223-3.725,7.318,7.318,0,0,1,.632-3.356,7.229,7.229,0,0,1,3.351-3.527,5.477,5.477,0,0,1,1.7-.571c.016.049-.625.169-1.629.713a7.241,7.241,0,0,0-3.157,3.5,7.093,7.093,0,0,0,.641,6.751,7.088,7.088,0,0,0,3.176,2.593,7.032,7.032,0,0,0,8.1-1.985,7.106,7.106,0,0,0,1.617-3.766,7.1,7.1,0,0,0-2.553-6.282,7.235,7.235,0,0,0-4.419-1.646c-1.143-.018-1.766.171-1.775.12" transform="translate(-97.186 -25.051)" fill="#e0e0e0"/>
      <path id="Path_1372" data-name="Path 1372" d="M304.833,62.9a1.655,1.655,0,0,1-.127-.221l-.36-.685-1.4-2.721.075.035-6.561,1.648.08-.1c.027,1.238.056,2.615.088,4.087v.073l-.065.036a16.569,16.569,0,0,0-3.518,2.6l-.059.058-.079-.027L289.027,66.4l.173-.064-3.494,5.793-.027-.2,2.947,2.835.075.072-.03.1a16.505,16.505,0,0,0-.656,4.314l0,.108-.1.049-3.654,1.831.1-.21c.508,2.064,1.057,4.289,1.618,6.569l-.192-.148,4.087-.075.12,0,.057.1a16.467,16.467,0,0,0,2.581,3.51l.085.088-.039.116c-.405,1.215-.847,2.541-1.293,3.88l-.088-.239,5.786,3.505-.256.033,2.84-2.942.088-.091.12.036a16.432,16.432,0,0,0,4.3.662h0l.126,0,.056.112q.919,1.842,1.826,3.657l-.235-.109,6.571-1.609-.157.2q-.035-2.063-.069-4.087l0-.124.108-.058a16.39,16.39,0,0,0,3.513-2.576l.088-.084.116.039L320,92.7l-.233.085L323.28,87l.031.237-2.938-2.844-.082-.079.032-.108a16.447,16.447,0,0,0,.67-4.31l0-.109.1-.049,3.66-1.819-.09.2-1.6-6.575.157.122-4.087.061h-.091L319,71.646a16.517,16.517,0,0,0-2.578-3.532l-.057-.061.026-.078c.476-1.408.9-2.676,1.308-3.875l.053.144-5.77-3.534.116-.015-2.859,2.924-.029.029-.039-.012A17.177,17.177,0,0,0,305.923,63l-.818-.067a1.65,1.65,0,0,1-.271-.025,2.2,2.2,0,0,1,.273-.01c.182,0,.456.006.822.033a16.063,16.063,0,0,1,3.283.583l-.067.018,2.821-2.96.052-.054.065.039,5.8,3.483.084.05-.031.094-1.282,3.883-.031-.138a16.718,16.718,0,0,1,2.642,3.578l-.133-.078,4.087-.082.127,0,.031.124c.513,2.076,1.052,4.257,1.623,6.568l.033.134-.124.062-3.653,1.832.1-.157a16.793,16.793,0,0,1-.673,4.408l-.049-.187,2.945,2.837.11.106-.08.131-3.5,5.788-.082.135-.15-.05-3.879-1.292.2-.046a16.775,16.775,0,0,1-3.6,2.644l.106-.182q.037,2.024.073,4.087l0,.165-.16.039-6.571,1.612-.161.039-.074-.149-1.826-3.656.182.115h0a16.8,16.8,0,0,1-4.41-.679l.208-.055-2.841,2.941-.115.119-.141-.086-5.783-3.511-.139-.084.052-.154,1.3-3.878.046.2a16.829,16.829,0,0,1-2.638-3.6l.177.1-4.087.067-.155,0-.037-.15L284,81.113l-.035-.144.133-.066,3.659-1.82-.1.157a16.786,16.786,0,0,1,.685-4.4l.046.171-2.937-2.846-.094-.092.068-.112,3.521-5.776.062-.1.112.037L293,67.424l-.138.031a16.721,16.721,0,0,1,3.591-2.619l-.063.109c-.02-1.472-.039-2.848-.055-4.087v-.085l.082-.02,6.58-1.572.052-.013.023.048,1.323,2.729.335.709a1.933,1.933,0,0,1,.108.25" transform="translate(-90.873 -18.935)" fill="#e0e0e0"/>
      <path id="Path_1373" data-name="Path 1373" d="M339.855,254.047a5.538,5.538,0,0,1,1.792-.285,7.29,7.29,0,0,1,4.645,1.594,7.37,7.37,0,0,1,2.132,2.708,7.5,7.5,0,0,1,.643,3.9,7.506,7.506,0,0,1-1.7,4.023,7.475,7.475,0,0,1-8.647,2.12,7.505,7.505,0,0,1-3.369-2.782,7.5,7.5,0,0,1-1.236-3.76,7.384,7.384,0,0,1,.639-3.388,7.289,7.289,0,0,1,3.382-3.56,5.529,5.529,0,0,1,1.72-.576c.016.05-.63.171-1.644.72a7.308,7.308,0,0,0-3.186,3.535,7.159,7.159,0,0,0,.647,6.813,7.159,7.159,0,0,0,3.205,2.617,7.1,7.1,0,0,0,8.173-2,7.154,7.154,0,0,0,1.632-3.8,7.156,7.156,0,0,0-2.576-6.34,7.3,7.3,0,0,0-4.459-1.661c-1.153-.018-1.782.173-1.791.122" transform="translate(-106.918 -81.207)" fill="#ebebeb"/>
      <path id="Path_1374" data-name="Path 1374" d="M335.257,238.239a1.659,1.659,0,0,1-.129-.223l-.364-.692c-.327-.637-.8-1.555-1.411-2.746l.076.035-6.622,1.664.081-.105c.027,1.25.057,2.638.089,4.125v.074l-.066.036a16.721,16.721,0,0,0-3.551,2.625l-.06.058-.08-.027-3.919-1.3.175-.065-3.527,5.846-.027-.2,2.974,2.861.076.073-.029.1a16.654,16.654,0,0,0-.663,4.355v.109l-.1.05-3.688,1.847.1-.212c.513,2.083,1.066,4.329,1.633,6.631l-.193-.149,4.125-.076.12,0,.058.106a16.619,16.619,0,0,0,2.606,3.543l.085.088-.039.117-1.3,3.916-.088-.241,5.84,3.538-.258.034,2.866-2.969.088-.092.122.036a16.578,16.578,0,0,0,4.34.668h0l.128,0,.056.113q.928,1.858,1.843,3.691l-.237-.11,6.633-1.624-.158.206q-.036-2.083-.071-4.125l0-.124.109-.06a16.553,16.553,0,0,0,3.546-2.6l.089-.086.116.039,3.914,1.31-.235.086,3.546-5.835.031.239-2.965-2.87-.082-.08.033-.109a16.616,16.616,0,0,0,.676-4.351l0-.11.1-.049,3.694-1.836-.092.2c-.566-2.334-1.1-4.538-1.612-6.635l.159.122-4.125.063H349.6l-.044-.08a16.644,16.644,0,0,0-2.6-3.564l-.058-.061.027-.079,1.32-3.91.054.145-5.823-3.566.116-.016-2.886,2.951-.029.029-.039-.012a17.32,17.32,0,0,0-3.281-.649l-.826-.067a1.676,1.676,0,0,1-.273-.025,2.245,2.245,0,0,1,.275-.01c.183,0,.46.006.83.033a16.22,16.22,0,0,1,3.314.59l-.067.018,2.848-2.988.052-.054.065.039,5.854,3.515.085.051-.031.095c-.4,1.212-.824,2.495-1.294,3.919l-.031-.139a16.861,16.861,0,0,1,2.667,3.612l-.135-.078,4.125-.083.128,0,.031.125c.518,2.1,1.062,4.3,1.638,6.628l.033.135-.125.063-3.687,1.849.1-.159a16.9,16.9,0,0,1-.679,4.45l-.05-.188,2.972,2.863.112.107-.08.133-3.535,5.842-.082.137-.152-.051-3.915-1.3.205-.047a16.928,16.928,0,0,1-3.63,2.669l.107-.184q.037,2.042.074,4.125l0,.166-.162.04-6.631,1.627-.163.04-.075-.15-1.843-3.69.184.116h0a16.958,16.958,0,0,1-4.451-.686l.209-.056-2.867,2.969-.116.12-.143-.087-5.837-3.543-.14-.086.052-.156,1.31-3.914.047.205a16.96,16.96,0,0,1-2.663-3.633l.178.1-4.125.069-.156,0-.037-.152c-.562-2.3-1.109-4.55-1.617-6.635l-.035-.146.134-.066,3.693-1.837-.1.158a16.949,16.949,0,0,1,.692-4.446l.046.173-2.963-2.872-.1-.092.069-.112,3.554-5.83.063-.1.113.038,3.911,1.318-.139.031a16.882,16.882,0,0,1,3.624-2.643l-.065.11c-.02-1.486-.039-2.875-.055-4.125v-.086l.082-.02,6.641-1.587.053-.013.023.048,1.335,2.754.339.715a1.923,1.923,0,0,1,.109.252" transform="translate(-100.548 -75.034)" fill="#ebebeb"/>
    </g>
  </g>
  <g id="Group_4119" data-name="Group 4119">
    <g id="Group_4118" data-name="Group 4118" clip-path="url(#clip-path)">
      <path id="Path_1375" data-name="Path 1375" d="M42.926,27.66a32.721,32.721,0,0,1,8-3.442l1.672-7.9,13.352-.188,1.894,7.846a32.708,32.708,0,0,1,8.09,3.215l6.763-4.4L92.268,32.1l-4.206,6.883a32.667,32.667,0,0,1,3.442,8l7.9,1.672.188,13.351-7.846,1.9a32.732,32.732,0,0,1-3.216,8.09l4.4,6.763L83.619,88.33l-6.884-4.206a32.69,32.69,0,0,1-8,3.441l-1.671,7.9-13.353.188L51.819,87.8a32.767,32.767,0,0,1-8.09-3.215l-6.763,4.4L27.391,79.68,31.6,72.8a32.688,32.688,0,0,1-3.442-8l-7.9-1.672-.188-13.352,7.846-1.9a32.762,32.762,0,0,1,3.215-8.089l-4.4-6.764,9.308-9.574Z" transform="translate(-6.423 -5.163)" fill="#f09735" fill-rule="evenodd"/>
      <path id="Path_1376" data-name="Path 1376" d="M79.167,63.315a18.417,18.417,0,0,0-.428-2.806,11.062,11.062,0,0,0-1.291-3.046,11.427,11.427,0,0,0-13.722-4.851,10.713,10.713,0,0,0-2.881,1.553,10.458,10.458,0,0,0-2.406,2.42,11.337,11.337,0,0,0,0,13.458,10.428,10.428,0,0,0,2.406,2.421,10.7,10.7,0,0,0,2.881,1.554,11.462,11.462,0,0,0,13.723-4.852,11.049,11.049,0,0,0,1.29-3.046,18.39,18.39,0,0,0,.428-2.8.745.745,0,0,1,.009.188c0,.144-.006.326-.01.551a5.318,5.318,0,0,1-.074.894,8.106,8.106,0,0,1-.219,1.206,10.953,10.953,0,0,1-1.254,3.114,11.656,11.656,0,0,1-7.85,5.546,11.725,11.725,0,0,1-6.155-.489,11,11,0,0,1-2.971-1.588,10.727,10.727,0,0,1-2.485-2.487,11.654,11.654,0,0,1,0-13.87,10.721,10.721,0,0,1,2.484-2.486,11,11,0,0,1,2.971-1.588,11.722,11.722,0,0,1,6.154-.489,11.652,11.652,0,0,1,7.85,5.545,10.933,10.933,0,0,1,1.255,3.114,8.113,8.113,0,0,1,.219,1.206,5.325,5.325,0,0,1,.074.894c0,.226.007.407.01.551a.745.745,0,0,1-.009.188" transform="translate(-17.88 -16.518)" fill="#fff"/>
      <path id="Path_1377" data-name="Path 1377" d="M84.772,81.205c.069-.069,2.588,2.338,5.625,5.375s5.445,5.557,5.375,5.626-2.587-2.337-5.625-5.375-5.445-5.556-5.375-5.626" transform="translate(-27.128 -25.987)" fill="#fff"/>
      <path id="Path_1378" data-name="Path 1378" d="M174.117,100.426a42,42,0,0,1,10.264-4.419l2.146-10.136,17.138-.241L206.1,95.7a41.963,41.963,0,0,1,10.385,4.127l8.681-5.647,12.289,11.949-5.4,8.835a41.94,41.94,0,0,1,4.418,10.266l10.136,2.146.242,17.138-10.071,2.432a41.994,41.994,0,0,1-4.127,10.383l5.647,8.682L226.349,178.3l-8.836-5.4a41.992,41.992,0,0,1-10.265,4.418L205.1,187.455l-17.139.241-2.432-10.071a42.01,42.01,0,0,1-10.384-4.127l-8.681,5.647L154.177,167.2l5.4-8.836a41.976,41.976,0,0,1-4.418-10.265l-10.136-2.146-.241-17.138,10.072-2.432A41.979,41.979,0,0,1,158.979,116l-5.647-8.681,11.947-12.29Z" transform="translate(-46.332 -27.403)" fill="#f09735" fill-rule="evenodd"/>
      <path id="Path_1379" data-name="Path 1379" d="M205.651,168.958a1.711,1.711,0,0,1,.205-.01l.585-.011,2.251-.025,8.408-.059-.1.107c-.034-1.448-.073-3.071-.114-4.81l0-.08.077-.035a26.013,26.013,0,0,0,7.2-4.921,18.212,18.212,0,0,0,3.016-3.866,13.229,13.229,0,0,0,1.66-4.916,16.338,16.338,0,0,0-2.573-10.769,19.573,19.573,0,0,0-9.38-7.48,16.14,16.14,0,0,0-9-.625,17.686,17.686,0,0,0-7.822,3.614,15.971,15.971,0,0,0-4.722,6.523c-.209.618-.477,1.21-.63,1.831s-.3,1.236-.447,1.843a19.568,19.568,0,0,0-.322,3.632,16.768,16.768,0,0,0,.431,3.42,15.752,15.752,0,0,0,1.1,3.046,17.486,17.486,0,0,0,3.39,4.7,23.25,23.25,0,0,0,7.014,4.794l.043.019,0,.044q-.117,1.963-.18,3c-.022.329-.039.583-.052.771a2.537,2.537,0,0,1-.024.268,1.807,1.807,0,0,1,0-.246c0-.184.012-.435.021-.758q.038-1.049.108-3.04l.04.062a22.97,22.97,0,0,1-7.122-4.757,17.621,17.621,0,0,1-3.467-4.74,15.909,15.909,0,0,1-1.139-3.093,17,17,0,0,1-.455-3.479,19.824,19.824,0,0,1,.312-3.694q.221-.925.447-1.872c.155-.631.425-1.235.636-1.865a16.26,16.26,0,0,1,4.8-6.665,18,18,0,0,1,7.969-3.7,16.461,16.461,0,0,1,9.2.636,19.884,19.884,0,0,1,9.548,7.624,16.166,16.166,0,0,1,2.291,5.4,9.932,9.932,0,0,1,.255,1.41,9.158,9.158,0,0,1,.142,1.408c.013.47.039.936.041,1.4q-.063.695-.125,1.381a13.525,13.525,0,0,1-1.714,5.027,18.433,18.433,0,0,1-3.081,3.921,26.083,26.083,0,0,1-7.3,4.939l.075-.114c.029,1.739.055,3.363.079,4.811l0,.107H217.1L208.63,169l-2.228-.025-.566-.011a1.173,1.173,0,0,1-.185-.01" transform="translate(-61.966 -41.839)" fill="#fff"/>
      <path id="Path_1380" data-name="Path 1380" d="M222.851,191.542a48.981,48.981,0,0,1-5.883.18,48.874,48.874,0,0,1-5.883-.174,49.13,49.13,0,0,1,5.883-.18,49.06,49.06,0,0,1,5.883.174" transform="translate(-67.551 -61.241)" fill="#fff"/>
      <path id="Path_1381" data-name="Path 1381" d="M220.835,198.082a7.117,7.117,0,0,1-4.148-.13,48.349,48.349,0,0,1,4.148.13" transform="translate(-69.343 -63.333)" fill="#fff"/>
      <path id="Path_1382" data-name="Path 1382" d="M213.81,176.74a.794.794,0,0,1-.012-.194v-.569c.007-.526.019-1.259.033-2.188.045-1.926.109-4.668.188-8.044.046-1.7.095-3.56.148-5.554a3.745,3.745,0,0,0-.2-1.438.946.946,0,0,0-1.036-.69,1.373,1.373,0,0,0-.913,1.03,2.11,2.11,0,0,0,.19,1.5,3.413,3.413,0,0,0,2.628,1.748,3.484,3.484,0,0,0,3.057-1.226,5.215,5.215,0,0,0,1.287-3.288,3.113,3.113,0,0,0-.359-1.739,1.28,1.28,0,0,0-1.44-.617,1.3,1.3,0,0,0-.689,1.413,3.521,3.521,0,0,0,.817,1.6,6.521,6.521,0,0,0,2.833,2.19,3.676,3.676,0,0,0,1.7.2,3.445,3.445,0,0,0,1.55-.647,2.693,2.693,0,0,0,.972-1.291,1.953,1.953,0,0,0-.09-1.529,1.317,1.317,0,0,0-1.161-.791,1.615,1.615,0,0,0-1.219.729,6.935,6.935,0,0,0-.714,2.9c-.216,1.981-.358,3.836-.486,5.529l-.543,8.026c-.062.927-.111,1.658-.146,2.182-.019.233-.034.42-.046.568a.82.82,0,0,1-.027.192.8.8,0,0,1-.009-.194c0-.148.006-.336.011-.569.019-.526.046-1.257.08-2.186.082-1.9.211-4.644.43-8.036.113-1.7.239-3.552.444-5.544.061-.5.11-1,.2-1.52a3.757,3.757,0,0,1,.554-1.529,1.922,1.922,0,0,1,1.466-.868,1.638,1.638,0,0,1,1.458.961,2.28,2.28,0,0,1,.115,1.782,3.026,3.026,0,0,1-1.085,1.457,3.772,3.772,0,0,1-1.7.715,4.01,4.01,0,0,1-1.869-.215,6.852,6.852,0,0,1-3-2.3,3.839,3.839,0,0,1-.889-1.765,1.644,1.644,0,0,1,.915-1.794,1.626,1.626,0,0,1,1.864.761,3.45,3.45,0,0,1,.411,1.938,5.557,5.557,0,0,1-1.382,3.51,3.827,3.827,0,0,1-3.357,1.329,3.738,3.738,0,0,1-2.878-1.941,2.434,2.434,0,0,1-.2-1.727,1.674,1.674,0,0,1,1.161-1.249,1.135,1.135,0,0,1,.87.194,1.462,1.462,0,0,1,.507.689,4.025,4.025,0,0,1,.208,1.56c-.069,1.994-.133,3.853-.191,5.553-.126,3.375-.229,6.115-.3,8.04-.042.929-.075,1.66-.1,2.185-.015.233-.026.42-.035.568a.785.785,0,0,1-.024.193" transform="translate(-67.727 -49.621)" fill="#fff"/>
      <path id="Path_1383" data-name="Path 1383" d="M222.372,194.814a32.32,32.32,0,0,1-4.772.177,32.324,32.324,0,0,1-4.773-.177,32.322,32.322,0,0,1,4.773-.177,32.318,32.318,0,0,1,4.772.177" transform="translate(-68.108 -62.287)" fill="#fff"/>
      <path id="Path_1384" data-name="Path 1384" d="M344.614,142.97a27.226,27.226,0,0,1,6.614-2.97l1.289-6.6,11.116-.33,1.68,6.508a27.255,27.255,0,0,1,6.779,2.572l5.574-3.751,8.094,7.627-3.413,5.786a27.244,27.244,0,0,1,2.969,6.615l6.6,1.289.33,11.116-6.508,1.68a27.252,27.252,0,0,1-2.572,6.778l3.751,5.574-7.626,8.094-5.787-3.414a27.231,27.231,0,0,1-6.614,2.97l-1.289,6.6-11.116.33-1.68-6.509a27.224,27.224,0,0,1-6.778-2.572l-5.574,3.751-8.094-7.626,3.414-5.787a27.243,27.243,0,0,1-2.97-6.614l-6.6-1.29-.33-11.115L332.38,160a27.273,27.273,0,0,1,2.572-6.777L331.2,147.65l7.626-8.094Z" transform="translate(-104.284 -42.585)" fill="#f09735" fill-rule="evenodd"/>
      <path id="Path_1385" data-name="Path 1385" d="M383.389,187.61a3.113,3.113,0,0,1-.539.035l-1.546.033-5.687.056-18.763.052h-1.515v-.177c.021-7.009.041-13.294.054-17.87.023-2.244.042-4.068.055-5.369.014-.606.025-1.09.033-1.455a2.731,2.731,0,0,1,.035-.507,2.893,2.893,0,0,1,.035.507c.008.365.018.849.032,1.455.014,1.3.033,3.125.055,5.369.014,4.576.033,10.861.055,17.87l-.177-.177h1.338l18.763.052,5.687.056,1.546.033a3.06,3.06,0,0,1,.539.036" transform="translate(-113.714 -51.974)" fill="#fff"/>
      <path id="Path_1386" data-name="Path 1386" d="M381.6,171.4a7.218,7.218,0,0,1-.832.794l-2.353,2.066c-2,1.733-4.771,4.108-7.85,6.714l-.466.394-.12.1-.115-.107-3.491-3.244.218.005-5.128,4.229-1.488,1.19a3.318,3.318,0,0,1-.556.4,3.275,3.275,0,0,1,.487-.479l1.427-1.262,5.045-4.327.11-.094.107.1L370.1,181.1l-.234,0,.466-.4c3.079-2.606,5.879-4.95,7.917-6.635l2.426-1.979a7.2,7.2,0,0,1,.921-.689" transform="translate(-115.019 -54.851)" fill="#fff"/>
      <path id="Path_1387" data-name="Path 1387" d="M388.939,177.093a8.762,8.762,0,0,1-.122-1.739c-.032-1.078-.052-2.572-.054-4.237l.177.177h-.3c-1.734,0-3.3-.02-4.44-.052a9.5,9.5,0,0,1-1.839-.125,9.5,9.5,0,0,1,1.839-.125c1.136-.032,2.706-.052,4.44-.052h.478v.177c0,1.665-.022,3.159-.054,4.237a8.76,8.76,0,0,1-.122,1.739" transform="translate(-122.361 -54.703)" fill="#fff"/>
      <path id="Path_1388" data-name="Path 1388" d="M126.922,199.069a11.825,11.825,0,0,1-1.241-3.887,11.868,11.868,0,0,1,1.241,3.887" transform="translate(-40.213 -62.462)" fill="#263238"/>
      <path id="Path_1389" data-name="Path 1389" d="M136.218,218.978a27.357,27.357,0,0,1-4.056-7.053,36.155,36.155,0,0,1,2.072,3.5,36.43,36.43,0,0,1,1.984,3.552" transform="translate(-42.292 -67.819)" fill="#263238"/>
      <path id="Path_1390" data-name="Path 1390" d="M151.052,237.642a26.914,26.914,0,0,1-5.7-5.8,37.2,37.2,0,0,1,2.883,2.87,37.444,37.444,0,0,1,2.819,2.933" transform="translate(-46.514 -74.191)" fill="#263238"/>
      <path id="Path_1391" data-name="Path 1391" d="M170.2,251.829a26.238,26.238,0,0,1-7.032-4.094,38.191,38.191,0,0,1,3.535,2.015,38.777,38.777,0,0,1,3.5,2.079" transform="translate(-52.217 -79.278)" fill="#263238"/>
      <path id="Path_1392" data-name="Path 1392" d="M192.5,260.173a22.436,22.436,0,0,1-4.03-.636,23.5,23.5,0,0,1-3.875-1.277,23.543,23.543,0,0,1,3.959.933,24.829,24.829,0,0,1,3.947.98" transform="translate(-59.073 -82.643)" fill="#263238"/>
      <path id="Path_1393" data-name="Path 1393" d="M216.261,261.59a17.6,17.6,0,0,1-4.051.481,17.336,17.336,0,0,1-4.078-.125,36.8,36.8,0,0,1,4.062-.229,35.691,35.691,0,0,1,4.066-.126" transform="translate(-66.606 -83.702)" fill="#263238"/>
      <path id="Path_1394" data-name="Path 1394" d="M239.73,256.444a28.9,28.9,0,0,1-7.835,2.194,34.327,34.327,0,0,1,3.9-1.161,33.9,33.9,0,0,1,3.935-1.034" transform="translate(-74.21 -82.063)" fill="#263238"/>
      <path id="Path_1395" data-name="Path 1395" d="M261.688,246.311a17.7,17.7,0,0,1-3.443,2.188,17.886,17.886,0,0,1-3.722,1.67,34.479,34.479,0,0,1,3.554-1.982,35.2,35.2,0,0,1,3.611-1.875" transform="translate(-81.451 -78.822)" fill="#263238"/>
      <path id="Path_1396" data-name="Path 1396" d="M280.81,231.285a16.68,16.68,0,0,1-2.764,3,16.973,16.973,0,0,1-3.2,2.53,38.512,38.512,0,0,1,2.962-2.789,40.3,40.3,0,0,1,3-2.742" transform="translate(-87.954 -74.014)" fill="#263238"/>
      <path id="Path_1397" data-name="Path 1397" d="M294.975,211.437a17.014,17.014,0,0,1-1.673,3.721,15.923,15.923,0,0,1-2.255,3.4c-.083-.056.872-1.6,1.945-3.571a38.246,38.246,0,0,1,1.983-3.551" transform="translate(-93.138 -67.663)" fill="#263238"/>
      <path id="Path_1398" data-name="Path 1398" d="M303.822,188.958a23.5,23.5,0,0,1-1.1,3.922,23.425,23.425,0,0,1-1.439,3.811,46.868,46.868,0,0,1,2.542-7.733" transform="translate(-96.411 -60.47)" fill="#263238"/>
      <path id="Path_1399" data-name="Path 1399" d="M311.377,166.277a29.218,29.218,0,0,1-1.253,3.875,23.5,23.5,0,0,1-1.5,3.784,23.558,23.558,0,0,1,1.169-3.9c.357-1.068.75-2.009,1.043-2.686a4.062,4.062,0,0,1,.543-1.068" transform="translate(-98.761 -53.211)" fill="#263238"/>
      <path id="Path_1400" data-name="Path 1400" d="M321.424,144.852a36.463,36.463,0,0,1-1.925,3.584,33.415,33.415,0,0,1-2.032,3.526,18.27,18.27,0,0,1,1.722-3.7,17.41,17.41,0,0,1,2.235-3.413" transform="translate(-101.593 -46.355)" fill="#263238"/>
      <path id="Path_1401" data-name="Path 1401" d="M336.442,127.18c.061.083-1.368,1.209-3.007,2.733s-2.889,2.847-2.967,2.778a15.316,15.316,0,0,1,2.727-3.038,14.7,14.7,0,0,1,3.247-2.473" transform="translate(-105.755 -40.698)" fill="#263238"/>
      <path id="Path_1402" data-name="Path 1402" d="M357.215,117.078c.026.1-1.715.63-3.822,1.387s-3.787,1.459-3.83,1.367a15.868,15.868,0,0,1,3.71-1.7,16.347,16.347,0,0,1,3.942-1.054" transform="translate(-111.866 -37.463)" fill="#263238"/>
      <path id="Path_1403" data-name="Path 1403" d="M380.7,114.33c-.006.1-1.826.057-4.064.137s-4.052.226-4.065.124a16.3,16.3,0,0,1,4.053-.478,15.755,15.755,0,0,1,4.076.217" transform="translate(-119.227 -36.512)" fill="#263238"/>
      <path id="Path_1404" data-name="Path 1404" d="M403.984,119.051a38.324,38.324,0,0,1-3.845-1.327,39.708,39.708,0,0,1-3.822-1.393,16.779,16.779,0,0,1,3.941,1.059,17.039,17.039,0,0,1,3.726,1.661" transform="translate(-126.828 -37.224)" fill="#263238"/>
      <path id="Path_1405" data-name="Path 1405" d="M424.838,130.561c-.066.078-1.5-1.047-3.324-2.343a39.81,39.81,0,0,1-3.3-2.383,16.707,16.707,0,0,1,3.5,2.1,16.361,16.361,0,0,1,3.119,2.632" transform="translate(-133.836 -40.267)" fill="#263238"/>
      <path id="Path_1406" data-name="Path 1406" d="M438.823,144.516a7.168,7.168,0,0,1-1.308-1.567,7.081,7.081,0,0,1-1.113-1.711,5.248,5.248,0,0,1,1.4,1.5,5.186,5.186,0,0,1,1.023,1.778" transform="translate(-139.654 -45.197)" fill="#263238"/>
      <path id="Path_1407" data-name="Path 1407" d="M0,41.02s.037-.209.126-.615l.408-1.8A46.261,46.261,0,0,1,2.8,31.88a50.683,50.683,0,0,1,5.628-9.7A55.617,55.617,0,0,1,18.8,11.556,54.97,54.97,0,0,1,34.613,3,58.32,58.32,0,0,1,44.382.64,62.72,62.72,0,0,1,55.019.024,55.108,55.108,0,0,1,66.127,1.431a50.347,50.347,0,0,1,11.01,3.887,49.75,49.75,0,0,1,10.068,6.7,47.649,47.649,0,0,1,8.358,9.229,46,46,0,0,1,5.6,11.123A52.347,52.347,0,0,1,103.715,44.2c.074.99.181,1.975.227,2.958q.035,1.477.069,2.939c.012.975-.052,1.947-.075,2.912-.088.963-.152,1.924-.277,2.872a42.96,42.96,0,0,1-2.921,10.808,83.852,83.852,0,0,1-4.831,9.5l-5.075,8.66A50.926,50.926,0,0,0,84.9,101.711a73.473,73.473,0,0,0-.962,7.782c-.189,2.471-.267,4.808-.279,6.994a77.234,77.234,0,0,0,.528,11.188,44.343,44.343,0,0,0,1.554,6.9c.248.771.462,1.351.617,1.736.074.194.142.335.181.433s.057.148.057.148a15.827,15.827,0,0,1-.923-2.295,42.661,42.661,0,0,1-1.622-6.906,76.041,76.041,0,0,1-.59-11.21c0-2.189.072-4.531.253-7.009a73.324,73.324,0,0,1,.94-7.809A51.073,51.073,0,0,1,90.578,84.7l5.06-8.67a83.538,83.538,0,0,0,4.8-9.467,42.65,42.65,0,0,0,2.888-10.727c.122-.94.185-1.894.272-2.849.021-.959.084-1.922.071-2.891s-.046-1.944-.069-2.923c-.048-.978-.154-1.956-.228-2.941a52.08,52.08,0,0,0-2.538-11.747,45.673,45.673,0,0,0-5.562-11.037,47.334,47.334,0,0,0-8.3-9.162,49.446,49.446,0,0,0-9.993-6.66A50.08,50.08,0,0,0,66.052,1.761,54.841,54.841,0,0,0,55.009.35a62.523,62.523,0,0,0-10.581.6,58.172,58.172,0,0,0-9.72,2.331,54.813,54.813,0,0,0-15.753,8.475A55.641,55.641,0,0,0,8.582,22.295a51.124,51.124,0,0,0-5.66,9.641A48.226,48.226,0,0,0,.6,38.622q-.289,1.171-.441,1.79c-.1.4-.163.608-.163.608" transform="translate(0 0)" fill="#263238"/>
    </g>
  </g>
</svg>
