<svg xmlns="http://www.w3.org/2000/svg" xmlns:xlink="http://www.w3.org/1999/xlink" width="289.196" height="371" viewBox="0 0 289.196 371">
  <defs>
    <clipPath id="clip-path">
      <rect id="Rectangle_617" data-name="Rectangle 617" width="289.196" height="303.008" fill="#d5d5d5"/>
    </clipPath>
    <clipPath id="clip-path-2">
      <rect id="Rectangle_614" data-name="Rectangle 614" width="184" height="371" fill="none"/>
    </clipPath>
    <clipPath id="clip-path-3">
      <path id="Path_1205" data-name="Path 1205" d="M202.364,391.426H73.576A17.866,17.866,0,0,1,55.71,373.561V49.366A17.866,17.866,0,0,1,73.576,31.5H202.364a17.866,17.866,0,0,1,17.866,17.866V373.561a17.866,17.866,0,0,1-17.866,17.866" transform="translate(-46.088 -26.06)" fill="#058f46"/>
    </clipPath>
    <clipPath id="clip-path-4">
      <rect id="Rectangle_616" data-name="Rectangle 616" width="97.994" height="45.634" fill="none"/>
    </clipPath>
    <clipPath id="clip-path-5">
      <rect id="Rectangle_639" data-name="Rectangle 639" width="145.634" height="152.589" fill="none"/>
    </clipPath>
    <clipPath id="clip-path-7">
      <path id="Path_1225" data-name="Path 1225" d="M130.758,88.364c3.979,3.246,19.894,1.827,19.894,1.827V87.755s11.774-5.075,14.007-15.022-6.293-20.909-6.293-20.909-35.322,30.247-27.608,36.54" transform="translate(-129.656 -51.824)" fill="none"/>
    </clipPath>
    <clipPath id="clip-path-8">
      <rect id="Rectangle_618" data-name="Rectangle 618" width="23.536" height="16.052" fill="none"/>
    </clipPath>
    <clipPath id="clip-path-10">
      <path id="Path_1238" data-name="Path 1238" d="M84.948,245.643s-7.714,11.775-8.12,13.6c0,0-26.187,1.421-32.277,4.06s-8.323,10.556-3.045,14.616,40.4,5.481,50.141,2.03c0,0,50.344,6.7,58.87-3.045s-15.428-19.285-35.728-18.27c0,0-7.1-14.007-10.962-15.834a6.577,6.577,0,0,0-2.676-.424c-5.7,0-16.2,3.266-16.2,3.266" transform="translate(-38.541 -242.377)" fill="none"/>
    </clipPath>
    <clipPath id="clip-path-11">
      <rect id="Rectangle_620" data-name="Rectangle 620" width="19.202" height="9.423" fill="none"/>
    </clipPath>
    <clipPath id="clip-path-12">
      <rect id="Rectangle_621" data-name="Rectangle 621" width="17.25" height="8.729" fill="none"/>
    </clipPath>
    <clipPath id="clip-path-13">
      <rect id="Rectangle_622" data-name="Rectangle 622" width="19.263" height="8.806" fill="none"/>
    </clipPath>
    <clipPath id="clip-path-14">
      <rect id="Rectangle_623" data-name="Rectangle 623" width="32.277" height="12.539" fill="none"/>
    </clipPath>
    <clipPath id="clip-path-15">
      <rect id="Rectangle_624" data-name="Rectangle 624" width="3.395" height="4.911" fill="none"/>
    </clipPath>
    <clipPath id="clip-path-17">
      <path id="Path_1241" data-name="Path 1241" d="M48.851,208.933a3.415,3.415,0,0,1-2.132-2.136c-.128-.331.089-1.234,0-2.066a1.458,1.458,0,0,0,.332.425c1.061.966,3.457.042,4.122,1.23.585,1.045-.534,2.642-1.8,2.642a1.481,1.481,0,0,1-.522-.095M76,168.035c-.866,7.559-5.259,17.926-5.2,19.142s-2.734,2.363-4.931,7.547-6.9,8.858-8.071,9.929a14.565,14.565,0,0,0-5.1-.371c-2.626.326-5.1-.371-5.541-1.163A1.814,1.814,0,0,0,46.6,204.2a1.483,1.483,0,0,0-1.071-1.006,19.252,19.252,0,0,0-.313,4.181s-2.566-2.725-3.928-1.442a18.679,18.679,0,0,1,2.769,2.716s-2.075-.919-2.627.326a13.972,13.972,0,0,0,2.7,1.3,2.736,2.736,0,0,1,1.872.929s-2.25-.3-2.4.925a12.205,12.205,0,0,1,3.263.254c1.033.358,4.905.584,6.286-.294s20.4-11.319,24.621-21.067c0,0,5.084-17.308,5.1-21.374l-5.155-12.46c.019.406-.862,3.292-1.728,10.852" transform="translate(-41.293 -157.183)" fill="none"/>
    </clipPath>
    <clipPath id="clip-path-18">
      <rect id="Rectangle_626" data-name="Rectangle 626" width="11.545" height="13.693" fill="none"/>
    </clipPath>
    <clipPath id="clip-path-20">
      <path id="Path_1244" data-name="Path 1244" d="M239.286,206.677c.674-1.183,3.062-.241,4.131-1.2a1.455,1.455,0,0,0,.334-.421c-.1.83.113,1.735-.017,2.065a3.411,3.411,0,0,1-2.147,2.12,1.486,1.486,0,0,1-.513.091c-1.268,0-2.383-1.611-1.788-2.655M207.843,169.7c-.016,4.065,4.941,21.41,4.941,21.41,4.147,9.779,23.091,20.358,24.466,21.246s5.248.69,6.283.34a12.2,12.2,0,0,1,3.266-.23c-.137-1.227-2.389-.942-2.389-.942a2.733,2.733,0,0,1,1.879-.915A13.962,13.962,0,0,0,249,209.337c-.542-1.249-2.624-.346-2.624-.346a18.685,18.685,0,0,1,2.789-2.695c-1.353-1.293-3.939,1.413-3.939,1.413a19.212,19.212,0,0,0-.282-4.183,1.483,1.483,0,0,0-1.078,1,1.813,1.813,0,0,0-.544-1.086c-.449.789-2.926,1.468-5.55,1.123a14.55,14.55,0,0,0-5.1.334c-1.162-1.079-5.84-4.789-8-9.988s-4.941-6.366-4.875-7.582-4.251-11.614-5.061-19.181-1.332-8.765-1.309-9.17Z" transform="translate(-207.843 -158.975)" fill="none"/>
    </clipPath>
    <clipPath id="clip-path-21">
      <rect id="Rectangle_628" data-name="Rectangle 628" width="8.092" height="9.744" fill="none"/>
    </clipPath>
    <clipPath id="clip-path-23">
      <path id="Path_1247" data-name="Path 1247" d="M135.573,139.29c-10.847,5.213-9.892,8.092-9.9,8.1l4.829,11.389,3.857,27.609c13.2,5.075,23.142,0,23.142,0l4.263-29.029s5.546-2.459,4.767-10.11c-.523-5.138-11.221-9.916-21.191-9.916a22.725,22.725,0,0,0-9.763,1.959" transform="translate(-125.652 -137.331)" fill="none"/>
    </clipPath>
    <clipPath id="clip-path-24">
      <rect id="Rectangle_630" data-name="Rectangle 630" width="29.214" height="14.609" fill="none"/>
    </clipPath>
    <clipPath id="clip-path-26">
      <path id="Path_1250" data-name="Path 1250" d="M151.559,119.449l-.057-.074c-.03.092-.008.116.057.074m5.091-16.894c.52,9.584-4.438,16.48-5.091,16.894,8.023,10.4,18.886.325,18.886.325-6.935-4.1-6.944-17.219-6.944-17.219Z" transform="translate(-151.489 -102.555)" fill="none"/>
    </clipPath>
    <clipPath id="clip-path-27">
      <rect id="Rectangle_632" data-name="Rectangle 632" width="12.383" height="9.947" fill="none"/>
    </clipPath>
    <clipPath id="clip-path-29">
      <path id="Path_1260" data-name="Path 1260" d="M117.393,176.247c12.324,16.366,32.547,24.836,41.877,15.506,6.9-6.9,9.135-6.5,9.135-6.5,0-.2-1.624-5.278-3.248-9.744-1.443-3.97-2.719-14.276-2.719-14.276-6.374,6.43-40.106-5.986-40.351-6h-.041c-3.253,0-4.653,21.011-4.653,21.011" transform="translate(-117.393 -155.236)" fill="none"/>
    </clipPath>
    <clipPath id="clip-path-31">
      <path id="Path_1263" data-name="Path 1263" d="M140.413,66.937c0,8.394,9.391,15.2,13.345,15.2s13.345-6.8,13.345-15.2-6.222-18.905-13.592-18.905-13.1,10.511-13.1,18.905" transform="translate(-140.413 -48.032)" fill="none"/>
    </clipPath>
    <clipPath id="clip-path-32">
      <rect id="Rectangle_635" data-name="Rectangle 635" width="26.044" height="18.64" fill="none"/>
    </clipPath>
    <clipPath id="clip-path-34">
      <path id="Path_1266" data-name="Path 1266" d="M123.783,59.682c-4.242,8.291,2.842,17.661,2.842,17.661C118.911,82.215,125,90.537,125,90.537c.609,10.353,12.18,5.075,12.18,5.075,4.263,8.323,13.6,2.03,13.6,2.03,4.669,6.5,10.556,1.624,10.556,1.624,2.436,4.263,6.09,1.827,6.09,1.827a4.416,4.416,0,0,0,3.248,4.263c-2.03,1.421-.812,4.263-.812,4.263a2.936,2.936,0,0,0-2.03.609l1.218,3.451c2.436-1.421,1.827-2.842,1.827-2.842,4.262-2.639.812-5.481.812-5.481,1.015-6.7-2.03-4.263-2.03-4.263-2.03-5.075-5.887-2.436-5.887-2.436-4.263-6.293-8.526-1.421-8.526-1.421-5.887-7.511-14.007-3.248-14.007-3.248-3.857-7.1-8.323-5.278-8.323-5.278a11.613,11.613,0,0,0,4.466-8.932c1.015-3.045-3.654-6.293-4.872-8.729s.609-6.9.609-6.9c3.248-10.15,10.15-14.616,10.15-14.616,5.075,7.917,13.6,14.413,13.6,14.413,2.435-28.014-14.616-20.5-14.616-20.5a8.993,8.993,0,0,0-4.4-1.307c-6.753,0-10.34,10.259-14.069,17.547" transform="translate(-122.43 -42.135)" fill="none"/>
    </clipPath>
  </defs>
  <g id="Group_1112" data-name="Group 1112" transform="translate(-175 -221)">
    <g id="Group_1111" data-name="Group 1111" transform="translate(175 264.496)">
      <g id="Group_1035" data-name="Group 1035" clip-path="url(#clip-path)">
        <path id="Path_1206" data-name="Path 1206" d="M166.063,62.57c11.328-1.181,22.446,1.964,32.582,6.855a122.359,122.359,0,0,1,25.618,16.781c14.643,12.368,26.911,28.414,32.555,46.911,5.659,18.547,3.359,38.116-5.642,55.21-9.446,17.938-24.872,32.265-42.2,42.494a140.317,140.317,0,0,1-62.6,19.153c-20.137,1.216-41.67-2.008-58.571-13.7-15.416-10.665-24.462-27.745-26.88-46.126-2.5-18.994,1.913-38.081,11.354-54.637,10.022-17.575,24.913-31.949,41.327-43.557C131.485,79.314,152.264,68.2,174.48,66.588a68.736,68.736,0,0,1,16,.722c.82.133.473,1.381-.344,1.249-22.6-3.666-44.926,5.21-63.959,16.717-16.838,10.18-32.577,22.832-44.57,38.539C70,139.022,62.294,157.06,61.585,176.327c-.663,17.983,4.514,36.611,16.826,50.084,13.653,14.94,34.107,21.293,53.826,22.346a136,136,0,0,0,62.157-11.863c34.754-15.516,68.221-48.858,63.957-89.877-1.971-18.959-11.814-36.31-24.659-50.064a123.011,123.011,0,0,0-21.854-18.459c-9-5.978-18.875-11.159-29.471-13.578a49.822,49.822,0,0,0-16.305-1.05c-.828.087-.822-1.209,0-1.295" transform="translate(-21.918 -9.333)" fill="#d5d5d5"/>
        <path id="Path_1207" data-name="Path 1207" d="M131.566,256.39c11.571,4.014,24.146,2.222,35.952.306a183.068,183.068,0,0,0,33.267-8.385c20.351-7.4,39.2-19.812,51.414-37.991a70.354,70.354,0,0,0,10.2-56.828c-4.8-19.141-16.649-36.265-31.851-48.675C195.595,76.286,145.72,74.333,102.931,79.7a243.918,243.918,0,0,0-36.978,7.469c-10.136,2.912-20.663,6.384-28.978,13.109-8.776,7.1-13.067,17.459-12.717,28.671.365,11.654,5.455,22.41,11.971,31.861,12.176,17.664,28.188,33.216,45.057,46.365a241.686,241.686,0,0,0,55.608,32.5q7.169,2.984,14.521,5.493c.784.269.447,1.519-.344,1.248A242.963,242.963,0,0,1,42.982,171.776c-13.509-16.363-26.8-39.092-16.516-60.535,4.426-9.231,13.073-15.319,22.194-19.385,10.943-4.88,22.859-7.85,34.563-10.232a262.027,262.027,0,0,1,72.942-4.789c22.315,1.815,44.625,7.381,63.917,19.044,33.886,20.485,56.771,63.742,40.191,102.373-8.375,19.516-24.714,34.719-43.34,44.4a146.4,146.4,0,0,1-32.958,12.051c-11.625,2.832-23.893,5.167-35.888,5.365a48.771,48.771,0,0,1-16.865-2.434c-.782-.272-.446-1.523.344-1.249" transform="translate(4.005 -11.392)" fill="#d5d5d5"/>
        <path id="Path_1208" data-name="Path 1208" d="M55.843,144.051a6.475,6.475,0,1,0,6.475-6.475,6.474,6.474,0,0,0-6.475,6.475" transform="translate(172.924 -20.603)" fill="#d5d5d5"/>
        <path id="Path_1209" data-name="Path 1209" d="M71.073,61.758a3.885,3.885,0,1,0,3.885-3.885,3.885,3.885,0,0,0-3.885,3.885" transform="translate(149.924 -8.667)" fill="#d5d5d5"/>
        <path id="Path_1210" data-name="Path 1210" d="M46.7,214.565a3.885,3.885,0,1,0,3.885-3.885,3.885,3.885,0,0,0-3.885,3.885" transform="translate(195.011 -31.551)" fill="#d5d5d5"/>
        <path id="Path_1211" data-name="Path 1211" d="M240.632,140.814a3.237,3.237,0,1,0,3.237-3.237,3.238,3.238,0,0,0-3.237,3.237" transform="translate(-162.506 -20.603)" fill="#d5d5d5"/>
        <path id="Path_1212" data-name="Path 1212" d="M113.208,139.087a1.511,1.511,0,1,0,1.511-1.511,1.511,1.511,0,0,0-1.511,1.511" transform="translate(76.712 -20.603)" fill="#d5d5d5"/>
        <path id="Path_1213" data-name="Path 1213" d="M226.418,38.925a2.374,2.374,0,1,0,2.374-2.374,2.374,2.374,0,0,0-2.374,2.374" transform="translate(-134.48 -5.474)" fill="#d5d5d5"/>
        <path id="Path_1214" data-name="Path 1214" d="M226.418,265.343a2.374,2.374,0,1,0,2.374-2.374,2.374,2.374,0,0,0-2.374,2.374" transform="translate(-134.48 -39.382)" fill="#d5d5d5"/>
        <path id="Path_1215" data-name="Path 1215" d="M326.935,203.092a5.611,5.611,0,1,0,5.612-5.612,5.612,5.612,0,0,0-5.612,5.612" transform="translate(-326.935 -29.574)" fill="#d5d5d5"/>
        <path id="Path_1216" data-name="Path 1216" d="M5.076,255.813a6.043,6.043,0,1,0,6.043-6.043,6.043,6.043,0,0,0-6.043,6.043" transform="translate(267.718 -37.405)" fill="#d5d5d5"/>
        <path id="Path_1217" data-name="Path 1217" d="M0,99.337a2.374,2.374,0,1,0,2.374-2.374A2.374,2.374,0,0,0,0,99.337" transform="translate(284.448 -14.521)" fill="#d5d5d5"/>
        <path id="Path_1218" data-name="Path 1218" d="M167.529,6.906A6.906,6.906,0,1,0,174.436,0a6.907,6.907,0,0,0-6.907,6.907" transform="translate(-34.585 0)" fill="#d5d5d5"/>
        <path id="Path_1219" data-name="Path 1219" d="M212.71,349.959a4.748,4.748,0,1,0,4.748-4.748,4.748,4.748,0,0,0-4.748,4.748" transform="translate(-113.865 -51.698)" fill="#d5d5d5"/>
        <path id="Path_1220" data-name="Path 1220" d="M288.353,115.266a5.611,5.611,0,1,0,5.612-5.612,5.612,5.612,0,0,0-5.612,5.612" transform="translate(-255.549 -16.422)" fill="#d5d5d5"/>
      </g>
    </g>
    <g id="Group_711" data-name="Group 711" transform="translate(228 221)">
      <g id="Group_1032" data-name="Group 1032" clip-path="url(#clip-path-2)">
        <path id="Path_1180" data-name="Path 1180" d="M180.891,58.635h-.349V22a22,22,0,0,0-22-22H25.217a22,22,0,0,0-22,22V58.635H2.872A2.872,2.872,0,0,0,0,61.506V86.851a2.872,2.872,0,0,0,2.872,2.872h.349v6.045H2.872A2.872,2.872,0,0,0,0,98.639v25.344a2.872,2.872,0,0,0,2.872,2.872h.349V348.811a22,22,0,0,0,22,22H158.546a22,22,0,0,0,22-22V105.266h.349a2.872,2.872,0,0,0,2.872-2.872V61.506a2.872,2.872,0,0,0-2.872-2.872" fill="#333343"/>
        <path id="Path_1181" data-name="Path 1181" d="M202.364,391.426H73.576A17.866,17.866,0,0,1,55.71,373.561V49.366A17.866,17.866,0,0,1,73.576,31.5H202.364a17.866,17.866,0,0,1,17.866,17.866V373.561a17.866,17.866,0,0,1-17.866,17.866" transform="translate(-46.088 -26.06)" fill="#058f46"/>
      </g>
      <g id="Mask_Group_4" data-name="Mask Group 4" clip-path="url(#clip-path-3)">
        <g id="Ellipse_120" data-name="Ellipse 120" transform="translate(-72 230)" fill="#fff" stroke="#707070" stroke-width="1">
          <circle cx="164" cy="164" r="164" stroke="none"/>
          <circle cx="164" cy="164" r="163.5" fill="none"/>
        </g>
      </g>
    </g>
    <g id="Group_1034" data-name="Group 1034" transform="translate(271 320.6)">
      <g id="Group_1033" data-name="Group 1033" transform="translate(0 182)" clip-path="url(#clip-path-4)">
        <path id="Path_1182" data-name="Path 1182" d="M137.373,24.585a28.154,28.154,0,0,0-1.461,3.828c-1.391,3.811-2.744,7.637-4.152,11.443-.427,1.155-.978,2.285-2.383,2.538a18.73,18.73,0,0,1-3.483.185c-.313,0-.351-.161-.347-.414.007-.755,0-1.51,0-2.267,0-.468.174-.723.692-.668a5.868,5.868,0,0,0,.876-.009,1.239,1.239,0,0,0,1.24-1.808c-.866-2.682-1.956-5.282-2.944-7.92-.571-1.52-1.165-3.029-1.74-4.547a3.335,3.335,0,0,1-.1-.5c1.258,0,2.478.034,3.695-.014.572-.024.76.2.9.715.656,2.466,1.357,4.918,2.027,7.381a2.069,2.069,0,0,0,.271.587c.414-1.423.817-2.787,1.207-4.159.4-1.4.811-2.793,1.162-4.2.093-.382.307-.3.526-.3,1.339-.008,2.68-.007,4.02-.01Z" transform="translate(-39.379 -7.784)" fill="#277f34"/>
        <path id="Path_1183" data-name="Path 1183" d="M107.762,24.066a4.8,4.8,0,0,1,2.8-1.94c1.889-.307,3.767-.058,4.752,1.583a5.893,5.893,0,0,1,.614,3c.059,2.633.012,5.267.025,7.9,0,.414-.067.615-.55.6-1.023-.038-2.047-.033-3.072,0-.467.016-.621-.11-.611-.6.027-2.267,0-4.536.019-6.8a6.523,6.523,0,0,0-.213-1.643,1.4,1.4,0,0,0-1.476-1.012,1.912,1.912,0,0,0-1.864,1,3.878,3.878,0,0,0-.414,1.8c-.01,2.219-.016,4.439.007,6.66.005.476-.128.623-.606.606-1-.036-2-.026-3,0-.377.009-.5-.1-.5-.489q.015-8.229,0-16.459c0-.415.164-.476.517-.468,1.025.018,2.051.029,3.074,0,.44-.014.511.161.51.55-.02,1.835-.012,3.678-.012,5.731" transform="translate(-33.039 -5.668)" fill="#277f34"/>
        <path id="Path_1184" data-name="Path 1184" d="M42.057,31.675c1.219.021,2.438.007,3.657.007,1.267,0,2.535-.018,3.8.008.482.007.648-.165.627-.641a11.457,11.457,0,0,0-.152-2.093,6.045,6.045,0,0,0-2.7-4.146,7.065,7.065,0,0,0-4.844-.863,5.642,5.642,0,0,0-4.668,3.583,8.353,8.353,0,0,0-.208,5.763,5.532,5.532,0,0,0,3.765,3.849,8.542,8.542,0,0,0,3.449.247,5.7,5.7,0,0,0,4.94-3.62c.2-.555-.032-.64-.412-.674a19.768,19.768,0,0,0-2.945.025.7.7,0,0,0-.605.408,2.251,2.251,0,0,1-2.71.858,2.122,2.122,0,0,1-1.566-2.157c-.021-.484.152-.563.576-.555m-.7-2.822a2.425,2.425,0,0,1,3.669-1.917,2.526,2.526,0,0,1,1.16,2.026c.059.377-.232.417-.526.414-.657-.006-1.315,0-1.972,0-.606,0-1.217-.026-1.825.01-.432.024-.58-.127-.51-.532Z" transform="translate(-11.84 -7.595)" fill="#277f34"/>
        <path id="Path_1185" data-name="Path 1185" d="M70.982,36.634a2.012,2.012,0,0,1-.431-1.042,46.64,46.64,0,0,1-.136-4.73c0-.975.037-1.951-.01-2.922a3.528,3.528,0,0,0-2.31-3.409,9.218,9.218,0,0,0-5.955-.158,4.164,4.164,0,0,0-3.073,3.2c-.063.255-.282.666.309.662,1.023-.006,2.045,0,3.069,0A.345.345,0,0,0,62.817,28a2.259,2.259,0,0,1,2.9-1.086,1.1,1.1,0,0,1,.85,1.1,1.056,1.056,0,0,1-.878,1c-1.083.315-2.2.465-3.29.7-1.773.38-3.306,1.053-3.738,3.065-.339,1.6.1,3.624,1.857,4.332a5.372,5.372,0,0,0,5.588-.833c.164-.125.259-.433.493-.351.251.085.149.379.163.586.027.455.2.679.713.66,1.071-.036,2.144-.016,3.214-.008.446,0,.624-.1.292-.533m-4.367-4.784c-.007,1.753-.574,2.569-1.752,2.915-1.413.416-2.432-.288-2.354-1.621a1.112,1.112,0,0,1,.625-.978,15.726,15.726,0,0,1,3.208-.962c.512-.157.122.471.273.643Z" transform="translate(-18.66 -7.634)" fill="#277f34"/>
        <path id="Path_1186" data-name="Path 1186" d="M93.081,57.907a4.964,4.964,0,0,1-2.562,1.438c-1.548.189-3.084.294-4.289-1.069-1.274-1.44-1.115-4.788,1.252-5.742a32.8,32.8,0,0,1,4.1-1c.3-.078.589-.185.885-.283a.756.756,0,0,0,.59-.858,1.027,1.027,0,0,0-.642-1.019A2.219,2.219,0,0,0,89.5,50.393c-.157.273-.386.248-.625.248h-2.34c-.691,0-.816-.151-.607-.809A4.021,4.021,0,0,1,88.652,47a9.29,9.29,0,0,1,5.124-.177c2.286.563,2.982,2,3.036,4.06.055,2.022.016,4.046.021,6.069a2.377,2.377,0,0,0,.457,1.617c.243.291.232.584-.291.578-1-.011-2-.018-3,0-.433.01-.7-.074-.688-.587a2.118,2.118,0,0,0-.232-.649M93.053,53.3c-1.054.52-2.18.544-3.177,1.019a1.194,1.194,0,0,0-.663,1.3A1.248,1.248,0,0,0,90,56.8a2.344,2.344,0,0,0,2.839-1.032c.4-.781.118-1.611.22-2.473Z" transform="translate(-27.228 -14.832)" fill="#277f34"/>
        <path id="Path_1187" data-name="Path 1187" d="M59.355,58.67a2.481,2.481,0,0,1-.408-1.553c-.012-1.315.013-2.631-.009-3.945-.016-.9-.169-1.8-.112-2.694a3.386,3.386,0,0,0-1.787-3.122,8.862,8.862,0,0,0-4.385-.553,5.134,5.134,0,0,0-2.982,1,3.947,3.947,0,0,0-1.379,2.06c-.093.331-.089.672.452.655.64-.018,1.284.027,1.924.038.524.01,1.011,0,1.172-.679.061-.257.377-.361.622-.462a2.824,2.824,0,0,1,2.071-.063,1.146,1.146,0,0,1,.916,1.164,1.014,1.014,0,0,1-.905,1.055c-.919.23-1.872.333-2.8.538-2,.444-3.56.855-3.888,3.475-.34,2.718,1.8,3.927,3.9,3.819a5.3,5.3,0,0,0,3.19-1.247c.307-.258.586-.157.628.215.067.6.41.7.905.676.365-.018.73,0,1.1,0,.512,0,1.023.007,1.535-.005.228-.006.495-.039.245-.372m-5.142-1.82a2.584,2.584,0,0,1-1.273.255,1.575,1.575,0,0,1-1.62-1.3,1.319,1.319,0,0,1,.947-1.592c.861-.284,1.734-.529,2.6-.807.328-.106.538-.03.571.318a2.965,2.965,0,0,1-1.222,3.126Z" transform="translate(-15.24 -14.893)" fill="#f5b100"/>
        <path id="Path_1188" data-name="Path 1188" d="M72.791,47.212c1.489,0,2.976.022,4.462-.01.544-.013.771.095.747.707a5.5,5.5,0,0,0-.026,1.7c.074.272-.136.438-.308.616-1.463,1.513-2.941,3.016-4.375,4.558-.311.333-.594.7-.914,1.027-.134.139-.333.279-.221.489a.6.6,0,0,0,.544.281h1.536c1.1,0,2.192.012,3.289,0,.428-.007.635.136.612.589a6.62,6.62,0,0,0,.009,1.314c.083.586-.212.728-.692.721-2.945-.041-5.891.091-8.834-.068-1.461-.078-1.427-.083-1.466-1.529a2.622,2.622,0,0,1,.854-2.114c1.513-1.477,2.961-3.02,4.423-4.546.265-.279.729-.634.578-.952s-.737-.285-1.123-.279a20.871,20.871,0,0,0-3.507.112c-.566.106-.939-.068-.792-.779a2.713,2.713,0,0,0-.046-.935c-.106-.721.019-.893.722-.893q2.263-.007,4.528,0" transform="translate(-21.399 -15.042)" fill="#f5b100"/>
        <path id="Path_1189" data-name="Path 1189" d="M94.7,28.568a24.316,24.316,0,0,0,.125,3.174c.173.888.447,1.262,1.352,1.218.659-.033.786.214.723.781a3.9,3.9,0,0,0,0,1.094c.106.59-.17.823-.692.88a9.436,9.436,0,0,1-3.306,0c-1.332-.326-2.017-1.406-2.168-3.018-.21-2.283-.084-4.564-.113-6.843-.006-.486-.1-.734-.631-.65-.189.031-.392-.018-.581.008-.467.069-.62-.135-.56-.572a3.458,3.458,0,0,0,0-.511c0-1.314,0-1.331,1.322-1.388.367-.016.445-.144.439-.476-.017-.9.011-1.8-.012-2.7-.01-.378.1-.508.491-.5,1.049.025,2.1.029,3.142,0,.42-.011.476.172.468.518-.016.9.01,1.8-.011,2.7-.009.354.109.495.454.444a.442.442,0,0,1,.074,0c.544.059,1.4-.254,1.574.137a5.477,5.477,0,0,1,.1,2.083c0,.187-.093.259-.268.254H96.4c-1.711.06-1.711.06-1.705,1.8,0,.468,0,.931,0,1.556" transform="translate(-28.311 -6.076)" fill="#267d34"/>
        <path id="Path_1190" data-name="Path 1190" d="M84.345,26.513c0,2.68-.013,5.361.013,8.04,0,.506-.113.671-.638.647-.973-.044-1.949-.027-2.921,0-.386.007-.552-.069-.55-.509q.026-8.187,0-16.371c0-.408.1-.553.525-.54,1,.03,2,.043,3,0,.52-.023.587.185.585.627-.018,2.7-.009,5.408-.009,8.112Z" transform="translate(-25.574 -5.664)" fill="#267d34"/>
        <path id="Path_1191" data-name="Path 1191" d="M110.166,48.973a15.866,15.866,0,0,1,1.2-1.291,3.3,3.3,0,0,1,2.246-.784c.332,0,.414.12.414.412-.006.878-.01,1.754,0,2.631,0,.275-.086.378-.373.39-.5.018-.994.091-1.491.141a2.458,2.458,0,0,0-1.95,1.9,40.215,40.215,0,0,0-.127,5.906c-.016.634-.174.871-.826.827-.777-.052-1.56-.03-2.338-.007-.372.013-.51-.091-.506-.484.016-2.032.029-4.065,0-6.1-.022-1.626.1-3.253-.067-4.878-.029-.283.1-.576.559-.544a21.553,21.553,0,0,0,2.41.006c.471-.022.65.112.623.6-.02.42-.136.875.222,1.269" transform="translate(-33.891 -14.945)" fill="#f5b100"/>
        <rect id="Rectangle_615" data-name="Rectangle 615" width="1.324" height="1.25" transform="translate(80.139 42.809)" fill="#277f34"/>
        <path id="Path_1192" data-name="Path 1192" d="M136.031,62.791h-1.26V58.922h1.16v.509a1.681,1.681,0,0,1,1.269-.614,1.236,1.236,0,0,1,1.169.624,1.635,1.635,0,0,1,.935-.592,1.5,1.5,0,0,1,1.171.211,1.141,1.141,0,0,1,.46.965c.015.916.005,1.832.005,2.763H139.7c0-.087-.01-.168-.01-.251,0-.609,0-1.218,0-1.827a3.716,3.716,0,0,0-.035-.461.481.481,0,0,0-.375-.447.547.547,0,0,0-.619.253,1.6,1.6,0,0,0-.157.593c-.02.624-.009,1.249-.01,1.874,0,.084,0,.167,0,.265h-1.262c0-.076-.01-.157-.011-.238-.005-.717-.005-1.434-.016-2.152-.006-.364-.156-.568-.418-.6a.592.592,0,0,0-.687.478,3.2,3.2,0,0,0-.066.686c-.009.524,0,1.049,0,1.573v.258" transform="translate(-42.949 -18.744)" fill="#277f34"/>
        <path id="Path_1193" data-name="Path 1193" d="M127.464,60.851a1.952,1.952,0,0,1,2.131-2.03,1.978,1.978,0,0,1,2.116,2.035,2,2,0,0,1-2.171,2.039,1.955,1.955,0,0,1-2.076-2.043m2.986-.016a4.438,4.438,0,0,0-.122-.546.759.759,0,0,0-.729-.537.781.781,0,0,0-.759.531,1.591,1.591,0,0,0-.031,1.062.785.785,0,0,0,.794.608.806.806,0,0,0,.769-.647c.036-.14.048-.287.077-.472" transform="translate(-40.62 -18.745)" fill="#277f34"/>
        <path id="Path_1194" data-name="Path 1194" d="M124.733,60.195c-.365.055-.692.1-1.018.156a.186.186,0,0,1-.241-.138.679.679,0,0,0-.686-.452.7.7,0,0,0-.691.451,1.677,1.677,0,0,0-.012,1.3.684.684,0,0,0,.673.44.71.71,0,0,0,.7-.393c.041-.082.074-.166.117-.263l1.194.16a1.641,1.641,0,0,1-.972,1.25,2.627,2.627,0,0,1-2.092-.019,1.732,1.732,0,0,1-1.017-1.632,2.851,2.851,0,0,1,.061-.779,1.758,1.758,0,0,1,1.743-1.44,4.159,4.159,0,0,1,1.2.14,1.514,1.514,0,0,1,1.032,1.215" transform="translate(-38.461 -18.751)" fill="#277f34"/>
        <path id="Path_1195" data-name="Path 1195" d="M15.933,31.052c.25.047.324.215.308.444" transform="translate(-5.078 -9.896)" fill="#277f34"/>
        <path id="Path_1196" data-name="Path 1196" d="M16.248,29.793c.016-.23-.058-.4-.307-.445.186-.322.515-.121.771-.193a66.807,66.807,0,0,0,7.914-2.636,7.13,7.13,0,0,1,2.41-.8,4.233,4.233,0,0,1-.827,1.715c-.146.272-.309.539-.466.808-1.66,1.254-3,2.909-4.82,3.954-2.043,1.168-3.428,1.053-4.267-1.452-.108-.322,0-.757-.407-.948" transform="translate(-5.08 -8.196)" fill="#f3b200"/>
        <path id="Path_1197" data-name="Path 1197" d="M23.808,15.2h0l-.016.032v0h0l0,0c0,.009.008.017.012.027v.01a.122.122,0,0,1,0,.027.106.106,0,0,1,0,.021.127.127,0,0,1-.011.031.077.077,0,0,1-.007.015.148.148,0,0,1-.022.025.111.111,0,0,1-.014.012l-.009.007a.107.107,0,0,1-.033.014v0h0a4.267,4.267,0,0,1-2.141.021c-.965-.05-1.938-.067-2.893-.2-1.705-.237-3.4-.568-5.1-.818-.455-.066-.477-.161-.251-.527A51.541,51.541,0,0,1,19.172,6.32a38.013,38.013,0,0,1,5-4.537l.136-.1h0l.156-.14.143-.136A.278.278,0,0,1,24.9,1.24l.151-.134A.46.46,0,0,0,24.593.8c-.328-.035-.412.313-.647.413a17.4,17.4,0,0,0-4.68,3.433,40.388,40.388,0,0,0-4.384,4.66,51.79,51.79,0,0,0-3.4,4.563.745.745,0,0,1-.61.428,2.907,2.907,0,0,0-2.7,2.4,5.209,5.209,0,0,0-.144,2.552.565.565,0,0,1-.155.525,4.357,4.357,0,0,0-.583,1.071,1.539,1.539,0,0,1-1.4,1.08,17.969,17.969,0,0,1-2.384.1A2.681,2.681,0,0,1,1.476,21.1a5.124,5.124,0,0,1-.8-1.808A6.486,6.486,0,0,0,.1,21.007c-.467,2.109.71,2.828,2.582,2.712a16.08,16.08,0,0,0,3.324-.636.658.658,0,0,1-.068.471,45.189,45.189,0,0,0-2.062,5.564C3.1,32,2.405,34.9,3.1,37.915a6.413,6.413,0,0,0,2.558,4.025,9.419,9.419,0,0,0,5.624,1.433c.144,0,.392.112.412-.14.015-.183-.19-.224-.357-.288a7.818,7.818,0,0,1-2.671-1.66c-1.987-1.922-2.49-4.416-2.638-7.018a18.368,18.368,0,0,1,.427-4.305,36.235,36.235,0,0,1,2.073-6.985c.106-.264.219-.61.533-.636.727-.059,1.382-.4,2.1-.485.016-.23-.058-.4-.308-.444l-.982-.146a81.776,81.776,0,0,0,12.809-4.277" transform="translate(0 -0.254)" fill="#277f34"/>
        <path id="Path_1198" data-name="Path 1198" d="M36.557.85A3.464,3.464,0,0,0,37.707,0a2.518,2.518,0,0,0-1.6.544.461.461,0,0,1,.454.307" transform="translate(-11.505 0)" fill="#28773b"/>
        <line id="Line_44" data-name="Line 44" transform="translate(23.808 14.948)" fill="#28773b"/>
        <path id="Path_1199" data-name="Path 1199" d="M36.237,1.478a.27.27,0,0,0-.114.128c.112-.025.24-.019.286-.161h0a.271.271,0,0,0-.17.033" transform="translate(-11.512 -0.46)" fill="#28773b"/>
        <path id="Path_1200" data-name="Path 1200" d="M35.612,2.089l-.135.106c.091.024.119-.035.135-.106" transform="translate(-11.306 -0.666)" fill="#28773b"/>
        <path id="Path_1201" data-name="Path 1201" d="M34.834,22.168l.009-.007.014-.012a.182.182,0,0,0,.022-.025l.007-.016a.113.113,0,0,0,.011-.03.107.107,0,0,0,0-.021.12.12,0,0,0,0-.027.136.136,0,0,0-.012-.037l0,0h0l-.081.19h0a.091.091,0,0,0,.033-.013" transform="translate(-11.09 -7.007)" fill="#28773b"/>
        <path id="Path_1202" data-name="Path 1202" d="M26.938,26.184C29.181,23.7,39.031,5.971,47.574.8c0,0-13.254,4.44-23.03,24.923,0,0-3.225,6.141-2.556,12.342.665,6.158,6.111,10.276,13.105,6.184.048-.029.123-.1.172-.131,0,0-3.892,1.987-5.734.307s-4.412-3.276-4.987-6.5,1.891-11.182,2.394-11.738" transform="translate(-6.978 -0.254)" fill="#277f34"/>
        <path id="Path_1203" data-name="Path 1203" d="M31.114,25.42l.625-.324h0c1.587-3.813,6-13.468,18.148-24.3,0,0-13.254,6.686-20.728,24.3.388-.29,1.545.582,1.954.326" transform="translate(-9.293 -0.254)" fill="#f5b200"/>
        <path id="Path_1204" data-name="Path 1204" d="M28.278,41.918a43.208,43.208,0,0,1,2.133-5.485h0l-.625.324c-.409.257-1.566-.616-1.954-.326h0a25.726,25.726,0,0,0-2.481,7.354,14.585,14.585,0,0,0-.21,5.311,11.106,11.106,0,0,0,1.454,4.559,5.96,5.96,0,0,0,6.164,2.975,7.381,7.381,0,0,0,5.922-3.79,6.255,6.255,0,0,0,.761-5.047c-.06-.2-.129-.4-.207-.6a7.079,7.079,0,0,0-9.192-3.964.927.927,0,0,0-.429,1.476,1.526,1.526,0,0,0,1.156.642,9.587,9.587,0,0,1,2.017.179,7.154,7.154,0,0,1,2.866.846A3.4,3.4,0,0,1,37.2,49.638a4.446,4.446,0,0,1-1.048,2.378,4.879,4.879,0,0,1-3.249,1.994c-1.929.23-4.025-1.472-4.683-3.148a10.623,10.623,0,0,1-.638-4.2,29.9,29.9,0,0,1,.692-4.745" transform="translate(-7.965 -11.591)" fill="#f5b200"/>
      </g>
    </g>
    <g id="Group_1110" data-name="Group 1110" transform="translate(247 272.705)">
      <g id="Group_1109" data-name="Group 1109" clip-path="url(#clip-path-5)">
        <g id="Group_1036" data-name="Group 1036">
          <g id="Group_1035-2" data-name="Group 1035" clip-path="url(#clip-path-5)">
            <path id="Path_1206-2" data-name="Path 1206" d="M107.493,62.447c-5.7-.595-11.3.989-16.408,3.452a61.617,61.617,0,0,0-12.9,8.451c-7.374,6.229-13.552,14.309-16.394,23.624a36.483,36.483,0,0,0,2.841,27.8c4.757,9.033,12.525,16.248,21.249,21.4A70.661,70.661,0,0,0,117.4,156.82c10.141.612,20.984-1.011,29.5-6.9,7.763-5.37,12.319-13.972,13.536-23.228a44.051,44.051,0,0,0-5.718-27.514c-5.047-8.851-12.546-16.089-20.811-21.935-9-6.366-19.465-11.963-30.652-12.774a34.614,34.614,0,0,0-8.059.364c-.413.067-.238.7.173.629,11.381-1.846,22.624,2.624,32.208,8.418,8.479,5.126,16.405,11.5,22.444,19.407,5.847,7.658,9.727,16.742,10.084,26.444.334,9.056-2.273,18.437-8.473,25.221-6.875,7.523-17.175,10.723-27.106,11.253a68.487,68.487,0,0,1-31.3-5.974c-17.5-7.814-34.355-24.6-32.207-45.261.992-9.547,5.949-18.285,12.418-25.211a61.946,61.946,0,0,1,11.005-9.3,45.7,45.7,0,0,1,14.841-6.838,25.089,25.089,0,0,1,8.211-.529c.417.044.414-.609,0-.652" transform="translate(-34.448 -35.637)" fill="#efefef"/>
            <path id="Path_1207-2" data-name="Path 1207" d="M90.406,166.875c-5.827,2.021-12.159,1.119-18.1.154a92.185,92.185,0,0,1-16.753-4.223C45.3,159.081,35.81,152.83,29.657,143.675a35.429,35.429,0,0,1-5.134-28.617,47.024,47.024,0,0,1,16.04-24.512c17.6-14.368,42.716-15.351,64.263-12.646a122.832,122.832,0,0,1,18.621,3.761c5.1,1.466,10.405,3.215,14.593,6.6a17.441,17.441,0,0,1,6.4,14.438c-.184,5.869-2.747,11.285-6.028,16.045-6.132,8.9-14.195,16.727-22.69,23.349a121.709,121.709,0,0,1-28,16.367q-3.61,1.5-7.313,2.766c-.395.135-.225.765.173.629a122.351,122.351,0,0,0,54.431-37.59c6.8-8.24,13.495-19.686,8.317-30.484-2.229-4.649-6.583-7.714-11.176-9.762a83.762,83.762,0,0,0-17.405-5.153,131.952,131.952,0,0,0-36.732-2.412c-11.237.914-22.472,3.717-32.187,9.59C28.767,96.36,17.242,118.144,25.591,137.6c4.217,9.828,12.445,17.484,21.825,22.361a73.722,73.722,0,0,0,16.6,6.069,83.351,83.351,0,0,0,18.072,2.7,24.561,24.561,0,0,0,8.493-1.226c.394-.137.225-.767-.173-.629" transform="translate(-13.043 -43.499)" fill="#efefef"/>
            <path id="Path_1208-2" data-name="Path 1208" d="M62.364,140.836a3.26,3.26,0,1,1-3.26-3.26,3.26,3.26,0,0,1,3.26,3.26" transform="translate(-31.933 -78.671)" fill="#efefef"/>
            <path id="Path_1209-2" data-name="Path 1209" d="M74.986,59.829a1.956,1.956,0,1,1-1.956-1.956,1.956,1.956,0,0,1,1.956,1.956" transform="translate(-40.642 -33.094)" fill="#efefef"/>
            <path id="Path_1210-2" data-name="Path 1210" d="M50.618,212.636a1.956,1.956,0,1,1-1.956-1.956,1.956,1.956,0,0,1,1.956,1.956" transform="translate(-26.708 -120.474)" fill="#efefef"/>
            <path id="Path_1211-2" data-name="Path 1211" d="M243.892,139.207a1.63,1.63,0,1,1-1.63-1.63,1.63,1.63,0,0,1,1.63,1.63" transform="translate(-137.602 -78.671)" fill="#efefef"/>
            <path id="Path_1212-2" data-name="Path 1212" d="M114.73,138.337a.761.761,0,1,1-.761-.761.761.761,0,0,1,.761.761" transform="translate(-64.736 -78.671)" fill="#efefef"/>
            <path id="Path_1213-2" data-name="Path 1213" d="M228.809,37.746a1.2,1.2,0,1,1-1.2-1.2,1.2,1.2,0,0,1,1.2,1.2" transform="translate(-129.474 -20.901)" fill="#efefef"/>
            <path id="Path_1214-2" data-name="Path 1214" d="M228.809,264.164a1.2,1.2,0,1,1-1.2-1.2,1.2,1.2,0,0,1,1.2,1.2" transform="translate(-129.474 -150.375)" fill="#efefef"/>
            <path id="Path_1215-2" data-name="Path 1215" d="M332.586,200.306a2.826,2.826,0,1,1-2.826-2.826,2.826,2.826,0,0,1,2.826,2.826" transform="translate(-186.953 -112.926)" fill="#efefef"/>
            <path id="Path_1216-2" data-name="Path 1216" d="M11.162,252.813a3.043,3.043,0,1,1-3.043-3.043,3.043,3.043,0,0,1,3.043,3.043" transform="translate(-2.903 -142.827)" fill="#efefef"/>
            <path id="Path_1217-2" data-name="Path 1217" d="M2.391,98.158a1.2,1.2,0,1,1-1.2-1.2,1.2,1.2,0,0,1,1.2,1.2" transform="translate(0 -55.447)" fill="#efefef"/>
            <path id="Path_1218-2" data-name="Path 1218" d="M174.485,3.477A3.478,3.478,0,1,1,171.007,0a3.478,3.478,0,0,1,3.478,3.478" transform="translate(-95.799 0.001)" fill="#efefef"/>
            <path id="Path_1219-2" data-name="Path 1219" d="M217.492,347.6a2.391,2.391,0,1,1-2.391-2.391,2.391,2.391,0,0,1,2.391,2.391" transform="translate(-121.635 -197.403)" fill="#efefef"/>
            <path id="Path_1220-2" data-name="Path 1220" d="M294,112.48a2.826,2.826,0,1,1-2.826-2.826A2.826,2.826,0,0,1,294,112.48" transform="translate(-164.89 -62.704)" fill="#efefef"/>
            <path id="Path_1221" data-name="Path 1221" d="M101.665,231.655l2.233-1.827c-1-2.275-3.384-2.657-4.726-2.682l-2.287,1.189c.661,3.317,4.78,3.32,4.78,3.32" transform="translate(-55.402 -129.89)" fill="#1d3542"/>
            <path id="Path_1222" data-name="Path 1222" d="M133.266,231.111s-3.654-2.233-6.09.609c0,0-2.233-1.827-6.09,1.015l-1.421.609s3.857,3.045,8.12.812c0,0,6.7,1.015,6.9-.812a1.983,1.983,0,0,0-1.421-2.233" transform="translate(-68.429 -131.68)" fill="#1d3542"/>
            <path id="Path_1223" data-name="Path 1223" d="M150.651,87.755s11.774-5.075,14.007-15.022-6.293-20.909-6.293-20.909-35.322,30.247-27.608,36.54c3.979,3.246,19.894,1.827,19.894,1.827" transform="translate(-74.142 -29.635)" fill="#1d3542"/>
          </g>
        </g>
        <g id="Group_1041" data-name="Group 1041" transform="translate(55.514 22.189)">
          <g id="Group_1040" data-name="Group 1040" clip-path="url(#clip-path-7)">
            <g id="Group_1039" data-name="Group 1039" transform="translate(6.969 18.064)" opacity="0.22" style="mix-blend-mode: multiply;isolation: isolate">
              <g id="Group_1038" data-name="Group 1038">
                <g id="Group_1037" data-name="Group 1037" clip-path="url(#clip-path-8)">
                  <path id="Path_1224" data-name="Path 1224" d="M145.953,100.717s3.856,9.744,10.961,9.338,12.105-9.472,12.549-14.074-24.322-.339-23.51,4.736" transform="translate(-145.933 -94.015)" fill="#1d3542"/>
                </g>
              </g>
            </g>
          </g>
        </g>
        <g id="Group_1043" data-name="Group 1043">
          <g id="Group_1042" data-name="Group 1042" clip-path="url(#clip-path-5)">
            <path id="Path_1226" data-name="Path 1226" d="M84.949,245.643s-7.714,11.774-8.12,13.6c0,0-26.187,1.421-32.277,4.06s-8.323,10.556-3.045,14.616,40.4,5.481,50.141,2.03c0,0,50.344,6.7,58.87-3.045s-15.428-19.285-35.728-18.27c0,0-7.1-14.007-10.962-15.834s-18.879,2.842-18.879,2.842" transform="translate(-22.039 -138.599)" fill="#ef8b1e"/>
          </g>
        </g>
        <g id="Group_1060" data-name="Group 1060" transform="translate(16.502 103.778)">
          <g id="Group_1059" data-name="Group 1059" clip-path="url(#clip-path-10)">
            <g id="Group_1046" data-name="Group 1046" transform="translate(37.272 30.671)" opacity="0.23" style="mix-blend-mode: multiply;isolation: isolate">
              <g id="Group_1045" data-name="Group 1045" transform="translate(0)">
                <g id="Group_1044" data-name="Group 1044" clip-path="url(#clip-path-11)">
                  <path id="Path_1227" data-name="Path 1227" d="M144.793,321.319a42.765,42.765,0,0,1-19.2-7.308s5.684,7.917,12.18,9.135,7.022-1.827,7.022-1.827" transform="translate(-125.591 -314.011)" fill="#ef8b1e"/>
                </g>
              </g>
            </g>
            <g id="Group_1049" data-name="Group 1049" transform="translate(16.9 21.204)" opacity="0.23" style="mix-blend-mode: multiply;isolation: isolate">
              <g id="Group_1048" data-name="Group 1048">
                <g id="Group_1047" data-name="Group 1047" clip-path="url(#clip-path-12)">
                  <path id="Path_1228" data-name="Path 1228" d="M79.3,292.232c-.386.425-2.436,1.421-.406,2.233s13.195,6.9,16.037,6.09S81.333,290,79.3,292.232" transform="translate(-78.013 -291.901)" fill="#ef8b1e"/>
                </g>
              </g>
            </g>
            <g id="Group_1052" data-name="Group 1052" transform="translate(78.248 20.304)" opacity="0.23" style="mix-blend-mode: multiply;isolation: isolate">
              <g id="Group_1051" data-name="Group 1051">
                <g id="Group_1050" data-name="Group 1050" clip-path="url(#clip-path-13)">
                  <path id="Path_1229" data-name="Path 1229" d="M221.293,298.308a94.685,94.685,0,0,0,13.022-3.828c3.857-1.624,4.669-2.842,5.684-2.842s.812-2.03-2.03-1.827-14.616,5.278-14.616,5.278l-2.06,3.514" transform="translate(-221.293 -289.797)" fill="#ef8b1e"/>
                </g>
              </g>
            </g>
            <g id="Group_1055" data-name="Group 1055" transform="translate(45.189 15.851)" opacity="0.23" style="mix-blend-mode: multiply;isolation: isolate">
              <g id="Group_1054" data-name="Group 1054" transform="translate(0)">
                <g id="Group_1053" data-name="Group 1053" clip-path="url(#clip-path-14)">
                  <path id="Path_1230" data-name="Path 1230" d="M174.329,287.316s-9.338,2.03-10.759,1.827,2.842-8.932,12.789-9.744c0,0-9.744-.2-16.24,7.1s-11.977-1.827-16.037-3.857c0,0,6.524,8.227,6.815,9.29,0,0,10.1-1.3,13.012-.829,0,0,7.376.064,10.928-3.895Z" transform="translate(-144.082 -279.399)" fill="#ef8b1e"/>
                </g>
              </g>
            </g>
            <path id="Path_1231" data-name="Path 1231" d="M133.377,306.688c2.957,1.328,6.224,1.322,9.394,1.044,3.559-.312,7.1-.75,10.669-.917a85.82,85.82,0,0,1,11.155.158,21.651,21.651,0,0,1,3.327.45c.968.235,1.927.509,2.883.789,1.989.582,4.009,1.154,5.943,1.9.183.071.262-.223.081-.293-1.657-.642-3.382-1.138-5.083-1.649a30.209,30.209,0,0,0-5.16-1.309,99.93,99.93,0,0,0-21.936.376c-3.7.4-7.625.754-11.12-.815-.177-.08-.332.183-.154.263" transform="translate(-92.727 -278.993)" fill="#e27f1b"/>
            <path id="Path_1232" data-name="Path 1232" d="M126.811,315.706a55.577,55.577,0,0,0,17.148,6.516c.191.038.273-.255.081-.294a55.324,55.324,0,0,1-17.075-6.485.152.152,0,0,0-.154.263" transform="translate(-88.975 -284.146)" fill="#e27f1b"/>
            <path id="Path_1233" data-name="Path 1233" d="M89.615,299.972c-3.111-.773-6.424-1.507-9.543-.369-.183.067-.1.361.081.294,3.071-1.12,6.32-.392,9.382.369.19.047.271-.247.081-.294" transform="translate(-62.231 -274.765)" fill="#e27f1b"/>
            <g id="Group_1058" data-name="Group 1058" transform="translate(48.252 23.249)" opacity="0.49" style="mix-blend-mode: multiply;isolation: isolate">
              <g id="Group_1057" data-name="Group 1057">
                <g id="Group_1056" data-name="Group 1056" clip-path="url(#clip-path-15)">
                  <path id="Path_1234" data-name="Path 1234" d="M154.631,301.587l-3.395-4.911" transform="translate(-151.236 -296.676)" fill="#ef8b1e"/>
                </g>
              </g>
            </g>
            <path id="Path_1235" data-name="Path 1235" d="M209.884,278.807a16.873,16.873,0,0,0-4.1.793,20.831,20.831,0,0,0-3.885,1.574c-.172.094-.019.357.154.263a20.415,20.415,0,0,1,3.812-1.544,16.535,16.535,0,0,1,4.022-.782c.2-.009.2-.313,0-.3" transform="translate(-131.91 -263.209)" fill="#e27f1b"/>
            <path id="Path_1236" data-name="Path 1236" d="M125.395,281.271a8.388,8.388,0,0,1,5.7,2.559c.136.141.351-.074.215-.215a8.7,8.7,0,0,0-5.919-2.648c-.2-.007-.2.3,0,.3" transform="translate(-88.123 -264.444)" fill="#e27f1b"/>
            <path id="Path_1237" data-name="Path 1237" d="M201.12,300.724a18.348,18.348,0,0,1-8.163,2.38.152.152,0,0,0,0,.3,18.706,18.706,0,0,0,8.317-2.421c.174-.089.021-.352-.154-.263" transform="translate(-126.757 -275.731)" fill="#e27f1b"/>
          </g>
        </g>
        <g id="Group_1062" data-name="Group 1062">
          <g id="Group_1061" data-name="Group 1061" clip-path="url(#clip-path-5)">
            <path id="Path_1239" data-name="Path 1239" d="M77.727,157.183c.019.405-.862,3.292-1.728,10.851s-5.258,17.926-5.2,19.143-2.735,2.363-4.931,7.546-6.9,8.858-8.071,9.929a14.567,14.567,0,0,0-5.1-.371c-2.626.326-5.1-.371-5.541-1.163,0,0-1.169,1.071-.108,2.037s3.457.042,4.122,1.23a1.961,1.961,0,0,1-2.319,2.547,3.41,3.41,0,0,1-2.132-2.136c-.231-.6.669-3.079-1.185-3.6a19.2,19.2,0,0,0-.312,4.181s-2.566-2.725-3.929-1.442a18.679,18.679,0,0,1,2.769,2.716s-2.075-.919-2.627.326a13.968,13.968,0,0,0,2.7,1.3,2.733,2.733,0,0,1,1.872.928s-2.25-.3-2.4.925a12.2,12.2,0,0,1,3.263.254c1.033.358,4.9.584,6.286-.294s20.4-11.319,24.621-21.067c0,0,5.084-17.308,5.1-21.373" transform="translate(-23.613 -89.883)" fill="#f4a082"/>
          </g>
        </g>
        <g id="Group_1067" data-name="Group 1067" transform="translate(17.68 67.3)">
          <g id="Group_1066" data-name="Group 1066" clip-path="url(#clip-path-17)">
            <g id="Group_1065" data-name="Group 1065" transform="translate(32.643 19.113)" opacity="0.21" style="mix-blend-mode: multiply;isolation: isolate">
              <g id="Group_1064" data-name="Group 1064">
                <g id="Group_1063" data-name="Group 1063" clip-path="url(#clip-path-18)">
                  <path id="Path_1240" data-name="Path 1240" d="M117.532,202.965s4.262,8.729,9.744,12.18-2.639-18.473-9.744-12.18" transform="translate(-117.532 -201.822)" fill="#d18161"/>
                </g>
              </g>
            </g>
          </g>
        </g>
        <g id="Group_1069" data-name="Group 1069">
          <g id="Group_1068" data-name="Group 1068" clip-path="url(#clip-path-5)">
            <path id="Path_1242" data-name="Path 1242" d="M213.429,158.975c-.022.405.5,1.6,1.309,9.17s5.127,17.964,5.061,19.181,2.717,2.383,4.876,7.582,6.837,8.908,8,9.987a14.563,14.563,0,0,1,5.1-.334c2.624.345,5.1-.334,5.55-1.123,0,0,1.162,1.079.093,2.038s-3.457.016-4.131,1.2a1.961,1.961,0,0,0,2.3,2.564,3.414,3.414,0,0,0,2.148-2.12c.235-.6-.647-3.085,1.211-3.594a19.221,19.221,0,0,1,.282,4.183s2.586-2.706,3.939-1.413a18.673,18.673,0,0,0-2.789,2.7s2.082-.9,2.624.345a13.956,13.956,0,0,1-2.712,1.276,2.734,2.734,0,0,0-1.879.915s2.252-.285,2.389.942a12.191,12.191,0,0,0-3.265.23c-1.035.351-4.909.548-6.284-.34s-20.319-11.467-24.466-21.246c0,0-4.957-17.345-4.941-21.41" transform="translate(-118.852 -90.907)" fill="#f4a082"/>
          </g>
        </g>
        <g id="Group_1074" data-name="Group 1074" transform="translate(88.991 68.068)">
          <g id="Group_1073" data-name="Group 1073" clip-path="url(#clip-path-20)">
            <g id="Group_1072" data-name="Group 1072" transform="translate(4.795 25.984)" opacity="0.21" style="mix-blend-mode: multiply;isolation: isolate">
              <g id="Group_1071" data-name="Group 1071">
                <g id="Group_1070" data-name="Group 1070" clip-path="url(#clip-path-21)">
                  <path id="Path_1243" data-name="Path 1243" d="M219.222,229.405s3.857-6.5,7.308-7.308-9.135-8.12-7.308,7.308" transform="translate(-219.04 -219.661)" fill="#d18161"/>
                </g>
              </g>
            </g>
          </g>
        </g>
        <g id="Group_1076" data-name="Group 1076">
          <g id="Group_1075" data-name="Group 1075" clip-path="url(#clip-path-5)">
            <path id="Path_1245" data-name="Path 1245" d="M134.355,186.386,130.5,158.778l-4.829-11.389c.012-.007-.943-2.885,9.9-8.1,10.965-5.27,30.247,1.015,30.954,7.957.779,7.65-4.767,10.109-4.767,10.109L157.5,186.386s-9.947,5.075-23.142,0" transform="translate(-71.852 -78.531)" fill="#f4a082"/>
          </g>
        </g>
        <g id="Group_1081" data-name="Group 1081" transform="translate(53.8 58.8)">
          <g id="Group_1080" data-name="Group 1080" clip-path="url(#clip-path-23)">
            <g id="Group_1079" data-name="Group 1079" transform="translate(6.267 34.477)" opacity="0.21" style="mix-blend-mode: multiply;isolation: isolate">
              <g id="Group_1078" data-name="Group 1078">
                <g id="Group_1077" data-name="Group 1077" clip-path="url(#clip-path-24)">
                  <path id="Path_1246" data-name="Path 1246" d="M140.289,224.312c-.057.45,18.716,12.979,27.73,6.083s-25.9-20.7-27.73-6.083" transform="translate(-140.289 -217.853)" fill="#d18161"/>
                </g>
              </g>
            </g>
          </g>
        </g>
        <g id="Group_1083" data-name="Group 1083">
          <g id="Group_1082" data-name="Group 1082" clip-path="url(#clip-path-5)">
            <path id="Path_1248" data-name="Path 1248" d="M151.5,119.375c-.337,1.013,5.719-6.277,5.147-16.82H163.5s.008,13.123,6.943,17.219c0,0-10.914,10.128-18.942-.4" transform="translate(-86.626 -58.644)" fill="#f4a082"/>
          </g>
        </g>
        <g id="Group_1088" data-name="Group 1088" transform="translate(64.862 43.911)">
          <g id="Group_1087" data-name="Group 1087" clip-path="url(#clip-path-26)">
            <g id="Group_1086" data-name="Group 1086" transform="translate(2.31 2.436)" opacity="0.34" style="mix-blend-mode: multiply;isolation: isolate">
              <g id="Group_1085" data-name="Group 1085">
                <g id="Group_1084" data-name="Group 1084" clip-path="url(#clip-path-27)">
                  <path id="Path_1249" data-name="Path 1249" d="M169.266,113.218c0,2.747-2.772,4.974-6.192,4.974s-6.191-2.227-6.191-4.974,2.772-4.974,6.191-4.974,6.192,2.227,6.192,4.974" transform="translate(-156.883 -108.244)" fill="#d18161"/>
                </g>
              </g>
            </g>
          </g>
        </g>
        <g id="Group_1090" data-name="Group 1090">
          <g id="Group_1089" data-name="Group 1089" clip-path="url(#clip-path-5)">
            <path id="Path_1251" data-name="Path 1251" d="M101.955,296.238s-.812-2.233-1.624-4.669-4.263-2.639-6.9-1.218-8.12-1.827-10.15-2.03-4.872,0-4.263,1.624c.713,1.9,3.248.2,4.263,1.421s12.789,8.932,16.24,8.932c0,0,2.436-.609,2.436-4.06" transform="translate(-45.136 -164.835)" fill="#f4a082"/>
            <path id="Path_1252" data-name="Path 1252" d="M212.944,291.641s1.023-2.144,2.066-4.491,4.5-2.216,6.987-.548,8.258-1.036,10.3-1.043,4.849.469,4.087,2.027c-.893,1.823-3.253-.111-4.38,1s-13.59,7.659-17.025,7.326c0,0-2.366-.84-2.034-4.276" transform="translate(-121.75 -163.182)" fill="#f4a082"/>
            <path id="Path_1253" data-name="Path 1253" d="M122.088,155.238c.245.013,33.978,12.43,40.351,6,0,0,1.275,10.306,2.719,14.276,1.624,4.466,3.248,9.541,3.248,9.744,0,0-2.233-.406-9.135,6.5-9.33,9.33-29.554.86-41.877-15.506,0,0,1.412-21.189,4.694-21.01" transform="translate(-67.13 -88.769)" fill="#22c66c"/>
          </g>
        </g>
        <g id="Group_1092" data-name="Group 1092" transform="translate(50.264 66.467)">
          <g id="Group_1091" data-name="Group 1091" clip-path="url(#clip-path-29)">
            <path id="Path_1254" data-name="Path 1254" d="M111.846,176.409c3.9-1.9,9.045,1.076,12.976-.762a5.849,5.849,0,0,1,1.335-.56,3.994,3.994,0,0,1,1.317.042l12.688,1.83a24.721,24.721,0,0,0,3.421.331,16.366,16.366,0,0,1,4.491.159c.682.2,1.3.542,1.973.771a12.474,12.474,0,0,0,5.558.141l7.581-.955c.721-.091,1.731.017,1.785.684.06.717-1.037.911-1.818.909-2.333-.006-4.6.649-6.924.881a37.644,37.644,0,0,1-5.031.057q-12.094-.413-24.174-1.131a46.474,46.474,0,0,1-4.645-.436,4.34,4.34,0,0,0-1.643-.072c-.447.1-.837.355-1.275.484-1.7.5-3.407-.936-5.184-.829a16.773,16.773,0,0,1-2.319.331c-.782-.064-1.554-.9-1.073-1.472" transform="translate(-113.586 -166.564)" fill="#def0e7"/>
            <path id="Path_1255" data-name="Path 1255" d="M107.952,191.85c.176-.869,1.43-1.175,2.346-.909s1.661.89,2.553,1.219c2.741,1.009,5.725-1,8.674-.866,1.994.089,3.888,1.161,5.87.936.584-.066,1.149-.245,1.733-.315a11.151,11.151,0,0,1,3.677.459,61.793,61.793,0,0,0,12.24,1.01l7.532.12a25.657,25.657,0,0,0,6.751-.489,10.97,10.97,0,0,1,2.553-.53,2.255,2.255,0,0,1,2.146,1.117l-7.571.995c-1.228.161-2.459.323-3.7.362-1.889.059-3.774-.167-5.663-.247-5.86-.247-11.776.917-17.57.073a22.29,22.29,0,0,0-4.586-.486c-1.326.083-2.619.506-3.947.466a13.867,13.867,0,0,1-2.9-.554,30.454,30.454,0,0,0-10.32-.74l-1.258-1.839,1.527-.064" transform="translate(-111.169 -175.6)" fill="#def0e7"/>
            <path id="Path_1256" data-name="Path 1256" d="M108.943,207.57c1.784-1.078,4.147-.816,6.186-.236s4.039,1.445,6.173,1.458c2,.012,3.923-.731,5.92-.825,3.174-.15,6.294,1.344,9.438.922,1.328-.178,2.59-.693,3.928-.786a12.623,12.623,0,0,1,2.958.261l5.88.99a8.078,8.078,0,0,0,1.827.167,8.818,8.818,0,0,0,2.3-.584,42.513,42.513,0,0,1,5.774-1.533,5.2,5.2,0,0,1,3.178.1,6.851,6.851,0,0,0,1.094.547,5.142,5.142,0,0,0,2.368-.371c.792-.17,1.9.155,1.855.9-2.238.736-4.7.364-7.073.469a67.322,67.322,0,0,0-7.457,1.157,35.933,35.933,0,0,1-11.757-.106,29.4,29.4,0,0,0-3.994-.592,30.968,30.968,0,0,0-4.772.438,64.44,64.44,0,0,1-11.963-.069l-6.553-.445a32.409,32.409,0,0,1-5.037-.608,1.483,1.483,0,0,1-.926-.475c-.194-.282-.031-.763.331-.76" transform="translate(-112.139 -184.739)" fill="#def0e7"/>
            <path id="Path_1257" data-name="Path 1257" d="M125.263,224.919a7.57,7.57,0,0,1,4.915.042,31.157,31.157,0,0,0,4.816,1.3c4.727.544,9.643-2.735,14.039-1.045a6.11,6.11,0,0,0,2.353.712,8.216,8.216,0,0,0,1.8-.487c1.718-.47,3.54.164,5.2.788a3.152,3.152,0,0,0,1.927.285,11.761,11.761,0,0,0,1.285-.671c1.01-.429,2.175,0,3.275.148a18.2,18.2,0,0,0,4.907-.4,6.984,6.984,0,0,1,4.769.656,6.866,6.866,0,0,1-3.544.963c-4.15.262-8.407-.37-12.428.611a7.369,7.369,0,0,1-1.946.334,7.631,7.631,0,0,1-2.09-.525,26.8,26.8,0,0,0-8.151-.875,32.939,32.939,0,0,0-3.4.1c-2.615.259-5.162,1.145-7.79,1.052-3.174-.112-6.149-1.643-9.325-1.674a3.773,3.773,0,0,1-1.36-.149c-.422-.169-.761-.608-.61-1.008s.925-.455,1.022-.041" transform="translate(-121.096 -194.857)" fill="#def0e7"/>
            <path id="Path_1258" data-name="Path 1258" d="M112.506,164.683c.823-1.4,2.781-1.925,4.507-1.784a39.8,39.8,0,0,1,5.037,1.156,15.22,15.22,0,0,0,5.343.182,10.287,10.287,0,0,1,2.846-.232,21.64,21.64,0,0,1,2.6.8c3.124.84,6.3-.98,9.522-1.389a21.7,21.7,0,0,1,6.489.477c5.234.931,10.58,1.943,15.855,1.234-.03,1.186-1.715,1.594-3,1.635a120.3,120.3,0,0,1-15.265-.5,51,51,0,0,0-7.643-.432c-1.788.1-3.566.423-5.356.358-3.014-.11-5.894-1.319-8.91-1.365a40.745,40.745,0,0,0-4.63.415,27.145,27.145,0,0,1-6.324-.114,1.878,1.878,0,0,1-1.179-.459c-.277-.312-.17-.906.263-.965" transform="translate(-114.45 -159.605)" fill="#def0e7"/>
            <path id="Path_1259" data-name="Path 1259" d="M152.665,239.28a96.127,96.127,0,0,0,14.285-.365,22.048,22.048,0,0,1,3.172-.279,19.214,19.214,0,0,1,2.787.338q5.121.859,10.31,1.3c-2.98,1.323-6.468,1.177-9.745.755s-6.578-1.093-9.863-.722a39.164,39.164,0,0,1-5.665.709,8.573,8.573,0,0,1-4.125-1.214" transform="translate(-137.563 -202.926)" fill="#def0e7"/>
          </g>
        </g>
        <g id="Group_1094" data-name="Group 1094">
          <g id="Group_1093" data-name="Group 1093" clip-path="url(#clip-path-5)">
            <path id="Path_1261" data-name="Path 1261" d="M167.1,66.937c0,8.394-9.391,15.2-13.345,15.2s-13.345-6.8-13.345-15.2,5.728-18.906,13.1-18.906S167.1,58.543,167.1,66.937" transform="translate(-80.293 -27.466)" fill="#f4a082"/>
          </g>
        </g>
        <g id="Group_1099" data-name="Group 1099" transform="translate(60.12 20.566)">
          <g id="Group_1098" data-name="Group 1098" clip-path="url(#clip-path-31)">
            <g id="Group_1097" data-name="Group 1097" transform="translate(2.871 2.548)" opacity="0.18" style="mix-blend-mode: multiply;isolation: isolate">
              <g id="Group_1096" data-name="Group 1096">
                <g id="Group_1095" data-name="Group 1095" clip-path="url(#clip-path-32)">
                  <path id="Path_1262" data-name="Path 1262" d="M157.253,55.921s4.8,10.12,12.489,13.8h0l-9.551-14.068-5.712-1.224s-8.465,12.672-7.24,16.5h0s7.014-13.586,11.505-14.942-2.432-2-2.432-2" transform="translate(-147.118 -53.983)" fill="#a05940"/>
                </g>
              </g>
            </g>
          </g>
        </g>
        <g id="Group_1101" data-name="Group 1101">
          <g id="Group_1100" data-name="Group 1100" clip-path="url(#clip-path-5)">
            <path id="Path_1264" data-name="Path 1264" d="M143.272,49.531s-6.9,4.466-10.15,14.616c0,0-1.827,4.466-.609,6.9s5.887,5.684,4.872,8.729a11.613,11.613,0,0,1-4.466,8.932s4.466-1.827,8.323,5.278c0,0,8.12-4.263,14.007,3.248,0,0,4.263-4.872,8.526,1.421,0,0,3.857-2.639,5.887,2.436,0,0,3.045-2.436,2.03,4.263,0,0,3.451,2.842-.812,5.481,0,0,.609,1.421-1.827,2.842l-1.218-3.451a2.936,2.936,0,0,1,2.03-.609s-1.218-2.842.812-4.263a4.416,4.416,0,0,1-3.248-4.263s-3.654,2.436-6.09-1.827c0,0-5.887,4.872-10.556-1.624,0,0-9.338,6.293-13.6-2.03,0,0-11.571,5.278-12.18-5.075,0,0-6.09-8.323,1.624-13.195,0,0-7.084-9.37-2.842-17.661,4.466-8.729,8.729-21.721,18.473-16.24,0,0,17.052-7.511,14.616,20.5,0,0-8.526-6.5-13.6-14.413" transform="translate(-70.01 -24.094)" fill="#1d3542"/>
          </g>
        </g>
        <g id="Group_1106" data-name="Group 1106" transform="translate(52.42 18.041)">
          <g id="Group_1105" data-name="Group 1105" clip-path="url(#clip-path-34)">
            <g id="Group_1104" data-name="Group 1104" transform="translate(10.063 22.213)" opacity="0.22" style="mix-blend-mode: multiply;isolation: isolate">
              <g id="Group_1103" data-name="Group 1103">
                <g id="Group_1102" data-name="Group 1102" clip-path="url(#clip-path-8)">
                  <path id="Path_1265" data-name="Path 1265" d="M145.953,100.717s3.856,9.744,10.961,9.338,12.105-9.472,12.549-14.074-24.322-.339-23.51,4.736" transform="translate(-145.933 -94.015)" fill="#1d3542"/>
                </g>
              </g>
            </g>
          </g>
        </g>
        <g id="Group_1108" data-name="Group 1108">
          <g id="Group_1107" data-name="Group 1107" clip-path="url(#clip-path-5)">
            <path id="Path_1267" data-name="Path 1267" d="M142.55,91.824c.387,1.577-.148,3.065-1.2,3.322s-2.21-.814-2.6-2.391.148-3.065,1.2-3.322,2.21.814,2.6,2.391" transform="translate(-79.274 -51.119)" fill="#f4a082"/>
            <path id="Path_1268" data-name="Path 1268" d="M199.477,88.505c-.387,1.577.148,3.065,1.2,3.322s2.21-.814,2.6-2.391-.148-3.065-1.2-3.322-2.21.814-2.6,2.391" transform="translate(-113.996 -49.221)" fill="#f4a082"/>
            <path id="Path_1269" data-name="Path 1269" d="M105.051,195.546c-4.263-1.421-6.09,3.654-6.09,3.654-3.045-1.218-3.857,2.639-3.857,2.639-2.639,2.233,0,5.278,0,5.278a4.784,4.784,0,0,0,.092.943l2.287-1.189a6.706,6.706,0,0,0-.958.043c1.015-2.03-.609-4.263-.609-4.263a4.053,4.053,0,0,0,4.06-2.436c10.962,4.06,13.8-8.526,13.8-8.526s-4.466,5.278-8.729,3.857" transform="translate(-53.713 -109.614)" fill="#1d3542"/>
            <path id="Path_1270" data-name="Path 1270" d="M153.226,93.764a8.182,8.182,0,0,0,5.21-.36,4.506,4.506,0,0,1-5.21.36" transform="translate(-87.62 -53.412)" fill="#2e2430"/>
            <path id="Path_1271" data-name="Path 1271" d="M167.163,115.218a4.224,4.224,0,0,0,3.74-.266.176.176,0,0,0-.177-.3,3.886,3.886,0,0,1-3.47.231c-.209-.085-.3.255-.093.339" transform="translate(-95.522 -65.545)" fill="#a34f31"/>
            <path id="Path_1272" data-name="Path 1272" d="M167.428,107.7c.337.01.638.029.937.031s.586,0,.875-.024.576-.053.87-.1.592-.1.924-.158a2.034,2.034,0,0,1-.781.615,2.769,2.769,0,0,1-1.967.135,2.042,2.042,0,0,1-.858-.5" transform="translate(-95.741 -61.444)" fill="#a34f31"/>
            <path id="Path_1273" data-name="Path 1273" d="M178.85,93.843a8.182,8.182,0,0,0,5.21-.36,4.506,4.506,0,0,1-5.21.36" transform="translate(-102.273 -53.457)" fill="#2e2430"/>
            <path id="Path_1274" data-name="Path 1274" d="M152.53,86.617a4.948,4.948,0,0,1,4.745-1.651c.307.06.439-.411.13-.472a5.45,5.45,0,0,0-5.221,1.776c-.206.237.139.584.346.346" transform="translate(-86.988 -48.256)" fill="#1d3542"/>
            <path id="Path_1275" data-name="Path 1275" d="M184.159,85.788a5.446,5.446,0,0,0-5.221-1.776c-.309.06-.178.532.13.471a4.948,4.948,0,0,1,4.745,1.651c.207.238.551-.109.346-.346" transform="translate(-102.222 -47.979)" fill="#1d3542"/>
            <path id="Path_1276" data-name="Path 1276" d="M170.972,57.8a15.355,15.355,0,0,0,1.392,3.761,17.991,17.991,0,0,0,5.237,6.181,17.784,17.784,0,0,0,1.707,1.147c.585.36,1.214.642,1.822.968-.621-.295-1.267-.547-1.872-.879a18.541,18.541,0,0,1-7.429-7.125,15.958,15.958,0,0,1-1.654-3.894Z" transform="translate(-97.312 -33.053)" fill="#1d3542"/>
            <path id="Path_1277" data-name="Path 1277" d="M171.016,55.328a9.578,9.578,0,0,0-.617,2.12,9.391,9.391,0,0,0-.117,2.241,7.478,7.478,0,0,0,.473,2.208,8.007,8.007,0,0,0,1.1,2,8.123,8.123,0,0,1-1.291-1.924,7.786,7.786,0,0,1-.689-2.241,9.9,9.9,0,0,1-.083-2.364,10.2,10.2,0,0,1,.471-2.356Z" transform="translate(-97.075 -31.46)" fill="#1d3542"/>
            <path id="Path_1278" data-name="Path 1278" d="M169.616,56.692a8.49,8.49,0,0,0-1.051.823,10.028,10.028,0,0,0-.952.982,9.308,9.308,0,0,0-.822,1.108,9.526,9.526,0,0,0-.662,1.225,9.946,9.946,0,0,1,1.156-2.573,10.606,10.606,0,0,1,.839-1.162,9.144,9.144,0,0,1,1.014-1.059Z" transform="translate(-94.998 -32.043)" fill="#1d3542"/>
          </g>
        </g>
      </g>
    </g>
  </g>
</svg>
