<svg xmlns="http://www.w3.org/2000/svg" xmlns:xlink="http://www.w3.org/1999/xlink" width="338.516" height="290.104" viewBox="0 0 338.516 290.104">
  <defs>
    <clipPath id="clip-path">
      <rect id="Rectangle_963" data-name="Rectangle 963" width="338.516" height="290.104" fill="none"/>
    </clipPath>
  </defs>
  <g id="Group_4071" data-name="Group 4071" clip-path="url(#clip-path)">
    <path id="Path_1288" data-name="Path 1288" d="M295.426,273.462a108.158,108.158,0,0,1-13.877,12.054H75.906S53.79,275.2,30.631,237.668C22.773,224.937,19.5,209.179,20,193.495c.963-30.554,16.265-60.828,40-67.913,35.919-10.716,36.75-49.075,83.105-60.607s73.749,14.942,73.749,14.942c45.29,38.822,95.394,57.52,106.779,113.145.2.978.382,1.955.537,2.918,5.88,35.316-14.163,62.739-28.738,77.483" transform="translate(-5.286 -16.448)" fill="#f0fcf5"/>
    <path id="Path_1289" data-name="Path 1289" d="M295.426,324.453a178.59,178.59,0,0,1-24.056,12.054H75.906S53.79,326.188,30.631,288.659C22.773,275.929,19.5,260.171,20,244.486c21.116,17.066,67.23,42.894,152.584,42.446,82.929-.434,129.329-23.762,151.585-39.961,5.88,35.316-14.163,62.739-28.738,77.483" transform="translate(-5.286 -64.791)" fill="#dcffec"/>
    <path id="Path_1290" data-name="Path 1290" d="M81.988,349.308s-37.3.58-44.468,5.64-6.312,12.679,56.2,18.194,42.261,9.188,89.924,8.829,92-11.483,119.257-16.185,20.917-15.927-20.024-18.563-164.305,6.8-200.884,2.084" transform="translate(-9.138 -91.892)" fill="#d6a499"/>
    <path id="Path_1291" data-name="Path 1291" d="M35.868,225.421A13.064,13.064,0,0,1,24.88,208.345c3.04-9.189,10.381-20.159,27.631-26.271,22.209-7.87,47.191-.39,54.588,20.486,5.141,14.51-2.52,27.224-14.584,38.331-3.07,1.863-3.029,6.37-2.053,10.767a13,13,0,0,1-24.976,7.016l-1.376-3.885c-2.309-6.514-3.9-11.949,1.24-18.6,6.986-8.976,15.268-12.41,11.544-22.922A12.514,12.514,0,0,0,60.6,205.372,17.3,17.3,0,0,0,49.673,216.61,13.061,13.061,0,0,1,35.868,225.421Zm72.1,60.49a17.986,17.986,0,1,1-23.06-10.994,17.933,17.933,0,0,1,23.06,10.994" transform="translate(-6.417 -47.44)" fill="#fff"/>
    <path id="Path_1292" data-name="Path 1292" d="M321.9,210.333a12.218,12.218,0,0,1,.835-18.972c7.284-5.374,18.815-9.783,35.285-5.132,21.207,5.989,36.239,25.194,30.609,45.128-3.912,13.855-16.629,19.423-31.838,21.386-3.351-.236-5.754,3.227-7.383,7.112a12.158,12.158,0,0,1-22.858-8.136l1.047-3.71c1.757-6.22,3.476-11.23,11-13.533,10.182-3.078,18.36-1.227,21.195-11.264a11.7,11.7,0,0,0-8.178-14.826,16.177,16.177,0,0,0-14.412,2.678A12.214,12.214,0,0,1,321.9,210.333ZM344.27,295.46A16.821,16.821,0,1,1,332.6,274.611,16.772,16.772,0,0,1,344.27,295.46" transform="translate(-82.486 -48.833)" fill="#fff"/>
    <path id="Path_1293" data-name="Path 1293" d="M32.1,315.778s-3.687-12.72-11.429-14.379-5.3-3.687-6.8-7.927-3.524-5.346-6.289-5.9S5.37,279.831,1.5,278.91s1.106,9.217,0,14.931,3.134,4.793,5.346,11.429,0,10.876,2.766,16.038,6.465.252,7.742,7.373S28.044,339.927,35.418,339s8.249-2.2,8.249-2.2Z" transform="translate(0 -73.898)" fill="#058f46"/>
    <path id="Path_1294" data-name="Path 1294" d="M39.068,327.941s-13.856-11.247-13.547-20.2,1.455-10.713-2.19-16.093-.254-12.327,2.045-17.977S20,263.6,24.842,258s16.257,6.342,17.6,17.374,3.823,14.21,10.366,19.063,7.742,13.029,7.21,17.7,7.279,6.691,5.2,18.775c0,0-7.065,3.9-26.148-2.974" transform="translate(-5.758 -67.995)" fill="#c4e8d3"/>
    <path id="Path_1295" data-name="Path 1295" d="M58.109,338.654s-4-10.088,0-16.62,3.513-6.636,3.7-11.8,2.95-7.559,5.53-8.3,4.24-2.749,5.531-6.259,5.346-4.283,7.742-1.039-1.291,12.46,0,16.7a18.125,18.125,0,0,1-.922,12.535c-1.659,3.5,1.475,6.268,0,11.429s-3.594,8.505-18.848,8.308Z" transform="translate(-14.929 -77.537)" fill="#058f46"/>
    <path id="Path_1296" data-name="Path 1296" d="M88.7,372.241s1.234-3.624,7.309-5.087,11.538,3.948,12.081,6.416c0,0-13.79,2.847-19.39-1.329" transform="translate(-23.506 -97.234)" fill="#d6a499"/>
    <path id="Path_1297" data-name="Path 1297" d="M377.956,330.893a55.948,55.948,0,0,1,16.769-38.367c17.414-17.089,36.612-14.236,36.612-14.236s.779,20.209-13.36,36-29.195,20.391-29.195,20.391Z" transform="translate(-100.161 -73.702)" fill="#c4e8d3"/>
    <path id="Path_1298" data-name="Path 1298" d="M390.768,340.84c4.165,1.359,9.173.658,13.461-.24,7.043-1.475,14.731-6.447,22.824-13.888,13.092-12.038,13.611-25.364,13.611-25.364s-21.116.509-34.758,12.8a105.176,105.176,0,0,0-20.458,24.827Z" transform="translate(-102.147 -79.86)" fill="#058f46"/>
    <path id="Path_1299" data-name="Path 1299" d="M170.286,345.692s1.89-8.651,12.18-11.381,12.39,4.2,21.42,1.26,8.19-7,19.11-6.128,12.39,7.6,19.53,6.128,12.805,3.432,13.017,7.49c0,0-48.088,3.512-85.257,2.631" transform="translate(-45.127 -87.273)" fill="#058f46"/>
    <path id="Path_1300" data-name="Path 1300" d="M350.183,88.5a7.755,7.755,0,1,1-7.755-7.755,7.755,7.755,0,0,1,7.755,7.755" transform="translate(-88.691 -21.399)" fill="#dcffec"/>
    <path id="Path_1301" data-name="Path 1301" d="M413.85,143.1a4.283,4.283,0,1,1-4.283-4.283,4.283,4.283,0,0,1,4.283,4.283" transform="translate(-107.404 -36.788)" fill="#dcffec"/>
    <path id="Path_1302" data-name="Path 1302" d="M123.754,88.5A7.755,7.755,0,1,1,116,80.748a7.755,7.755,0,0,1,7.755,7.755" transform="translate(-28.686 -21.399)" fill="#dcffec"/>
    <path id="Path_1303" data-name="Path 1303" d="M55.678,141.017a5.2,5.2,0,1,1-5.2-5.2,5.2,5.2,0,0,1,5.2,5.2" transform="translate(-12.001 -35.994)" fill="#dcffec"/>
    <path id="Path_1304" data-name="Path 1304" d="M251.149,360.29c0,3.055-13.96,5.532-31.182,5.532s-31.181-2.477-31.181-5.532,13.96-5.532,31.181-5.532,31.182,2.477,31.182,5.532" transform="translate(-50.03 -94.014)" fill="#c4928a"/>
    <path id="Path_1305" data-name="Path 1305" d="M229.964,186.917a29.554,29.554,0,0,0-.831-6.247,28.886,28.886,0,0,0-20.9-21.182,29.353,29.353,0,0,0-8.166-.919c-.47.015-.926.037-1.389.073A29.009,29.009,0,1,0,222,207.578a28.62,28.62,0,0,0,7.96-20.661M270.146,58.639A53.323,53.323,0,0,0,260.6,29.423a62.52,62.52,0,0,0-17.941-17.074C229.773,4.073,213.53-.417,196.632.031A93.65,93.65,0,0,0,185.343,1a72.454,72.454,0,0,0-21.454,6.519h-.007a61.91,61.91,0,0,0-22.719,19.044,21.074,21.074,0,0,0,33.912,25.026,28.4,28.4,0,0,1,14.406-10.518,29.472,29.472,0,0,1,7.945-1.279c11.4-.309,20.741,8.063,21.065,20.22.456,17.169-12.664,18.985-27.07,28.069-.684.434-1.367.875-2.051,1.338-11.2,7.644-11.466,16.772-11.165,27.915l.169,6.644a20.969,20.969,0,0,0,20.955,20.411c.184,0,.375,0,.566-.007a20.982,20.982,0,0,0,18.83-12.877,20.292,20.292,0,0,0,1.455-5.843c.4-4.189,1.3-8.269,3.087-11.223v-.007a8.578,8.578,0,0,1,5.424-4.263c10.973-5.035,20.712-11.04,27.988-18.448,8.651-8.805,13.825-19.595,13.465-33.082" transform="translate(-36.328 0)" fill="#f09735"/>
    <path id="Path_1306" data-name="Path 1306" d="M194.01,140.863c7.107,4.9,17.816,6.064,24.9.176a20.982,20.982,0,0,1-18.83,12.877c-.191.007-.382.007-.566.007a20.969,20.969,0,0,1-20.955-20.411l-.169-6.644c-.3-11.142-.037-20.271,11.165-27.915.684-.463,1.367-.9,2.051-1.338,14.406-9.084,27.525-10.9,27.07-28.069-.323-12.157-9.665-20.528-21.065-20.22a29.472,29.472,0,0,0-7.945,1.279A28.4,28.4,0,0,0,175.26,61.124a21.071,21.071,0,0,1-37.477-8c6.475,2.352,16.22,4.991,24.732-1.507,22.834-17.43,48.825-24.1,65.2.21s-4.034,45.133-29.924,55.164c-12.731,4.933-7.875,31.053-3.782,33.876" transform="translate(-36.514 -9.534)" fill="#c17121"/>
    <path id="Path_1307" data-name="Path 1307" d="M143.024,47.988s-1.976,12.339,10.705,17.138,21.422-16.281,40.616-18.337,28.021,8.569,30.462,18.337" transform="translate(-37.873 -12.331)" fill="none" stroke="#f09735" stroke-linecap="round" stroke-linejoin="round" stroke-width="2"/>
    <path id="Path_1308" data-name="Path 1308" d="M201.053,141.113S199,154.25,203.281,163.895s20.908,10.338,26.049-.8-1.478-15.835,13.314-23.686,19.762-12.564,22.333-15.52" transform="translate(-53.15 -32.83)" fill="none" stroke="#f09735" stroke-linecap="round" stroke-linejoin="round" stroke-width="2"/>
    <path id="Path_1309" data-name="Path 1309" d="M202.108,7.7s38.631-5.69,62.25,16.281,12.69,52.741,12.69,52.741" transform="translate(-53.56 -1.866)" fill="none" stroke="#f09735" stroke-linecap="round" stroke-linejoin="round" stroke-width="2"/>
    <path id="Path_1310" data-name="Path 1310" d="M233.467,106.295s17.094-7.307,16.452-25.43" transform="translate(-61.871 -21.43)" fill="none" stroke="#f09735" stroke-linecap="round" stroke-linejoin="round" stroke-width="2"/>
    <path id="Path_1311" data-name="Path 1311" d="M234.583,264.747a29.019,29.019,0,1,1-23.321-48.936c.463-.037.919-.059,1.389-.073a29.353,29.353,0,0,1,8.166.919c-9.636,1.492-25.93,6.674-25.254,24.607.97,25.4,30.032,24.137,37.485,6.247,2.808-6.725,5.9-9.459,8.666-9.672a29.555,29.555,0,0,1,.831,6.247,28.62,28.62,0,0,1-7.96,20.661" transform="translate(-48.907 -57.17)" fill="#c17121"/>
    <path id="Path_1312" data-name="Path 1312" d="M238.375,247.144a23.041,23.041,0,1,1-46.082,0c0-12.725,8.411-23.668,21.137-23.668" transform="translate(-50.959 -59.223)" fill="none" stroke="#f09735" stroke-linecap="round" stroke-linejoin="round" stroke-width="2"/>
    <path id="Path_1313" data-name="Path 1313" d="M69.207,89.473a24.888,24.888,0,0,1-11.517-6.11,27.237,27.237,0,1,0-10.38,4.872,32.588,32.588,0,0,0,21.9,1.238" transform="translate(-3.707 -9.145)" fill="#dcffec"/>
    <path id="Path_1314" data-name="Path 1314" d="M39.046,57.251a3.771,3.771,0,0,1-1.751-5.593c1.549-2.324,4.431-4.815,9.7-5.2,6.782-.49,13.161,3.5,13.622,9.879.32,4.431-2.785,7.382-6.992,9.55-1,.284-1.33,1.541-1.4,2.839a3.752,3.752,0,0,1-7.487.04l-.086-1.186c-.143-1.99-.171-3.624,1.769-5.082,2.631-1.963,5.2-2.285,4.966-5.495a3.612,3.612,0,0,0-3.931-3.443,4.99,4.99,0,0,0-3.9,2.292,3.77,3.77,0,0,1-4.516,1.4M54.479,79.6A5.191,5.191,0,1,1,48.9,74.777,5.176,5.176,0,0,1,54.479,79.6" transform="translate(-9.716 -12.302)" fill="#058f46"/>
  </g>
</svg>
