<?xml version="1.0" encoding="utf-8"?>
<!-- Generator: Adobe Illustrator 19.0.0, SVG Export Plug-In . SVG Version: 6.00 Build 0)  -->
<svg version="1.1" id="Layer_1" xmlns="http://www.w3.org/2000/svg" xmlns:xlink="http://www.w3.org/1999/xlink" x="0px" y="0px"
	 viewBox="-50 234.4 510 324.6" style="enable-background:new -50 234.4 510 324.6;" xml:space="preserve">
<style type="text/css">
	.st0{enable-background:new    ;}
	.st1{fill:#058F46;}
	.st2{fill:#666666;}
	.st3{fill:#DCA86E;}
	.st4{fill:url(#SVGID_1_);}
	.st5{fill:#B6BFCC;}
	.st6{fill:url(#SVGID_2_);}
	.st7{fill:#D2DCEB;}
	.st8{fill:#FEC4AD;}
	.st9{fill:url(#SVGID_3_);}
	.st10{fill:url(#SVGID_4_);}
	.st11{fill:#F8D2A1;}
	.st12{fill:none;stroke:#D4DBE2;stroke-width:0.25;stroke-miterlimit:10;}
	.st13{fill:#FFBA01;}
	.st14{fill:none;stroke:#A6AEBA;stroke-width:0.5;stroke-miterlimit:10;}
	.st15{fill:#50CC85;}
	.st16{fill:#77E6A6;}
	.st17{fill:#F3BA7A;}
	.st18{fill:#A6AEBA;}
	.st19{fill:#FFFFFF;}
</style>
<g id="BACKGROUND">
</g>
<g>
	<g class="st0">
		<path class="st1" d="M137.8,271.9c0,2.4-0.4,4.5-1.3,6.3c-0.9,1.8-2.1,3.3-3.8,4.2c-1.6,1-3.5,1.5-5.6,1.5s-3.9-0.5-5.5-1.4
			c-1.6-1-2.9-2.3-3.8-4.1c-0.9-1.8-1.4-3.8-1.4-6.1v-1.4c0-2.4,0.4-4.5,1.3-6.3c0.9-1.8,2.1-3.2,3.8-4.2c1.6-1,3.5-1.5,5.6-1.5
			c2.1,0,3.9,0.5,5.5,1.5s2.9,2.4,3.8,4.2c0.9,1.8,1.4,3.9,1.4,6.3V271.9z M131.8,270.8c0-2.4-0.4-4.3-1.2-5.5s-2-1.9-3.5-1.9
			c-3,0-4.5,2.2-4.7,6.7l0,1.8c0,2.4,0.4,4.2,1.2,5.5s2,1.9,3.5,1.9c1.5,0,2.6-0.6,3.4-1.9c0.8-1.3,1.2-3.1,1.2-5.5V270.8z"/>
		<path class="st1" d="M161.6,271.9c0,2.4-0.4,4.5-1.3,6.3c-0.9,1.8-2.1,3.3-3.8,4.2c-1.6,1-3.5,1.5-5.6,1.5s-3.9-0.5-5.5-1.4
			c-1.6-1-2.9-2.3-3.8-4.1c-0.9-1.8-1.4-3.8-1.4-6.1v-1.4c0-2.4,0.4-4.5,1.3-6.3c0.9-1.8,2.1-3.2,3.8-4.2c1.6-1,3.5-1.5,5.6-1.5
			c2.1,0,3.9,0.5,5.5,1.5s2.9,2.4,3.8,4.2c0.9,1.8,1.4,3.9,1.4,6.3V271.9z M155.6,270.8c0-2.4-0.4-4.3-1.2-5.5s-2-1.9-3.5-1.9
			c-3,0-4.5,2.2-4.7,6.7l0,1.8c0,2.4,0.4,4.2,1.2,5.5s2,1.9,3.5,1.9c1.5,0,2.6-0.6,3.4-1.9c0.8-1.3,1.2-3.1,1.2-5.5V270.8z"/>
		<path class="st1" d="M170.5,275.3v8.3h-5.9v-24.5h9.8c1.9,0,3.5,0.3,5,1c1.4,0.7,2.6,1.7,3.3,2.9c0.8,1.3,1.2,2.7,1.2,4.3
			c0,2.4-0.9,4.3-2.6,5.7c-1.7,1.4-4.1,2.1-7,2.1H170.5z M170.5,270.7h3.9c1.1,0,2-0.3,2.6-0.9c0.6-0.6,0.9-1.4,0.9-2.4
			c0-1.1-0.3-2.1-0.9-2.7c-0.6-0.7-1.5-1-2.5-1h-3.9V270.7z"/>
		<path class="st1" d="M199.6,277.1c0-0.9-0.3-1.5-0.9-2c-0.6-0.5-1.7-1-3.2-1.5s-2.8-1-3.8-1.5c-3.2-1.6-4.8-3.7-4.8-6.4
			c0-1.4,0.4-2.6,1.2-3.6c0.8-1,1.9-1.8,3.4-2.4s3.1-0.9,4.9-0.9c1.8,0,3.3,0.3,4.7,0.9c1.4,0.6,2.5,1.5,3.3,2.7s1.2,2.5,1.2,4h-5.9
			c0-1-0.3-1.8-0.9-2.3c-0.6-0.5-1.4-0.8-2.5-0.8c-1.1,0-1.9,0.2-2.5,0.7c-0.6,0.5-0.9,1.1-0.9,1.8c0,0.6,0.3,1.2,1,1.7
			s1.9,1,3.5,1.6c1.7,0.5,3.1,1.1,4.2,1.8c2.6,1.5,4,3.6,4,6.3c0,2.1-0.8,3.8-2.4,5c-1.6,1.2-3.8,1.8-6.6,1.8c-2,0-3.8-0.4-5.4-1.1
			s-2.8-1.7-3.6-2.9c-0.8-1.2-1.2-2.7-1.2-4.3h5.9c0,1.3,0.3,2.3,1,2.9c0.7,0.6,1.8,0.9,3.3,0.9c1,0,1.7-0.2,2.3-0.6
			S199.6,277.9,199.6,277.1z"/>
		<path class="st1" d="M211.8,278.1c0.9,0,1.6,0.3,2.2,0.8c0.6,0.5,0.9,1.2,0.9,2c0,0.8-0.3,1.5-0.9,2c-0.6,0.5-1.3,0.8-2.2,0.8
			c-0.9,0-1.7-0.3-2.2-0.8c-0.6-0.5-0.9-1.2-0.9-2s0.3-1.5,0.9-2C210.2,278.4,210.9,278.1,211.8,278.1z"/>
		<path class="st1" d="M222.2,278.1c0.9,0,1.6,0.3,2.2,0.8c0.6,0.5,0.9,1.2,0.9,2c0,0.8-0.3,1.5-0.9,2c-0.6,0.5-1.3,0.8-2.2,0.8
			c-0.9,0-1.7-0.3-2.2-0.8c-0.6-0.5-0.9-1.2-0.9-2s0.3-1.5,0.9-2C220.6,278.4,221.3,278.1,222.2,278.1z"/>
		<path class="st1" d="M252.6,274h2.5v4.4h-2.5v5.2h-5.7v-5.2h-9.5l-0.3-3.5l9.8-15.8v-0.1h5.7V274z M242.5,274h4.4v-7.5l-0.4,0.6
			L242.5,274z"/>
		<path class="st1" d="M274.5,273.6c0,3.3-0.7,5.9-2.2,7.6c-1.5,1.8-3.6,2.7-6.3,2.7c-2.7,0-4.8-0.9-6.3-2.7s-2.2-4.3-2.2-7.6v-4.5
			c0-3.3,0.7-5.9,2.2-7.6c1.5-1.8,3.6-2.7,6.3-2.7c2.7,0,4.8,0.9,6.3,2.7c1.5,1.8,2.2,4.4,2.2,7.6V273.6z M268.9,268.4
			c0-1.8-0.2-3.1-0.7-3.9c-0.5-0.9-1.2-1.3-2.2-1.3c-1,0-1.7,0.4-2.1,1.2c-0.4,0.8-0.7,2-0.7,3.7v6.3c0,1.8,0.2,3.2,0.7,4
			c0.5,0.8,1.2,1.3,2.2,1.3c1,0,1.7-0.4,2.1-1.2c0.5-0.8,0.7-2.1,0.7-3.9V268.4z"/>
		<path class="st1" d="M292.4,274h2.5v4.4h-2.5v5.2h-5.7v-5.2h-9.5L277,275l9.8-15.8v-0.1h5.7V274z M282.4,274h4.4v-7.5l-0.4,0.6
			L282.4,274z"/>
	</g>
	<g class="st0">
		<path class="st2" d="M112.7,303.4v5.1H111v-13h4.8c1.4,0,2.5,0.4,3.3,1.1s1.2,1.7,1.2,2.9c0,1.3-0.4,2.2-1.2,2.9
			c-0.8,0.7-1.9,1-3.4,1H112.7z M112.7,302h3.1c0.9,0,1.6-0.2,2.1-0.6c0.5-0.4,0.7-1.1,0.7-1.9c0-0.8-0.2-1.4-0.7-1.9
			c-0.5-0.5-1.2-0.7-2-0.7h-3.2V302z"/>
		<path class="st2" d="M131.4,305.1H126l-1.2,3.4H123l5-13h1.5l5,13h-1.8L131.4,305.1z M126.5,303.7h4.4l-2.2-6.1L126.5,303.7z"/>
		<path class="st2" d="M148.6,306.8c-0.4,0.6-1.1,1.1-1.8,1.4c-0.8,0.3-1.7,0.5-2.7,0.5c-1.1,0-2-0.2-2.8-0.7
			c-0.8-0.5-1.5-1.2-1.9-2.1c-0.4-0.9-0.7-2-0.7-3.2v-1.1c0-2,0.5-3.5,1.4-4.5s2.2-1.6,3.8-1.6c1.4,0,2.4,0.3,3.3,1
			c0.8,0.7,1.3,1.7,1.5,2.9h-1.7c-0.3-1.7-1.3-2.6-3.1-2.6c-1.1,0-2,0.4-2.6,1.2c-0.6,0.8-0.9,2-0.9,3.5v1.1c0,1.5,0.3,2.6,1,3.5
			c0.7,0.9,1.6,1.3,2.7,1.3c0.6,0,1.2-0.1,1.7-0.2c0.5-0.1,0.9-0.4,1.2-0.7v-2.9h-3V302h4.7V306.8z"/>
		<path class="st2" d="M161.8,302.5h-5.6v4.6h6.5v1.4h-8.2v-13h8.2v1.4h-6.4v4.2h5.6V302.5z"/>
		<path class="st2" d="M185.3,308.5h-1.7l-6.5-10v10h-1.7v-13h1.7l6.5,10v-10h1.7V308.5z"/>
		<path class="st2" d="M201.3,302.4c0,1.3-0.2,2.4-0.6,3.3c-0.4,0.9-1,1.7-1.8,2.2c-0.8,0.5-1.7,0.7-2.7,0.7c-1,0-1.9-0.3-2.7-0.8
			s-1.4-1.2-1.8-2.1s-0.7-2-0.7-3.2v-0.9c0-1.2,0.2-2.3,0.7-3.3s1-1.7,1.8-2.2c0.8-0.5,1.7-0.8,2.7-0.8c1,0,2,0.3,2.7,0.8
			s1.4,1.2,1.8,2.2c0.4,1,0.6,2.1,0.6,3.3V302.4z M199.6,301.6c0-1.5-0.3-2.7-0.9-3.5c-0.6-0.8-1.5-1.2-2.6-1.2
			c-1.1,0-1.9,0.4-2.6,1.2c-0.6,0.8-0.9,2-1,3.4v1c0,1.5,0.3,2.7,0.9,3.5c0.6,0.9,1.5,1.3,2.6,1.3c1.1,0,2-0.4,2.6-1.2
			c0.6-0.8,0.9-2,0.9-3.5V301.6z"/>
		<path class="st2" d="M215.6,296.9h-4.2v11.6h-1.7v-11.6h-4.2v-1.4h10V296.9z"/>
		<path class="st2" d="M234.8,302.8h-5.4v5.7h-1.7v-13h8v1.4h-6.3v4.4h5.4V302.8z"/>
		<path class="st2" d="M250.7,302.4c0,1.3-0.2,2.4-0.6,3.3s-1,1.7-1.8,2.2s-1.7,0.7-2.7,0.7c-1,0-1.9-0.3-2.7-0.8s-1.4-1.2-1.8-2.1
			s-0.7-2-0.7-3.2v-0.9c0-1.2,0.2-2.3,0.7-3.3s1-1.7,1.8-2.2s1.7-0.8,2.7-0.8c1,0,2,0.3,2.7,0.8s1.4,1.2,1.8,2.2s0.6,2.1,0.6,3.3
			V302.4z M249,301.6c0-1.5-0.3-2.7-0.9-3.5c-0.6-0.8-1.5-1.2-2.6-1.2c-1.1,0-1.9,0.4-2.6,1.2c-0.6,0.8-0.9,2-1,3.4v1
			c0,1.5,0.3,2.7,0.9,3.5c0.6,0.9,1.5,1.3,2.6,1.3c1.1,0,2-0.4,2.6-1.2c0.6-0.8,0.9-2,0.9-3.5V301.6z"/>
		<path class="st2" d="M265.4,295.5v8.8c0,1.2-0.4,2.2-1.2,3c-0.8,0.8-1.8,1.2-3.1,1.3l-0.5,0c-1.4,0-2.6-0.4-3.4-1.1
			c-0.8-0.8-1.3-1.8-1.3-3.2v-8.8h1.7v8.8c0,0.9,0.3,1.7,0.8,2.2c0.5,0.5,1.3,0.8,2.2,0.8c1,0,1.7-0.3,2.2-0.8
			c0.5-0.5,0.8-1.2,0.8-2.2v-8.8H265.4z"/>
		<path class="st2" d="M281.1,308.5h-1.7l-6.5-10v10h-1.7v-13h1.7l6.5,10v-10h1.7V308.5z"/>
		<path class="st2" d="M287.1,308.5v-13h3.7c1.1,0,2.1,0.3,3,0.7c0.9,0.5,1.5,1.2,2,2.1c0.5,0.9,0.7,2,0.7,3.2v0.8
			c0,1.2-0.2,2.3-0.7,3.2c-0.5,0.9-1.1,1.6-2,2.1c-0.9,0.5-1.9,0.7-3.1,0.8H287.1z M288.8,296.9v10.2h1.8c1.3,0,2.3-0.4,3.1-1.2
			s1.1-2,1.1-3.5v-0.8c0-1.5-0.3-2.6-1-3.4c-0.7-0.8-1.7-1.2-2.9-1.2H288.8z"/>
	</g>
	<g>
		<polygon class="st3" points="378.3,480 411.2,551 414.9,551 386.5,475.4 		"/>
		<polygon class="st3" points="344.4,481.5 311.5,551 307.8,551 336.2,480 		"/>
		
			<linearGradient id="SVGID_1_" gradientUnits="userSpaceOnUse" x1="519.8022" y1="-220.0193" x2="548.6899" y2="-220.0193" gradientTransform="matrix(0.8061 0.5918 0.5918 -0.8061 -56.8813 41.4115)">
			<stop  offset="0" style="stop-color:#343A44"/>
			<stop  offset="0.3009" style="stop-color:#232D3E"/>
			<stop  offset="0.6391" style="stop-color:#182439"/>
			<stop  offset="1" style="stop-color:#142138"/>
		</linearGradient>
		<path class="st4" d="M260.9,535.8l-16.7,14.6l-19.7-13.9c0,0,6.7-2.2,18.2,0.8l11.8-9.9L260.9,535.8z"/>
		<path class="st5" d="M357.5,455.2c0,0-36.9,18.9-50,24.6c-13,5.7-57.4,50.1-57.4,50.1s5.7,11.6,8.5,9.5
			c25.1-17.9,48.1-33.9,63-39.5c29.4-11.1,37.6-13.5,45.1-22.2C366.7,477.7,362.3,467.2,357.5,455.2z"/>
		<g>
			
				<linearGradient id="SVGID_2_" gradientUnits="userSpaceOnUse" x1="271.1434" y1="256.7" x2="300.0434" y2="256.7" gradientTransform="matrix(1 0 0 -1 0 794.8)">
				<stop  offset="0" style="stop-color:#343A44"/>
				<stop  offset="0.3009" style="stop-color:#232D3E"/>
				<stop  offset="0.6391" style="stop-color:#182439"/>
				<stop  offset="1" style="stop-color:#142138"/>
			</linearGradient>
			<path class="st6" d="M300,528.4l-4.8,21.7l-24.1,0.5c0,0,4.1-5.8,15.1-10.1l3.6-14.9L300,528.4z"/>
			<path class="st7" d="M358.4,450.4c0,0-34.3,3.7-46.9,10.4c-12.5,6.7-22.5,68.6-22.5,68.6s9.7,5.3,10.9,2
				c9.7-26.4,20.5-47.2,20.5-47.2c12.3-2.3,40.9,11.7,61.6-8.7C382.1,475.6,364.2,461.9,358.4,450.4z"/>
		</g>
		<g>
			<path class="st8" d="M417.6,408.7c0,0-2.5,4.1-4,9.2l-14.1-1.3c0,0,7.3-11,6.7-17.7L417.6,408.7z"/>
			<g>
				<path class="st8" d="M414.6,385.8c-0.8-0.2-3.8-1-4.4-0.8c-0.8,0.3,0.1,1.5-0.5,2.1c-1,1.1-2.9,1.1-4.1,1.8
					c-1.5,0.8-2.7,1.9-3.3,3.1c-1.1,2,3,6.5,3.7,9.9c1.4,7.1,10.3,8.1,17.6,6c2.6-0.8,5-3.1,6.4-5.4c1.7-2.7,0.7-7.1-0.7-9.8
					c-0.8-1.6-2.5-3-3.9-4c-1.3-0.9-1.7-4.7-3.2-4.9C422,383.9,416.4,386.3,414.6,385.8z"/>
			</g>
			
				<linearGradient id="SVGID_3_" gradientUnits="userSpaceOnUse" x1="1596.2908" y1="-158.1541" x2="1627.6089" y2="-158.1541" gradientTransform="matrix(-0.6574 -0.7535 0.7535 -0.6574 1602.8235 1505.6404)">
				<stop  offset="0" style="stop-color:#343A44"/>
				<stop  offset="0.3009" style="stop-color:#232D3E"/>
				<stop  offset="0.6391" style="stop-color:#182439"/>
				<stop  offset="1" style="stop-color:#142138"/>
			</linearGradient>
			<path class="st9" d="M434.9,404.8c0,0-0.2-1.2,1.8-3.1c6.8-6.4-0.5-18.9-7.9-21c-3.8-1.1-6.2,0.1-7.5-3.7c0.1,0.3-1.5,1-1.7,1.1
				c-0.9,0.7-1.3,1.3-1.3,2.5c-0.1,5.5,4.8,10.5,8.4,14c1.7,1.5-2.4,0.5-4.1,0.8c-1.1,0.2-3.9,3.1-4.5,3.6c1.5,1.9,2.9,0.2,5,1.1
				c1.9,0.9,0.7,3.3-1.1,3.6c-2.8,0.4-3.9-1.4-3.9-1.4c-1.3,0.7-1.5,4.8-2.5,5.9c1.4,0.8,9.5,2.2,11.4,2.2
				C431.1,410.3,433.6,408.1,434.9,404.8z"/>
		</g>
		<path class="st1" d="M417.2,410.9c3,33-35.1,64.7-35.1,64.7s-24.8,0.9-23.6-25.2c0,0,1.9-4.7,17.3-18.7
			c10.3-9.3,17.5-23.2,24.7-22.9C420.2,409.5,417.2,410.9,417.2,410.9z"/>
		
			<linearGradient id="SVGID_4_" gradientUnits="userSpaceOnUse" x1="324.9" y1="346.8219" x2="420.7" y2="346.8219" gradientTransform="matrix(1 0 0 -1 0 794.8)">
			<stop  offset="0" style="stop-color:#343A44"/>
			<stop  offset="0.3009" style="stop-color:#232D3E"/>
			<stop  offset="0.6391" style="stop-color:#182439"/>
			<stop  offset="1" style="stop-color:#142138"/>
		</linearGradient>
		<path class="st10" d="M324.9,477.4c0,0,22.9,8.5,53.4-3c30.5-11.6,38.9-65.6,38.9-65.6l3.5,1.8c0,0-3.4,59.7-43.6,72.6
			c-30.7,9.9-52.2-1.9-52.2-1.9L324.9,477.4L324.9,477.4z"/>
		<g>
			<path class="st11" d="M413.5,443.8c0,0,3.7,12.7,3.9,19c0.2,6.3-2.5,27.8-2.5,27.8l5.8,0.7c0,0,5.2-25.6,5.3-33.9
				c0.1-8.3-4.7-21.9-4.7-21.9L413.5,443.8z"/>
			<path class="st1" d="M413.1,444.4c4.2,18.5,2.5,43.2,2.5,43.2l6.3,0.4c6.9-14.5,6.3-46.6,2.6-60.1c-2.2-7.9-3.4-15.9-8.8-17.2
				c-3.4-0.8-10.3,1.7-11.2,5C402.6,423,411,435.3,413.1,444.4z"/>
			<path class="st11" d="M412.2,493.8c-1.4,2.7-2,4.6-1.2,5.3c0.6,0.5,1.5-2.1,2.6-3c0.3,1.1,0.4,3.1-0.3,4.8
				c-0.8,1.9-0.7,3.5,0.7,3.7c1.5,0.1,3.8,0,4.3-1.2s1.7-6.2,2.4-7.9c0.6-1.7-0.2-3.6,0-4.6s-4.3-2.6-4.3-2.6
				c-0.2,0.4-1.6,2.3-1.6,2.3s-1.2,1.4-1.6,1.7C412.9,492.5,412.2,493.8,412.2,493.8z"/>
		</g>
	</g>
	<g>
		<line class="st12" x1="377.8" y1="234.4" x2="377.8" y2="278.4"/>
		<circle class="st13" cx="377.9" cy="294.7" r="7.7"/>
		<polygon class="st7" points="414.2,298 341.3,298 373.2,274.8 382.3,274.8 		"/>
	</g>
	<g>
		<line class="st12" x1="34.7" y1="234.4" x2="34.7" y2="278.4"/>
		<circle class="st13" cx="34.8" cy="294.7" r="7.7"/>
		<polygon class="st7" points="71.2,298 -1.7,298 30.2,274.8 39.3,274.8 		"/>
	</g>
	<line class="st14" x1="-44.2" y1="550.7" x2="454.2" y2="550.7"/>
	<g>
		<g>
			<g>
				<path class="st15" d="M137,397.6c0,0,1.5-3.8,4.3-7.1c2.8-3.4,7-8.9,7-8.9s-2,4-4.8,8.5C140.7,394.5,137,397.6,137,397.6z"/>
				<path class="st15" d="M139.9,391.1c0,0,3.1-2.4,4.9-7.6c1.9-5.1,3.5-9.1,3.5-9.1s-4,5.7-5.7,9.7S139.9,391.1,139.9,391.1z"/>
				<path class="st15" d="M137.2,396.9c0,0,1.6-5.9,1.9-10.6c0.3-4.7,0.3-7.6,0.3-7.6s-2,8.5-2.7,12.1
					C136.1,394.4,137.2,396.9,137.2,396.9z"/>
				<path class="st15" d="M135.8,400.8c0,0,0.5-6.1-1.2-11.5s-1.8-8.9-1.8-8.9s-0.8,5.7,0.2,10.6C134,395.9,135.8,400.8,135.8,400.8
					z"/>
				<path class="st15" d="M136.3,399.4c0,0,4.3-3.7,6.5-4.5c2.2-0.9,5.2-3.4,5.2-3.4s-3.7,4.8-5.8,5.7
					C140.1,398.2,136.3,399.4,136.3,399.4z"/>
				<path class="st15" d="M134.8,404.6c0,0,0.4-3.3-1.5-8c-1.9-4.7-2.4-7-2.4-7s-0.1,6.4,1.2,8.8
					C133.4,400.7,134.8,404.6,134.8,404.6z"/>
				<path class="st15" d="M135.2,402.2c0,0,2.5-1.7,4.9-2c2.4-0.3,3-0.7,3-0.7s-1.2,2.2-4.1,2.6C136,402.5,135.2,402.2,135.2,402.2z
					"/>
				<path class="st15" d="M133.6,407.7c0.5-2.1,1.2-5.3,1.9-7.4c1.6-4.7,5.3-10.9,5.3-10.9c-2.3,5-3.9,7.9-5.1,12.2
					c-0.5,1.7-1.2,4.1-1.7,5.7C134,407.8,133.7,408.1,133.6,407.7z"/>
			</g>
			<g>
				<path class="st16" d="M134.7,399.3c0,0-0.2-4.3-1.9-8.7c-1.6-4.3-3.9-11.4-3.9-11.4s0.7,4.7,1.9,10.2S134.7,399.3,134.7,399.3z"
					/>
				<path class="st16" d="M134.1,391.7c0,0-2.3-3.5-2.4-9.3c-0.1-5.8-0.4-10.3-0.4-10.3s2,7.2,2.4,11.7
					C134,388.4,134.1,391.7,134.1,391.7z"/>
				<path class="st16" d="M134.8,398.5c0,0,0.4-6.5,1.7-11.3c1.3-4.8,2.4-7.8,2.4-7.8s-0.9,9.3-1.5,13.1
					C136.7,396.4,134.8,398.5,134.8,398.5z"/>
				<path class="st16" d="M134.8,402.9c0,0,1.6-6.3,5.2-11.1c3.6-4.9,4.9-8.3,4.9-8.3s-1.1,6-3.8,10.6
					C138.3,398.6,134.8,402.9,134.8,402.9z"/>
				<path class="st16" d="M134.8,401.4c0,0-3.1-5.2-4.9-6.8c-1.9-1.6-4.1-5.2-4.1-5.2s2.1,6.1,3.9,7.8
					C131.4,398.8,134.8,401.4,134.8,401.4z"/>
				<path class="st16" d="M134.5,407.1c0,0,0.7-3.5,4.3-7.5s4.8-6.2,4.8-6.2s-2.1,6.4-4.2,8.4C137.3,403.7,134.5,407.1,134.5,407.1z
					"/>
				<path class="st16" d="M134.9,404.5c0,0-1.9-2.5-4.2-3.7c-2.3-1.2-2.8-1.7-2.8-1.7s0.4,2.6,3.3,4
					C134,404.5,134.9,404.5,134.9,404.5z"/>
				<path class="st15" d="M134.6,410.7c0.2-2.3,0.6-5.7,0.6-8.2c0.1-5.3-1.6-12.7-1.6-12.7c0.5,5.9,1.2,9.3,0.9,14.1
					c-0.1,1.9-0.2,4.6-0.3,6.3C134.2,410.6,134.4,411,134.6,410.7z"/>
			</g>
			<g>
				<path class="st15" d="M131.4,400.2c0,0-1.5-3.8-4.3-7.1c-2.8-3.4-7-8.9-7-8.9s2,4,4.8,8.5C127.7,397.1,131.4,400.2,131.4,400.2z
					"/>
				<path class="st15" d="M128.6,393.6c0,0-3.1-2.4-4.9-7.6c-1.9-5.1-3.5-9.1-3.5-9.1s4,5.7,5.7,9.7
					C127.5,390.7,128.6,393.6,128.6,393.6z"/>
				<path class="st15" d="M131.2,399.5c0,0-1.6-5.9-1.9-10.6c-0.3-4.7-0.3-7.6-0.3-7.6s2,8.5,2.7,12.1
					C132.3,397,131.2,399.5,131.2,399.5z"/>
				<path class="st15" d="M132.6,403.4c0,0-0.5-6.1,1.2-11.5s1.8-8.9,1.8-8.9s0.8,5.7-0.2,10.6C134.5,398.5,132.6,403.4,132.6,403.4
					z"/>
				<path class="st15" d="M132.1,402c0,0-4.3-3.7-6.5-4.5c-2.2-0.9-5.2-3.4-5.2-3.4s3.7,4.8,5.8,5.7
					C128.3,400.8,132.1,402,132.1,402z"/>
				<path class="st15" d="M133.6,407.2c0,0-0.4-3.3,1.5-8c1.9-4.7,2.4-7,2.4-7s0.1,6.4-1.2,8.8C135.1,403.3,133.6,407.2,133.6,407.2
					z"/>
				<path class="st15" d="M133.2,404.8c0,0-2.5-1.7-4.9-2s-3-0.7-3-0.7s1.2,2.2,4.1,2.6C132.4,405.1,133.2,404.8,133.2,404.8z"/>
				<path class="st15" d="M134.8,410.3c-0.5-2.1-1.2-5.3-1.9-7.4c-1.6-4.7-5.3-10.9-5.3-10.9c2.3,5,3.9,7.9,5.1,12.2
					c0.5,1.7,1.2,4.1,1.7,5.7C134.4,410.4,134.7,410.7,134.8,410.3z"/>
			</g>
			<polygon class="st7" points="140.3,424.9 128.6,424.9 125,404.3 144.3,404.3 			"/>
		</g>
		<g>
			<g>
				<polygon class="st3" points="273.6,430.5 292.8,550.8 296.5,550.8 281.3,430.5 				"/>
				<polygon class="st3" points="140.9,430.6 115.9,551 110.9,551 130.5,430.6 				"/>
			</g>
			<rect x="101.5" y="423.5" class="st3" width="207" height="9.3"/>
			<rect x="91.6" y="423.5" class="st17" width="226.9" height="6.2"/>
		</g>
		<g>
			<g>
				<polygon class="st18" points="255,420.2 246.9,420.2 238.9,368.8 245,368.8 				"/>
				<polygon class="st7" points="252.7,420.2 221.3,420.2 213.2,368.8 244.6,368.8 				"/>
				<rect x="220.8" y="419.1" class="st7" width="34.2" height="3.8"/>
				<rect x="255" y="419.1" class="st18" width="43.1" height="3.8"/>
				<path class="st18" d="M235.4,397c0.9,3.9,0.3,8.2-1.4,9.5c-1.7,1.3-3.8-0.8-4.7-4.8c-0.9-3.9-0.3-8.2,1.4-9.5
					C232.4,391,234.5,393.1,235.4,397z"/>
			</g>
		</g>
		<g>
			<path class="st18" d="M186.5,422.7H182c-1.8,0-3.4-1.3-3.7-3.2l-1.8-11.5H192l-1.8,11.5C189.9,421.4,188.4,422.7,186.5,422.7z"/>
			<g>
				<path class="st18" d="M190.7,420.3c-0.2,0-0.3,0-0.5,0H190l-0.2-0.1c-0.1-0.1-2.7-2.1-2.7-5c0-3,2-5.4,4.4-5.4
					c1.5,0,2.8,0.6,3.6,1.5c0.6,0.7,1.2,2,0.8,4l0,0C195.3,418.4,193.4,420.3,190.7,420.3z M190.5,418.9c2.8,0.1,3.7-2.1,4-3.9l0,0
					c0.2-1.2,0-2.2-0.5-2.9s-1.5-1-2.5-1c-1.7,0-3,1.8-3,4C188.5,416.9,190,418.4,190.5,418.9z"/>
			</g>
		</g>
		<polygon class="st7" points="175.1,423.7 194.6,423.7 197.7,420.3 172,420.3 		"/>
	</g>
	<g>
		<rect x="-21.8" y="348.7" class="st5" width="93.4" height="202"/>
		<rect x="-11" y="357.6" class="st7" width="71.9" height="21.2"/>
		<path class="st19" d="M33.5,370.7H16.3c-0.4,0-0.8-0.4-0.8-0.8v-3.5c0-0.4,0.4-0.8,0.8-0.8h17.2c0.4,0,0.8,0.4,0.8,0.8v3.5
			C34.3,370.4,34,370.7,33.5,370.7z"/>
		<rect x="-11" y="384.5" class="st7" width="71.9" height="21.2"/>
		<path class="st19" d="M33.5,397.7H16.3c-0.4,0-0.8-0.4-0.8-0.8v-3.5c0-0.4,0.4-0.8,0.8-0.8h17.2c0.4,0,0.8,0.4,0.8,0.8v3.5
			C34.3,397.3,34,397.7,33.5,397.7z"/>
		<rect x="-11" y="411.5" class="st7" width="71.9" height="21.2"/>
		<path class="st19" d="M33.5,424.6H16.3c-0.4,0-0.8-0.4-0.8-0.8v-3.5c0-0.4,0.4-0.8,0.8-0.8h17.2c0.4,0,0.8,0.4,0.8,0.8v3.5
			C34.3,424.3,34,424.6,33.5,424.6z"/>
		<rect x="-11" y="438.7" class="st7" width="71.9" height="103.8"/>
		<path class="st19" d="M33.5,451.9H16.3c-0.4,0-0.8-0.4-0.8-0.8v-3.5c0-0.4,0.4-0.8,0.8-0.8h17.2c0.4,0,0.8,0.4,0.8,0.8v3.5
			C34.3,451.5,34,451.9,33.5,451.9z"/>
	</g>
	<g id="DESIGNED_BY_FREEPIK">
	</g>
</g>
</svg>
