<svg width="14" height="14" viewBox="0 0 14 14" fill="none" xmlns="http://www.w3.org/2000/svg">
<path d="M13.9992 7.0001C13.9992 6.01076 13.4975 5.13868 12.7345 4.62418C12.9101 3.72118 12.6482 2.74993 11.9488 2.04993C11.2494 1.35051 10.2781 1.0886 9.37455 1.26418C8.86005 0.501178 7.98796 -0.000488281 6.99863 -0.000488281C6.0093 -0.000488281 5.13721 0.501178 4.62271 1.26418C3.71971 1.0886 2.74788 1.35051 2.04846 2.04993C1.34905 2.74935 1.08713 3.7206 1.26271 4.62418C0.499714 5.13868 -0.00195312 6.01076 -0.00195312 7.0001C-0.00195312 7.98943 0.499714 8.86151 1.26271 9.37601C1.08713 10.279 1.34905 11.2508 2.04846 11.9503C2.74788 12.6497 3.71913 12.9116 4.62271 12.736C5.13721 13.499 6.0093 14.0007 6.99863 14.0007C7.98796 14.0007 8.86005 13.499 9.37455 12.736C10.2775 12.9116 11.2494 12.6497 11.9488 11.9503C12.6482 11.2508 12.9101 10.2796 12.7345 9.37601C13.4975 8.86151 13.9992 7.98943 13.9992 7.0001ZM4.66588 5.2501C4.66588 4.9281 4.92721 4.66676 5.24921 4.66676C5.57121 4.66676 5.83255 4.9281 5.83255 5.2501C5.83255 5.5721 5.57121 5.83343 5.24921 5.83343C4.92721 5.83343 4.66588 5.5721 4.66588 5.2501ZM6.27938 9.33343H4.91905L7.71905 4.66676H9.07938L6.27938 9.33343ZM8.74921 9.33343C8.42721 9.33343 8.16588 9.0721 8.16588 8.7501C8.16588 8.4281 8.42721 8.16676 8.74921 8.16676C9.07121 8.16676 9.33255 8.4281 9.33255 8.7501C9.33255 9.0721 9.07121 9.33343 8.74921 9.33343Z" fill="url(#paint0_linear_1280_321)"/>
<defs>
<linearGradient id="paint0_linear_1280_321" x1="6.99863" y1="-0.000488281" x2="6.99863" y2="14.0007" gradientUnits="userSpaceOnUse">
<stop stop-color="#F8C6FF"/>
<stop offset="1" stop-color="#A142FF"/>
</linearGradient>
</defs>
</svg>
