<svg xmlns="http://www.w3.org/2000/svg" width="20.306" height="26.322" viewBox="0 0 20.306 26.322">
  <g id="address" transform="translate(-58.567 0.1)">
    <path id="Path_29" data-name="Path 29" d="M68.72,0A10.065,10.065,0,0,0,58.667,10.053c0,3.118,1.613,6.739,4.795,10.763a42.8,42.8,0,0,0,4.719,5.064.815.815,0,0,0,1.079,0,42.8,42.8,0,0,0,4.719-5.064c3.182-4.024,4.795-7.645,4.795-10.763A10.065,10.065,0,0,0,68.72,0Zm0,24.157c-1.937-1.846-8.423-8.451-8.423-14.1a8.423,8.423,0,1,1,16.846,0C77.143,15.706,70.657,22.311,68.72,24.157Z" fill="#058f46" stroke="#058f46" stroke-width="0.2"/>
    <path id="Path_30" data-name="Path 30" d="M140.758,93.087,135.052,88.2a.815.815,0,0,0-1.061,0l-5.706,4.891a.815.815,0,1,0,1.061,1.238l.692-.593v4.05a.815.815,0,0,0,.815.815h7.336a.815.815,0,0,0,.815-.815v-4.05l.692.593a.815.815,0,1,0,1.061-1.238Zm-3.383,3.879h-5.706V92.334l2.853-2.445,2.853,2.445Z" transform="translate(-65.801 -83.517)" fill="#058f46" stroke="#058f46" stroke-width="0.2"/>
  </g>
</svg>
