<svg width="10" height="11" viewBox="0 0 10 11" fill="none" xmlns="http://www.w3.org/2000/svg">
<path d="M1.66659 0.679688H2.91653C3.83696 0.679688 4.58311 1.3992 4.58311 2.28675V3.49205C4.58311 4.37961 3.83696 5.09912 2.91653 5.09912H1.66659C0.746158 5.09912 0 4.37961 0 3.49205V2.28675C0 1.3992 0.746158 0.679688 1.66659 0.679688Z" fill="#727272"/>
<path d="M1.66659 5.90234H2.91653C3.83696 5.90234 4.58311 6.62185 4.58311 7.50941V8.71471C4.58311 9.60227 3.83696 10.3218 2.91653 10.3218H1.66659C0.746158 10.3218 0 9.60227 0 8.71471V7.50941C0 6.62185 0.746158 5.90234 1.66659 5.90234Z" fill="#727272"/>
<path d="M9.2885 8.36348L8.33313 9.28352V1.71744L9.2885 2.63748C9.4513 2.79436 9.71516 2.79426 9.87785 2.63727C10.0405 2.48028 10.0404 2.22585 9.87763 2.06897L8.79977 1.03121C8.31177 0.561213 7.5212 0.561213 7.03319 1.03121L5.95533 2.06897C5.79252 2.22585 5.79243 2.48028 5.95511 2.63727C6.1178 2.79426 6.38166 2.79436 6.54446 2.63748L7.49983 1.71744V9.28352L6.54446 8.36348C6.38154 8.2066 6.11759 8.20679 5.9549 8.36387C5.79221 8.52098 5.79241 8.7755 5.95531 8.93238L7.03317 9.97015C7.52174 10.4388 8.31118 10.4388 8.79975 9.97015L9.87761 8.93238C10.0405 8.7755 10.0407 8.52098 9.87802 8.36387C9.71536 8.20679 9.4514 8.2066 9.2885 8.36348Z" fill="#727272"/>
</svg>
