<svg width="520" height="294" viewBox="0 0 520 294" fill="none" xmlns="http://www.w3.org/2000/svg">
<mask id="mask0_2714_4085" style="mask-type:alpha" maskUnits="userSpaceOnUse" x="0" y="0" width="520" height="294">
<rect width="520" height="294" rx="9" fill="white"/>
</mask>
<g mask="url(#mask0_2714_4085)">
<rect width="520" height="294" rx="9" fill="#2BA87B"/>
<g style="mix-blend-mode:multiply" opacity="0.3">
<path d="M464.177 158.443C462.325 171.321 458.796 185.065 448.691 193.252C435.846 203.653 417.422 201.538 400.916 200.749C376.026 199.565 351.158 202.645 326.366 205.22C260.694 212.059 194.649 215.358 128.626 215.106C119.387 215.073 109.72 214.865 101.599 210.459C95.2638 207.018 90.4852 201.319 86.2327 195.499C60.9371 160.854 49.1551 116.609 53.8788 73.9743C54.2295 70.8178 57.9779 66.8284 59.4903 69.6232C58.6793 75.8485 59.6328 82.282 62.1646 88.025C62.9647 89.8444 65.4526 90.1732 66.6143 88.573C70.2421 83.5753 69.2228 75.4649 68.346 68.8122C66.5376 55.2437 67.798 41.2806 71.9628 28.2382C72.73 25.827 70.001 23.8762 67.9624 25.3777C64.9703 27.5916 61.8358 29.5973 58.5697 31.3947C56.8161 32.3592 54.6679 31.0221 54.7447 29.0164C56.1256 -7.42561 71.4039 -43.21 96.8639 -69.3277C102.421 -75.0269 108.624 -80.5507 112.416 -87.4226C113.479 -89.3406 111.791 -91.6313 109.632 -91.1929C106.125 -90.4914 102.618 -89.79 99.1107 -89.0886C96.7434 -88.6173 95.0555 -91.3682 96.579 -93.2314C110.969 -110.866 145.987 -131.712 151.006 -134.649C151.401 -134.879 151.85 -135 152.311 -135H359.082C359.323 -135 359.564 -134.967 359.805 -134.901C391.052 -126.035 421.116 -111.337 439.978 -85.6033C440.876 -84.3758 440.504 -82.6002 439.178 -81.855C433.917 -78.9177 426.333 -81.4604 420.699 -84.6826C417.06 -86.765 413.038 -89.0447 409.016 -90.075C406.144 -90.8093 404.566 -86.8418 407.12 -85.3402C423.899 -75.4653 438.882 -62.3133 448.921 -45.7089C459.64 -27.9646 464.221 -6.02272 459.18 13.9902C458.686 15.9302 456.297 16.6316 454.861 15.2397C451.245 11.7215 447.617 8.21431 444 4.69615C441.183 1.95615 436.755 -0.904404 433.741 1.62737C431.243 3.73167 432.141 7.68823 433.139 10.8009C440.8 34.7485 441.172 60.9648 434.257 85.1316C433.73 86.951 435.342 88.7594 437.205 88.3757C442.115 87.3674 446.236 82.271 448.811 77.4925C451.475 72.5714 454.522 66.8722 459.289 64.6035C460.889 63.8363 462.785 64.8227 463.016 66.5873C466.994 97.0561 468.594 128.04 464.199 158.443H464.177Z" fill="#4A6C8F"/>
</g>
<path d="M362.509 127.964C362.509 127.964 361.04 130.825 359.736 135.329C358.969 137.992 358.815 141.401 358.103 145.697V145.719C357.04 147.035 356.349 146.98 354.76 146.969C353.127 146.947 350.573 146.004 348.973 145.664C347.373 145.336 346.913 149.303 350.31 149.873C353.697 150.443 356.634 149.687 356.634 149.687C356.634 149.687 356.919 149.632 357.347 149.533C356.886 151.55 356.262 153.731 355.407 156.098C354.924 157.392 354.365 158.806 353.708 160.307C351.658 161.765 350.76 161.414 348.6 160.734C346.441 160.055 343.449 157.753 341.455 156.657C339.482 155.583 337.235 160.658 341.52 162.784C345.795 164.899 350.003 165.097 350.003 165.097C350.003 165.097 350.562 165.151 351.34 165.184C350.069 167.585 348.579 170.05 346.869 172.451C344.348 174.248 343.219 173.799 340.545 172.944C337.849 172.1 334.111 169.218 331.634 167.869C329.168 166.521 326.374 172.845 331.711 175.498C336.347 177.81 340.928 178.281 342.024 178.369C338.495 182.128 334.32 185.329 329.497 187.291C315.578 192.946 308.816 180.397 308.816 180.397L306.306 177.744C306.306 177.744 298.93 171.103 297.088 164.439C295.806 159.792 295.828 151.879 304.771 142.486C304.684 144.47 304.739 147.155 305.352 150.005C306.613 155.835 313.441 154.674 312.739 151.956C312.027 149.227 310.164 144.886 309.988 142.07C309.824 139.352 309.692 138.157 311.775 136.272L311.83 136.228C313.167 135.22 314.624 134.189 316.192 133.148C318.011 131.943 319.874 130.901 321.77 130.036C321.518 130.967 320.653 134.496 321.113 138.551C321.639 143.308 327.185 142.935 326.845 140.711C326.505 138.486 325.376 134.858 325.475 132.6C325.563 130.331 325.76 129.203 327.809 127.778L327.864 127.734C327.864 127.734 327.886 127.734 327.886 127.712C327.886 127.712 327.897 127.712 327.919 127.712C332.04 126.474 336.117 125.86 340.008 125.63C339.986 125.684 339.964 125.717 339.964 125.717C339.964 125.717 338.912 127.635 338.693 130.123C338.473 132.611 341.345 132.995 341.4 131.822C341.444 130.638 341.246 128.666 341.52 127.515C341.783 126.474 341.871 125.98 342.792 125.498C342.814 125.498 342.825 125.498 342.836 125.476C353.982 125.279 362.553 127.964 362.553 127.964H362.509Z" fill="#216C51"/>
<path d="M291.554 197.045C291.554 197.045 299.259 179.98 316.181 161.534C339.076 136.578 356.064 130.967 356.064 130.967C356.064 130.967 336.84 140.655 316.663 163.77C300.651 182.106 293.658 198.513 293.658 198.513L291.554 197.045Z" fill="#2BA87B"/>
<path d="M247.286 127.71C247.286 127.71 247.856 130.308 247.944 134.188C247.999 136.478 247.396 139.229 247.056 142.824C247.626 144.118 248.185 144.216 249.467 144.545C250.771 144.874 253.018 144.655 254.366 144.731C255.714 144.797 255.243 148.074 252.404 147.811C249.577 147.548 247.396 146.32 247.396 146.32C247.396 146.32 247.177 146.211 246.859 146.046C246.804 147.756 246.837 149.63 247.012 151.702C247.122 152.842 247.275 154.091 247.483 155.417C248.81 157.017 249.599 156.93 251.473 156.842C253.347 156.754 256.23 155.549 258.038 155.099C259.846 154.661 260.559 159.188 256.69 159.977C252.821 160.766 249.423 160.031 249.423 160.031C249.423 160.031 248.963 159.955 248.338 159.812C248.842 161.993 249.511 164.284 250.377 166.564C252.01 168.525 253.007 168.416 255.331 168.306C257.665 168.197 261.26 166.695 263.518 166.136C265.776 165.577 266.663 171.233 261.841 172.219C257.643 173.085 253.884 172.493 252.985 172.329C255.013 176.077 257.676 179.518 261.107 182.105C271.025 189.569 279.092 180.976 279.092 180.976L281.657 179.387C281.657 179.387 288.956 175.638 291.839 170.706C293.855 167.265 295.51 160.941 290.348 151.537C289.997 153.149 289.383 155.275 288.287 157.423C286.052 161.818 280.835 159.44 281.975 157.423C283.114 155.395 285.526 152.327 286.26 150.113C286.972 147.975 287.323 147.044 286.052 145.104L286.019 145.06C285.164 143.964 284.21 142.835 283.18 141.673C281.975 140.325 280.714 139.098 279.388 138.002C279.388 138.802 279.333 141.805 278.106 144.95C276.681 148.633 272.33 147.175 273.075 145.455C273.809 143.745 275.486 141.093 275.892 139.273C276.297 137.443 276.385 136.489 275.048 134.922L275.015 134.878C275.015 134.878 275.004 134.878 275.004 134.856C275.004 134.856 274.997 134.853 274.982 134.845C271.957 132.982 268.823 131.634 265.765 130.615C265.765 130.659 265.776 130.692 265.776 130.692C265.776 130.692 266.214 132.456 265.863 134.484C265.513 136.511 263.134 136.215 263.332 135.273C263.54 134.319 264.121 132.785 264.143 131.809C264.143 130.922 264.186 130.505 263.562 129.924C263.551 129.924 263.54 129.913 263.54 129.902C254.673 127.382 247.253 127.721 247.253 127.721L247.286 127.71Z" fill="#216C51"/>
<path d="M289.351 197.942C289.351 197.942 286.808 182.675 277.185 164.35C264.176 139.558 251.78 131.47 251.78 131.47C251.78 131.47 265.096 143.285 276.319 166.027C285.23 184.067 287.345 198.665 287.345 198.665L289.34 197.942H289.351Z" fill="#216C51"/>
<path d="M160.746 136.16C160.746 136.16 168.846 150.89 172.408 165.127C172.934 167.21 173.745 169.643 174.863 172.284C178.063 173.183 182.03 170.541 184.759 169.95C187.762 169.303 191.598 171.013 189.067 173.994C186.645 176.865 179.005 176.328 176.594 176.076C178.699 180.373 181.471 185.02 184.88 189.437C184.946 189.447 185.022 189.469 185.088 189.491C189.615 191.026 194.963 185.502 198.602 184.099C202.252 182.685 209.485 183.398 206.888 187.639C204.652 191.333 193.999 193.492 189.001 194.336C192.004 197.58 195.347 200.583 199.04 203.126H199.073C204.115 204.824 210.91 199.859 214.516 197.448C219.908 193.875 227.723 197.536 223.744 201.405C221.311 203.783 213.288 206.194 207.447 207.729C211.732 209.515 216.346 210.611 221.3 210.787C249.149 211.751 252.744 190.763 252.744 190.763C252.744 190.763 260.482 183.266 259.013 170.947C257.907 161.664 253.292 152.249 240.765 145.246C242.617 151.033 245.116 159.921 244.36 163.439C243.176 168.854 235.932 164.163 236.129 157.696C236.239 153.608 236.622 145.454 233.214 141.717H233.203C229.531 140.281 225.366 138.999 220.653 137.914C219.579 137.661 218.494 137.431 217.42 137.234C219.393 142.002 223.076 151.964 221.147 155.778C218.911 160.228 214.483 154.452 213.76 150.627C213.014 146.791 214.878 139.327 211.173 136.302C211.107 136.248 211.052 136.193 210.976 136.138C205.32 135.305 199.687 134.856 194.36 134.658C195.95 136.73 200.202 142.714 199.084 146.21C197.879 149.926 194.404 147.58 193.363 144.687C192.344 141.826 192.607 136.478 189.439 134.527H189.428C173.197 134.308 160.746 136.149 160.746 136.149V136.16Z" fill="#2BA87B"/>
<path d="M262.477 195.432C262.477 195.432 241.039 181.019 215.195 165.588C189.351 150.156 173.854 146.342 173.854 146.342C173.854 146.342 191.949 153.849 219.787 171.791C246.99 189.316 256.755 197.393 256.755 197.393L262.477 195.432Z" fill="#216C51"/>
<path d="M9.10342 41.9263C9.10342 41.9263 3.96318 10.6246 18.9565 -28.5245C33.9497 -67.6736 56.2424 -77.5596 56.2424 -77.5596C56.2424 -77.5596 32.3605 -63.8157 18.4961 -18.3865C7.26214 18.4172 12.7093 41.3783 12.7093 41.3783L9.10342 41.9263Z" fill="#2BA87B"/>
<path d="M494.982 -12.115C494.982 -12.115 495.585 -2.02086 498.347 6.36354C498.753 7.59106 499.114 9.09259 499.388 10.7914C498.051 12.2819 495.18 12.2052 493.601 12.7751C491.87 13.4108 490.467 15.5151 492.703 16.2166C494.851 16.9071 498.566 14.178 499.717 13.2793C500.024 16.1399 500.101 19.395 499.783 22.7378C499.75 22.7707 499.717 22.7926 499.695 22.8364C497.887 25.0723 493.393 23.9763 491.091 24.4256C488.779 24.875 485.327 27.5602 488.012 28.8863C490.335 30.0481 496.451 27.7355 499.268 26.5519C498.785 29.1603 498.04 31.7688 496.977 34.2458C496.977 34.2458 496.973 34.2458 496.966 34.2458C494.949 36.7337 489.897 36.383 487.288 36.3172C483.398 36.2295 480.592 40.6026 483.858 41.2931C485.853 41.7205 490.719 40.3724 494.182 39.2764C492.571 41.5561 490.587 43.6056 488.11 45.2715C474.246 54.6971 465.686 45.1729 465.686 45.1729C465.686 45.1729 459.34 43.8358 456.14 37.1063C453.729 32.0319 453.049 25.7627 457.181 18.1784C458.102 21.7185 459.68 27.0341 461.193 28.5904C463.538 30.9687 465.708 26.2559 463.538 23.0227C462.168 20.9732 459.362 16.9509 459.888 13.9588C461.302 12.0408 463.001 10.0571 465.051 7.99658C465.522 7.5253 465.993 7.05403 466.475 6.61563C467.001 9.67347 468.328 15.9207 470.531 17.2468C473.095 18.7922 473.49 14.4301 472.635 12.2491C471.78 10.0571 468.437 6.85674 469.358 4.1277C469.38 4.0729 469.391 4.02906 469.402 3.98522C472.01 1.74938 474.728 -0.289175 477.381 -2.09758C477.238 -0.530295 476.997 3.87562 478.685 5.28946C480.493 6.79098 481.501 4.47843 481.107 2.68099C480.712 0.894506 478.86 -1.7359 479.847 -3.74158C488.034 -9.06814 494.96 -12.126 494.96 -12.126L494.982 -12.115Z" fill="#F6C206"/>
<path d="M462.234 50.6854C462.234 50.6854 468.514 36.4703 476.712 20.3372C484.91 4.1931 491.574 -2.72266 491.574 -2.72266C491.574 -2.72266 484.779 6.90022 476.361 24.9623C468.141 42.6079 465.774 49.8525 465.774 49.8525L462.234 50.6964V50.6854Z" fill="#2BA87B"/>
<g style="mix-blend-mode:multiply" opacity="0.3">
<path d="M26.5188 64.0791C26.5188 64.0791 26.9024 70.403 28.6231 75.6638C28.8752 76.431 29.1053 77.3736 29.2807 78.4367C28.4368 79.3683 26.6393 79.3245 25.6529 79.6861C24.5679 80.0807 23.6911 81.3959 25.094 81.8453C26.4421 82.2727 28.7765 80.5629 29.4889 80.004C29.6862 81.8014 29.7301 83.84 29.5328 85.9333C29.5109 85.9553 29.4889 85.9662 29.478 85.9881C28.3381 87.391 25.5214 86.7005 24.0857 86.9855C22.6389 87.2705 20.4689 88.9473 22.1567 89.7803C23.6144 90.5037 27.4504 89.0569 29.2149 88.3226C28.9081 89.9557 28.4477 91.5887 27.7792 93.145C26.5078 94.7013 23.3513 94.4821 21.7073 94.4383C19.2742 94.3835 17.5097 97.1235 19.5592 97.5509C20.8086 97.8249 23.8555 96.981 26.0256 96.2905C25.0173 97.7153 23.7678 98.9977 22.2225 100.05C13.5312 105.957 8.17174 99.995 8.17174 99.995C8.17174 99.995 4.19326 99.1621 2.18758 94.9425C0.6751 91.7641 0.24766 87.8294 2.83422 83.0728C3.40414 85.2867 4.4015 88.6295 5.34406 89.594C6.8127 91.0845 8.17174 88.1253 6.8127 86.1087C5.95782 84.8264 4.19326 82.3056 4.52206 80.4205C5.40982 79.2149 6.47294 77.9764 7.75526 76.6831C8.05118 76.3872 8.3471 76.0913 8.65398 75.8173C8.98278 77.7353 9.81574 81.648 11.1967 82.4809C12.8078 83.4454 13.0489 80.7164 12.5119 79.3464C11.9749 77.9764 9.8815 75.9707 10.4514 74.2609C10.4514 74.2281 10.4733 74.1952 10.4843 74.1733C12.1173 72.7704 13.8271 71.4881 15.4821 70.3592C15.3944 71.3346 15.2409 74.1075 16.2931 74.9953C17.422 75.9378 18.0577 74.4911 17.8165 73.3622C17.5645 72.2443 16.4137 70.5893 17.0274 69.3399C22.1567 65.9971 26.4969 64.0791 26.4969 64.0791H26.5188Z" fill="#4A6C8F"/>
</g>
<path d="M5.99072 103.436C5.99072 103.436 9.92536 94.5254 15.0656 84.4094C20.2058 74.2933 24.3816 69.9531 24.3816 69.9531C24.3816 69.9531 20.1182 75.9921 14.8464 87.3028C9.6952 98.3614 8.20464 102.899 8.20464 102.899L5.99072 103.425V103.436Z" fill="#2BA87B"/>
<g style="mix-blend-mode:multiply" opacity="0.3">
<path d="M469.04 62.7207C469.04 62.7207 469.413 65.3511 469.215 69.22C469.095 71.5106 468.295 74.2068 467.692 77.7578C468.163 79.0949 468.722 79.2374 469.972 79.6539C471.254 80.0814 473.512 80.0266 474.849 80.2019C476.186 80.3773 475.473 83.5995 472.668 83.1282C469.873 82.657 467.78 81.276 467.78 81.276C467.78 81.276 467.571 81.1554 467.264 80.9581C467.078 82.6569 466.969 84.5311 467.001 86.6135C467.023 87.7533 467.089 89.0137 467.199 90.3618C468.404 92.0606 469.204 92.0277 471.068 92.0716C472.942 92.1154 475.901 91.129 477.742 90.8221C479.584 90.5153 479.956 95.0856 476.032 95.5897C472.12 96.0939 468.788 95.0965 468.788 95.0965C468.788 95.0965 468.339 94.9869 467.725 94.8006C468.065 97.0145 468.569 99.349 469.259 101.694C470.75 103.777 471.747 103.733 474.071 103.799C476.405 103.865 480.11 102.626 482.4 102.242C484.691 101.859 485.162 107.558 480.274 108.183C476.021 108.731 472.317 107.865 471.44 107.635C473.183 111.526 475.583 115.153 478.816 117.992C488.154 126.168 496.835 118.2 496.835 118.2L499.509 116.808C499.509 116.808 507.06 113.619 510.315 108.906C512.573 105.629 514.699 99.4367 510.25 89.6823C509.789 91.2605 509.011 93.332 507.762 95.3925C505.208 99.6011 500.188 96.8611 501.471 94.9212C502.764 92.9813 505.394 90.0988 506.293 87.9397C507.159 85.8682 507.586 84.9585 506.457 82.9309L506.435 82.8871C505.668 81.7363 504.802 80.5417 503.86 79.3032C502.764 77.8674 501.591 76.5522 500.342 75.3686C500.287 76.1686 500.002 79.1607 498.555 82.1966C496.856 85.7696 492.626 83.9831 493.503 82.3281C494.369 80.6841 496.232 78.1524 496.769 76.3659C497.306 74.5685 497.47 73.6259 496.243 71.96L496.221 71.9161C496.221 71.9161 496.21 71.9162 496.221 71.8942C496.221 71.8942 496.213 71.8906 496.199 71.8833C493.316 69.8009 490.291 68.2226 487.321 66.9841C487.321 67.028 487.321 67.0718 487.321 67.0718C487.321 67.0718 487.628 68.8583 487.124 70.864C486.62 72.8587 484.274 72.3874 484.548 71.4558C484.833 70.5242 485.524 69.0337 485.622 68.0582C485.699 67.1814 485.765 66.765 485.173 66.1402C485.162 66.1402 485.151 66.1293 485.151 66.1183C476.493 62.9509 469.073 62.7317 469.073 62.7317L469.04 62.7207Z" fill="#4A6C8F"/>
</g>
<path d="M505.789 135.879C505.789 135.879 504.386 120.47 496.144 101.476C484.998 75.7858 473.249 66.8096 473.249 66.8096C473.249 66.8096 485.644 79.578 495.158 103.098C502.709 121.752 503.739 136.46 503.739 136.46L505.778 135.879H505.789Z" fill="#2BA87B"/>
<path d="M-2.07576 119.042C-2.07576 119.042 -1.70312 121.672 -1.9004 125.541C-2.02096 127.832 -2.82104 130.528 -3.42384 134.079C-2.95256 135.416 -2.3936 135.559 -1.14416 135.975C0.138158 136.403 2.39592 136.348 3.73304 136.523C5.07016 136.699 4.35776 139.921 1.552 139.45C-1.2428 138.978 -3.33616 137.597 -3.33616 137.597C-3.33616 137.597 -3.5444 137.477 -3.85128 137.279C-4.0376 138.978 -4.1472 140.852 -4.11432 142.935C-4.0924 144.075 -4.02664 145.335 -3.91704 146.683C-2.71144 148.382 -1.91136 148.349 -0.0481625 148.393C1.826 148.437 4.7852 147.45 6.62648 147.143C8.46776 146.837 8.8404 151.407 4.91672 151.911C1.004 152.415 -2.32784 151.418 -2.32784 151.418C-2.32784 151.418 -2.7772 151.308 -3.39096 151.122C-3.0512 153.336 -2.54704 155.67 -1.85656 158.016C-0.366002 160.098 0.631359 160.054 2.95488 160.12C5.28936 160.186 8.99384 158.947 11.2845 158.564C13.5751 158.18 14.0464 163.879 9.15824 164.504C4.90576 165.052 1.20128 164.186 0.324478 163.956C2.06712 167.847 4.46736 171.475 7.70056 174.313C17.0385 182.489 25.7188 174.522 25.7188 174.522L28.393 173.13C28.393 173.13 35.9445 169.94 39.1996 165.227C41.4574 161.95 43.5836 155.758 39.1338 146.004C38.6735 147.582 37.8954 149.653 36.6459 151.714C34.0922 155.922 29.0726 153.182 30.3549 151.242C31.6482 149.303 34.2786 146.42 35.1773 144.261C36.0431 142.19 36.4706 141.28 35.3417 139.252L35.3198 139.208C34.5526 138.058 33.6867 136.863 32.7442 135.624C31.6482 134.189 30.4754 132.874 29.226 131.69C29.1712 132.49 28.8862 135.482 27.4395 138.518C25.7407 142.091 21.5102 140.304 22.387 138.649C23.2528 137.005 25.116 134.474 25.653 132.687C26.1901 130.89 26.3545 129.947 25.127 128.281L25.105 128.237C25.105 128.237 25.0941 128.237 25.105 128.216C25.105 128.216 25.0977 128.212 25.0831 128.205C22.2006 126.122 19.1757 124.544 16.2055 123.305C16.2055 123.349 16.2055 123.393 16.2055 123.393C16.2055 123.393 16.5124 125.18 16.0082 127.185C15.5041 129.18 13.1586 128.709 13.4326 127.777C13.7176 126.846 14.4081 125.355 14.5067 124.38C14.5834 123.503 14.6492 123.086 14.0574 122.462C14.0464 122.462 14.0354 122.451 14.0354 122.44C5.37704 119.272 -2.04288 119.053 -2.04288 119.053L-2.07576 119.042Z" fill="#F6C206"/>
<path d="M34.673 192.201C34.673 192.201 33.2702 176.791 25.0283 157.797C13.8819 132.107 2.13281 123.131 2.13281 123.131C2.13281 123.131 14.5286 135.899 24.0418 159.419C31.5933 178.073 32.6235 192.782 32.6235 192.782L34.6621 192.201H34.673Z" fill="#2BA87B"/>
<path d="M493.766 129.3C493.766 129.3 490.237 142.967 490.302 155.297C490.302 157.106 490.149 159.254 489.787 161.632C487.365 163.024 483.595 161.709 481.25 161.786C478.674 161.884 475.901 164.076 478.586 165.972C481.151 167.803 487.256 165.775 489.174 165.074C488.363 169.008 487.069 173.359 485.206 177.667C485.151 177.689 485.096 177.722 485.053 177.754C481.688 179.946 476.186 176.56 472.942 176.176C469.676 175.793 463.933 177.864 466.936 180.779C469.522 183.311 478.641 182.862 482.883 182.511C481.118 185.777 479.025 188.912 476.537 191.75C476.537 191.75 476.529 191.75 476.515 191.75C472.766 194.183 466.201 191.564 462.771 190.347C457.642 188.561 452.041 193.164 456.085 195.477C458.562 196.902 465.588 197.197 470.662 197.23C467.55 199.576 464.02 201.428 460.02 202.601C437.563 209.177 430.275 192.857 430.275 192.857C430.275 192.857 422.416 188.364 421.046 178.039C420.016 170.258 421.813 161.643 430.549 153.336C430.242 158.432 430.055 166.181 431.414 168.888C433.508 173.053 438.418 167.715 436.916 162.498C435.974 159.199 433.968 152.645 435.963 148.886H435.974C438.67 146.946 441.783 145.039 445.388 143.187C446.21 142.759 447.043 142.343 447.876 141.959C447.263 146.244 446.342 155.122 448.698 157.818C451.449 160.975 453.839 155.352 453.641 152.086C453.455 148.809 450.375 143.121 452.764 139.888C452.808 139.833 452.841 139.767 452.885 139.712C457.313 137.86 461.806 136.315 466.103 135.054C465.237 137.071 463.023 142.825 464.656 145.433C466.41 148.206 468.755 145.576 468.996 143.011C469.237 140.468 467.911 136.172 470.081 133.936H470.092C483.255 130.374 493.766 129.278 493.766 129.278V129.3Z" fill="#216C51"/>
<path d="M423.315 198.688C423.315 198.688 437.76 182.5 455.57 164.57C473.38 146.639 485.206 140.315 485.206 140.315C485.206 140.315 472.043 150.19 453.126 170.576C434.637 190.49 428.378 199.094 428.378 199.094L423.315 198.688Z" fill="#216C51"/>
<path d="M22.6611 12.0517C23.516 11.416 24.2613 9.80488 24.6887 8.7308C26.1573 10.2871 27.6698 12.0736 29.0617 14.0026C29.3029 16.611 25.0942 20.5238 24.3051 21.817C23.4721 23.1651 24.9846 25.2914 27.3301 23.9323C29.1494 22.8802 30.9359 19.4716 31.6373 18.003C31.725 18.1454 31.8017 18.2989 31.8894 18.4414C33.106 20.6553 34.0705 23.0117 34.75 25.4229C34.75 25.4996 34.75 25.5763 34.75 25.653C34.9473 29.1602 27.7137 33.5771 26.2779 35.0677C24.8531 36.5582 26.1793 39.6928 29.5549 38.6078C31.736 37.9063 34.3554 35.1006 35.9117 33.2264C35.9775 38.3228 34.5965 43.0356 31.5058 46.2578C25.6093 52.4064 20.0745 50.2034 20.0745 50.2034C20.0745 50.2034 16.8304 56.9 9.52006 57.3822C3.95238 57.7549 -2.70033 50.6638 -3.77441 40.6682C-2.10849 42.4438 0.346546 44.7234 2.36319 45.2824C5.77175 46.225 6.96639 43.0246 5.46487 41.5998C3.97431 40.175 -3.45657 36.076 -3.41273 32.5688C-3.41273 32.5688 -3.41273 32.5469 -3.41273 32.525C-3.41273 32.514 -3.41273 32.503 -3.41273 32.4921C-3.27025 31.8674 -3.12777 31.2317 -2.95241 30.5741C-2.41537 28.5684 -1.71393 26.6175 -0.880974 24.7214C0.00678611 26.3106 1.76039 29.1054 3.44823 29.9932C5.84847 31.2536 7.26231 29.0397 6.37455 27.7464C5.54159 26.5189 1.34391 22.935 1.27815 20.3265C2.48375 18.1126 3.82087 16.0302 5.16895 14.1341C5.57447 15.1205 6.51703 17.2138 7.56919 17.9153C8.97207 18.8688 10.0023 17.5974 9.54198 16.7206C9.11454 15.9206 6.81295 13.4326 6.90063 11.8106C11.0325 6.484 14.9453 2.98776 15.833 2.51648C16.7317 2.03424 19.6252 3.82072 22.9351 6.96624C22.4529 8.47872 20.9623 10.2871 20.6554 10.9557C20.2389 11.8434 21.324 13.071 22.683 12.0517H22.6611Z" fill="#216C51"/>
<path d="M534 195.347H-14V413.462H534V195.347Z" fill="#216C51"/>
<g style="mix-blend-mode:multiply" opacity="0.2">
<path d="M-14 266.334L534 291.553V332.204L-14 380.581V266.334Z" fill="#4A6C8E"/>
</g>
<path d="M190.707 211.473H260H329.293L389 308.669H260H131L190.707 211.473Z" fill="#48597B"/>
<path d="M364.744 305.635L320.627 220.336" stroke="#18203B" stroke-width="2" stroke-linecap="round" stroke-linejoin="round"/>
<path d="M311.578 305.634L287.838 214.507" stroke="#18203B" stroke-width="2" stroke-linecap="round" stroke-linejoin="round"/>
<path d="M155.244 305.635L202.867 216.842" stroke="#18203B" stroke-width="2" stroke-linecap="round" stroke-linejoin="round"/>
<path d="M208.411 305.634L232.152 214.507" stroke="#18203B" stroke-width="2" stroke-linecap="round" stroke-linejoin="round"/>
<path d="M260 305.634V214.397" stroke="#18203B" stroke-width="2" stroke-linecap="round" stroke-linejoin="round"/>
<path d="M362.926 260.071C362.926 268.474 328.383 271.06 307.743 269.964C287.103 268.869 273.508 263.391 259.671 263.391C245.834 263.391 220.462 270.074 199.559 270.205C178.656 270.337 155.923 267.225 155.923 260.017C155.923 252.808 204.346 237.536 259.43 237.536C314.514 237.536 362.937 253.005 362.937 260.082L362.926 260.071Z" fill="#18203B"/>
<path d="M363.2 250.091C361.14 259.381 267.219 239.957 259.671 239.957C252.123 239.957 158.213 259.381 156.153 250.091C154.083 240.8 160.875 230.94 176.235 224.181C177.1 223.798 178.009 223.425 178.973 223.042C195.166 216.578 224.384 209.632 225.961 208.044C227.637 206.346 228.821 204.472 231.034 199.126L259.671 204.045L288.319 199.126C290.532 204.472 291.716 206.346 293.392 208.044C295.068 209.731 327.759 217.422 343.118 224.181C343.896 224.521 344.663 224.882 345.397 225.244C359.146 231.948 365.161 241.271 363.2 250.091Z" fill="#D5EBFA"/>
<g style="mix-blend-mode:multiply" opacity="0.3">
<path d="M363.2 250.091C361.14 259.381 267.219 239.957 259.671 239.957C252.123 239.957 158.213 259.381 156.153 250.091C154.083 240.801 160.875 230.941 176.235 224.181C177.1 223.798 178.009 223.425 178.973 223.042C192.251 223.513 209.649 227.994 218.281 229.188C228.799 230.634 238.407 221.026 238.407 221.026L230.924 214.321C231.789 214.99 243.567 224.072 254.73 227.731C266.003 231.434 286.194 215.614 287.322 214.727C286.939 215.318 282.886 221.409 283.926 225.562C285.011 229.911 317.472 222.834 331.977 223.743C336.14 224.006 340.818 224.4 345.397 225.244C359.146 231.949 365.161 241.272 363.2 250.091Z" fill="#D5EBFA"/>
</g>
<g style="mix-blend-mode:multiply">
<path d="M230.87 214.277C230.87 214.277 239.995 223.042 244.016 228.881C248.037 234.72 251.137 237.404 253.69 237.525C256.242 237.645 237.07 216.961 230.87 214.277Z" fill="#CBE5F8"/>
</g>
<g style="mix-blend-mode:multiply">
<path d="M288.484 214.277C288.484 214.277 279.358 223.042 275.337 228.881C271.317 234.72 268.216 237.404 265.664 237.525C263.111 237.645 282.283 216.961 288.484 214.277Z" fill="#CBE5F8"/>
</g>
<path d="M236.051 234.534L226.378 245.249C226.378 245.249 215.576 240.987 209.539 237.613C203.503 234.227 194.936 229.812 190.751 228.41C186.555 226.997 177.692 226.142 176.531 225.868C175.358 225.595 176.815 220.566 180.518 220.336C184.221 220.106 185.054 221.092 186.117 220.949C187.19 220.807 188.264 219.492 192.252 219.536C192.766 219.547 193.314 219.591 193.895 219.668C197.784 220.205 202.802 222.176 205.595 222.538C208.805 222.965 211.73 220.763 215.094 221.322C217.854 221.782 220.67 227.194 222.751 230.108C223.179 230.733 223.584 231.237 223.957 231.554C226.049 233.384 236.051 234.534 236.051 234.534Z" fill="#D28888"/>
<path d="M236.051 234.534L226.378 245.249C226.378 245.249 215.576 240.987 209.539 237.613C203.503 234.227 194.936 229.812 190.751 228.41C186.555 226.997 177.692 226.142 176.531 225.868C175.358 225.595 176.815 220.566 180.518 220.336C184.221 220.106 185.054 221.092 186.117 220.949C187.19 220.807 188.264 219.492 192.252 219.536C192.766 219.547 193.314 219.591 193.895 219.668C190.203 224.335 195.44 225.365 203.054 229.374C208.488 232.245 217.208 231.248 222.751 230.108C223.179 230.733 223.584 231.237 223.957 231.554C226.049 233.384 236.051 234.534 236.051 234.534Z" fill="#D36E75"/>
<path d="M363.211 250.091C363.112 250.682 362.948 251.263 362.707 251.844C359.431 259.984 342.242 266.633 311.468 265.582C303.471 265.308 293.962 264.037 284.135 262.273C270.035 259.732 255.3 256.16 243.479 253.049C237.07 251.362 231.516 249.806 227.386 248.612C222.554 247.22 219.695 246.344 219.695 246.344C219.695 246.344 219.892 242.345 221.283 238.686C221.743 237.492 222.324 236.331 223.069 235.356C223.102 235.312 223.135 235.279 223.157 235.235C225.501 232.201 229.16 230.503 232.995 230.59C234.079 230.612 235.306 230.645 236.632 230.667H236.643C242.57 230.787 250.622 230.93 258.028 231.028C271.963 231.226 285.099 230.809 293.096 231.598C293.611 231.653 294.148 231.708 294.717 231.773C299.702 232.321 306.648 233.307 314.021 234.468C329.589 236.955 347.051 240.275 351.894 242.115C359.311 244.931 363.769 246.432 363.2 250.091H363.211Z" fill="#D5EBFA"/>
<g style="mix-blend-mode:multiply" opacity="0.3">
<path d="M362.707 251.844C359.431 259.984 342.242 266.634 311.468 265.582C285.767 264.706 244.399 253.52 227.386 248.612C222.554 247.221 219.695 246.344 219.695 246.344C219.695 246.344 219.892 242.346 221.283 238.687C248.957 242.62 341.859 255.361 362.707 251.844Z" fill="#D5EBFA"/>
</g>
<path d="M314.032 234.468L303.164 240.746C300.995 241.995 299.352 243.989 298.53 246.355C297.544 249.192 295.594 251.592 292.987 253.082C290.072 254.747 286.216 257.672 284.135 262.284C266.661 260.082 255.3 256.171 243.479 253.06C243.501 248.776 243.709 244.438 244.125 243.857C244.651 243.112 273.804 236.473 294.728 231.784C299.713 232.332 306.659 233.318 314.032 234.479V234.468Z" fill="#18203B"/>
<path d="M335.757 226.558C334.628 226.821 326.105 227.675 322.074 229.056C318.053 230.436 309.803 234.774 303.997 238.094C298.18 241.413 287.794 245.598 287.794 245.598L278.482 235.07C278.482 235.07 288.112 233.942 290.128 232.145C290.763 231.586 291.508 230.447 292.351 229.132C294.192 226.218 296.427 222.471 298.651 222.088C301.883 221.54 304.698 223.698 307.788 223.293C310.877 222.877 316.782 220.379 320.627 220.335C324.462 220.291 325.503 221.584 326.532 221.715C327.485 221.847 328.241 221.025 331.21 221.102C331.429 221.102 331.66 221.113 331.911 221.124C335.472 221.354 336.885 226.284 335.757 226.558Z" fill="#D28888"/>
<path d="M335.757 226.558C334.628 226.821 326.105 227.676 322.074 229.056C318.053 230.437 309.803 234.775 303.997 238.094C298.18 241.414 287.794 245.599 287.794 245.599L278.482 235.071C278.482 235.071 288.112 233.942 290.128 232.146C290.763 231.587 291.508 230.448 292.351 229.133C297.862 231.16 300.513 236.068 300.513 236.068C300.513 236.068 307.207 227.588 317.998 226.558C326.675 225.726 330.969 225.715 331.21 221.103C331.429 221.103 331.66 221.114 331.911 221.124C335.472 221.355 336.885 226.284 335.757 226.558Z" fill="#D36E75"/>
<path d="M294.225 246.671C294.225 246.671 291.464 247.536 286.819 248.906C270.452 253.726 230.64 264.714 205.914 265.58C174.198 266.686 157.326 257.867 155.968 249.114C155.88 248.566 155.913 248.095 156.055 247.679C156.844 245.378 160.952 244.863 167 242.519C174.121 239.758 209.54 233.612 223.585 232.188C231.275 231.41 243.918 231.815 257.327 231.629C264.459 231.53 272.205 231.388 277.902 231.267H277.912C282.941 231.169 286.37 231.081 286.37 231.081C286.37 231.081 288.057 232.012 290.971 235.88C291.782 236.964 292.396 238.279 292.856 239.615C294.05 243.077 294.225 246.671 294.225 246.671Z" fill="#D5EBFA"/>
<path d="M294.225 246.671C294.225 246.671 291.475 247.536 286.83 248.906C286.019 240.711 280.586 234.072 277.923 231.257C282.952 231.158 286.381 231.07 286.381 231.07C286.381 231.07 288.068 232.002 290.982 235.88C293.896 239.758 294.236 246.671 294.236 246.671H294.225Z" fill="#CBE5F8"/>
<g style="mix-blend-mode:multiply" opacity="0.3">
<path d="M294.225 246.67C294.225 246.67 291.464 247.536 286.819 248.905C270.452 253.726 230.64 264.714 205.914 265.58C174.198 266.686 157.326 257.867 155.968 249.114C155.88 248.566 155.913 248.095 156.055 247.678C181.614 262.041 274.155 244.666 292.856 239.615C294.05 243.077 294.225 246.67 294.225 246.67Z" fill="#D5EBFA"/>
</g>
<path d="M181.527 225.966C180.475 227.785 179.401 233.164 178.58 235.267C177.758 237.36 172.412 242.005 170.582 243.495C170.582 243.506 170.56 243.506 170.549 243.517C168.271 245.269 159.473 241.358 156.669 238.904C153.864 236.439 152.068 233.931 152.812 231.937C153.568 229.954 159.703 224.991 160.755 224.323C162.596 223.15 167.679 220.039 168.555 219.951C169.421 219.864 172.488 218.155 172.488 218.155C172.488 218.155 175.457 217.837 178.196 220.028C179.248 220.872 179.982 221.934 180.486 222.931C181.297 224.542 181.527 225.966 181.527 225.966Z" fill="#DD9091"/>
<path d="M181.527 225.966C180.475 227.785 179.401 233.164 178.58 235.267C177.758 237.36 172.412 242.005 170.582 243.495C170.582 243.506 170.56 243.506 170.549 243.517C174.055 238.872 178.974 230.173 178.843 226.12C178.81 225.265 179.423 224.181 180.486 222.932C181.297 224.542 181.527 225.966 181.527 225.966Z" fill="#D36E75"/>
<path d="M172.28 224.269C172.28 224.269 169.585 229.998 169.902 233.701C170.22 237.404 170.341 240.384 167.196 240.395C164.052 240.406 158.092 233.909 157.413 231.203C156.734 228.497 158.991 227.402 160.557 227.194C162.135 226.985 167.207 226.536 169.146 225.868C171.086 225.189 172.28 224.269 172.28 224.269Z" fill="#D36E75"/>
<path d="M169.618 219.59C167.832 219.502 163.319 218.933 161.215 219.59C159.112 220.247 157.151 221.255 155.781 221.803C154.412 222.351 152.177 222.121 151.903 222.712C151.629 223.304 152.834 225.177 154.609 225.495C156.384 225.813 159.802 224.586 160.941 224.487C162.081 224.399 162.355 226.492 165.915 226.536C169.476 226.58 174.219 222.241 174.219 222.241C174.219 222.241 172.959 219.732 169.618 219.568V219.59Z" fill="#DD9091"/>
<path d="M153.722 224.75C152.834 223.512 151.005 223.512 150.544 224.016C150.084 224.52 150.533 231.444 150.994 233.449C151.454 235.454 152.275 237.645 153.776 238.565C155.277 239.485 161.215 235.739 161.215 235.739L158.564 232.726C158.564 232.726 156.625 233.219 155.737 233.274C154.85 233.317 154.477 228.848 154.335 227.752C154.193 226.657 154.16 225.397 153.711 224.761L153.722 224.75Z" fill="#DD9091"/>
<path d="M157.983 227.664C157.139 226.404 155.299 226.35 154.828 226.843C154.357 227.336 154.685 235.147 155.091 237.174C155.496 239.189 156.252 241.402 157.731 242.366C159.21 243.32 162.957 239.923 162.957 239.923L161.357 236.933C161.357 236.933 160.744 237.108 159.856 237.13C158.969 237.152 158.717 232.671 158.608 231.575C158.498 230.48 158.421 228.333 157.983 227.686V227.664Z" fill="#DD9091"/>
<path d="M162.136 231.346C161.193 230.24 159.254 230.229 158.772 230.689C158.29 231.149 158.871 238.138 159.353 239.935C159.835 241.732 160.711 243.704 162.311 244.514C163.91 245.336 167.778 242.192 167.778 242.192L165.992 239.552C165.992 239.552 165.346 239.727 164.403 239.76C163.461 239.804 163.067 235.794 162.924 234.808C162.782 233.822 162.629 231.905 162.147 231.335L162.136 231.346Z" fill="#DD9091"/>
<path d="M171.951 242.333C169.694 244.393 168.04 245.434 165.981 245.521C163.921 245.609 163.822 241.676 163.779 240.767C163.735 239.858 164.239 235.651 164.644 235.333C165.049 235.015 167.262 235.793 167.646 236.746C168.029 237.71 167.613 240.712 167.974 241.085C168.336 241.446 169.705 239.715 169.705 239.715C169.705 239.715 173.255 241.128 171.94 242.333H171.951Z" fill="#DD9091"/>
<path d="M233.017 139.714C232.644 142.617 232.075 145.564 231.242 148.369C229.851 153.08 228.065 159.335 226.159 165.799C222.598 177.883 218.578 190.712 215.718 195.477C211.336 202.774 181.526 225.966 181.526 225.966L179.511 224.224L172.488 218.155C172.488 218.155 195.911 192.278 199.198 186.527C200.808 183.711 203.832 171.967 206.921 159.894C210.131 147.317 213.396 134.379 215.171 130.84C218.643 123.895 222.478 122.175 232.064 118.461C232.984 118.11 234.452 128.605 233.017 139.714Z" fill="#DD9091"/>
<path d="M233.017 139.714C232.644 142.617 232.075 145.564 231.242 148.369C229.851 153.08 228.065 159.335 226.159 165.799C222.598 177.883 218.578 190.712 215.718 195.477C211.336 202.774 181.527 225.966 181.527 225.966L179.511 224.224C183.356 218.122 202.638 206.323 208.411 196.2C214.842 184.894 230.322 133.93 230.322 133.93C230.322 133.93 231.582 136 233.017 139.714Z" fill="#D36E75"/>
<path d="M233.017 139.714C232.645 142.617 232.075 145.564 231.242 148.369C230.443 151.053 229.522 154.252 228.525 157.703C227.77 160.289 226.981 163.027 226.159 165.799C224.91 165.536 222.883 165.098 220.55 164.528C216.244 163.466 210.887 161.965 207.458 160.299C207.25 160.201 207.064 160.058 206.921 159.894C207.382 158.097 207.842 156.301 208.291 154.526C208.291 154.515 208.302 154.493 208.313 154.471C211.041 143.79 213.648 133.864 215.171 130.84C218.644 123.895 222.478 122.175 232.064 118.461C232.349 118.351 232.689 119.293 232.984 120.97C233.62 124.694 234.003 132.056 233.017 139.714Z" fill="#F6C206"/>
<g style="mix-blend-mode:multiply" opacity="0.2">
<path d="M233.017 139.714C232.645 142.617 232.075 145.564 231.242 148.369C229.851 153.08 228.065 159.335 226.159 165.799C224.91 165.536 222.883 165.098 220.55 164.528C225.754 148.971 230.322 133.93 230.322 133.93C230.322 133.93 231.582 136 233.017 139.714Z" fill="#4A6C8E"/>
</g>
<path d="M337.838 225.966C338.89 227.785 339.963 233.164 340.785 235.267C341.607 237.36 346.953 242.005 348.782 243.495C348.782 243.506 348.804 243.506 348.815 243.517C351.094 245.269 359.891 241.358 362.696 238.904C365.5 236.439 367.297 233.931 366.552 231.937C365.796 229.954 359.661 224.991 358.609 224.323C356.769 223.15 351.686 220.039 350.809 219.951C349.944 219.864 346.876 218.155 346.876 218.155C346.876 218.155 343.907 217.837 341.168 220.028C340.117 220.872 339.383 221.934 338.879 222.931C338.068 224.542 337.838 225.966 337.838 225.966Z" fill="#DD9091"/>
<path d="M337.838 225.966C338.89 227.785 339.963 233.164 340.785 235.267C341.607 237.36 346.953 242.005 348.782 243.495C348.782 243.506 348.804 243.506 348.815 243.517C345.309 238.872 340.391 230.173 340.522 226.12C340.555 225.265 339.941 224.181 338.879 222.932C338.068 224.542 337.838 225.966 337.838 225.966Z" fill="#D36E75"/>
<path d="M347.084 224.269C347.084 224.269 349.779 229.998 349.462 233.701C349.144 237.404 349.024 240.384 352.168 240.395C355.312 240.406 361.272 233.909 361.951 231.203C362.63 228.497 360.373 227.402 358.807 227.194C357.24 226.985 352.157 226.536 350.218 225.868C348.279 225.189 347.084 224.269 347.084 224.269Z" fill="#D36E75"/>
<path d="M349.746 219.59C351.532 219.502 356.046 218.933 358.149 219.59C360.253 220.247 362.214 221.255 363.583 221.803C364.952 222.351 367.187 222.121 367.461 222.712C367.735 223.304 366.53 225.177 364.755 225.495C362.98 225.813 359.562 224.586 358.423 224.487C357.284 224.399 357.01 226.492 353.449 226.536C349.889 226.58 345.145 222.241 345.145 222.241C345.145 222.241 346.405 219.732 349.746 219.568V219.59Z" fill="#DD9091"/>
<path d="M365.643 224.75C366.53 223.512 368.36 223.512 368.82 224.016C369.28 224.52 368.831 231.444 368.371 233.449C367.911 235.454 367.089 237.645 365.588 238.565C364.087 239.485 358.149 235.739 358.149 235.739L360.801 232.726C360.801 232.726 362.74 233.219 363.627 233.274C364.515 233.328 364.887 228.848 365.029 227.752C365.172 226.657 365.205 225.397 365.654 224.761L365.643 224.75Z" fill="#DD9091"/>
<path d="M361.381 227.664C362.225 226.404 364.066 226.35 364.537 226.843C365.008 227.336 364.679 235.147 364.274 237.174C363.868 239.189 363.112 241.402 361.633 242.366C360.154 243.32 356.408 239.923 356.408 239.923L358.007 236.933C358.007 236.933 358.621 237.108 359.508 237.13C360.395 237.152 360.647 232.671 360.757 231.575C360.867 230.48 360.943 228.333 361.381 227.686V227.664Z" fill="#DD9091"/>
<path d="M357.229 231.346C358.171 230.24 360.11 230.229 360.592 230.689C361.074 231.138 360.494 238.138 360.012 239.935C359.53 241.732 358.653 243.704 357.054 244.514C355.454 245.336 351.587 242.192 351.587 242.192L353.373 239.552C353.373 239.552 354.019 239.727 354.961 239.76C355.903 239.804 356.298 235.794 356.44 234.808C356.583 233.822 356.736 231.905 357.218 231.335L357.229 231.346Z" fill="#DD9091"/>
<path d="M347.413 242.333C349.67 244.393 351.324 245.434 353.384 245.521C355.443 245.609 355.542 241.676 355.586 240.767C355.63 239.858 355.126 235.651 354.72 235.333C354.315 235.015 352.102 235.793 351.718 236.746C351.335 237.71 351.751 240.712 351.39 241.085C351.028 241.457 349.659 239.715 349.659 239.715C349.659 239.715 346.109 241.128 347.424 242.333H347.413Z" fill="#DD9091"/>
<path d="M346.876 218.155L345.507 219.339L339.854 224.225L337.838 225.967C337.838 225.967 308.028 202.774 303.646 195.478C300.787 190.712 296.766 177.883 293.206 165.8C292.384 163.017 291.584 160.278 290.828 157.682C289.831 154.242 288.911 151.054 288.122 148.369C287.29 145.565 286.72 142.618 286.347 139.715C285.361 132.057 285.745 124.695 286.38 120.97C286.654 119.381 286.983 118.45 287.257 118.45C287.268 118.45 287.279 118.45 287.29 118.461H287.301C296.887 122.175 300.721 123.895 304.194 130.841C305.969 134.379 309.233 147.318 312.443 159.895C315.533 171.967 318.556 183.712 320.167 186.527C323.453 192.279 346.876 218.155 346.876 218.155Z" fill="#DD9091"/>
<path d="M286.348 139.714C286.72 142.617 287.29 145.564 288.122 148.369C289.514 153.08 291.3 159.335 293.206 165.799C296.766 177.883 300.787 190.712 303.646 195.477C308.028 202.774 337.838 225.966 337.838 225.966L339.854 224.224C336.009 218.122 316.727 206.323 310.954 196.2C304.523 184.894 289.043 133.93 289.043 133.93C289.043 133.93 287.783 136 286.348 139.714Z" fill="#D36E75"/>
<path d="M286.348 139.714C286.72 142.617 287.29 145.564 288.122 148.369C289.514 153.08 291.299 159.335 293.206 165.799C294.455 165.536 296.481 165.098 298.815 164.528C303.12 163.466 308.477 161.965 311.907 160.299C312.115 160.201 312.301 160.058 312.443 159.894C309.233 147.317 305.969 134.379 304.194 130.84C300.721 123.895 296.887 122.175 287.301 118.461C286.38 118.11 284.912 128.605 286.348 139.714Z" fill="#F6C206"/>
<g style="mix-blend-mode:multiply" opacity="0.2">
<path d="M286.348 139.714C286.72 142.617 287.29 145.564 288.122 148.369C289.514 153.08 291.3 159.335 293.206 165.799C294.455 165.536 296.481 165.098 298.815 164.528C293.611 148.971 289.043 133.93 289.043 133.93C289.043 133.93 287.783 136 286.348 139.714Z" fill="#4A6C8E"/>
</g>
<path d="M292.494 205.063C292.494 206.882 271.185 212.327 259.671 211.363C242.405 209.895 227.857 204.669 228.503 202.96C229.555 200.155 232.885 195.105 233.981 189.627C234.759 185.738 234.704 177.138 234.123 171.715C233.882 169.491 233.553 167.815 233.159 167.213C231.801 165.175 229.73 162.074 228.525 157.703C228.514 157.681 228.514 157.648 228.503 157.627C227.879 155.37 227.835 151.579 228.087 147.548C228.317 143.878 228.799 140.021 229.325 136.954C230.081 132.506 230.442 125.856 231.056 121.835C231.319 120.028 231.647 118.757 232.064 118.461C233.433 117.508 245.341 113.673 250.644 111.285H268.709C273.968 113.652 285.745 117.453 287.257 118.45C287.268 118.45 287.279 118.45 287.29 118.461H287.301C287.717 118.779 288.035 120.039 288.298 121.824C288.911 125.834 289.273 132.506 290.029 136.954C290.544 139.955 290.993 143.823 291.212 147.482C291.475 151.656 291.431 155.556 290.85 157.627C290.85 157.648 290.839 157.659 290.828 157.681C289.777 161.417 287.114 164.452 286.194 167.213C285.92 168.078 285.592 170.554 285.329 173.621C284.891 178.979 284.671 186.144 285.373 189.627C286.468 195.105 292.494 203.234 292.494 205.063Z" fill="#F6C206"/>
<path opacity="0.7" d="M346.877 218.155L345.507 219.338C340.731 214.124 322.786 194.415 318.896 188.762C314.405 182.221 311.743 175.276 308.072 153.628C304.391 131.98 300.919 127.488 293.162 124.015C291.869 123.435 290.204 122.679 288.298 121.824C287.684 121.55 287.038 121.266 286.381 120.97C276.729 116.73 262.432 111.022 255.585 112.786C250.71 114.035 241.19 117.354 232.984 120.97C232.327 121.255 231.691 121.539 231.056 121.835C225.293 124.475 220.462 127.203 218.819 129.329C216.902 131.816 212.476 143.144 208.312 154.471C211.04 143.79 213.648 133.864 215.171 130.841C218.643 123.895 222.478 122.175 232.064 118.461C233.433 117.508 245.342 113.673 250.644 111.285H268.71C273.968 113.652 285.745 117.453 287.257 118.45C287.268 118.45 287.279 118.45 287.29 118.461H287.301C296.887 122.175 300.721 123.895 304.194 130.841C305.969 134.379 309.234 147.318 312.444 159.894C315.533 171.967 318.557 183.711 320.167 186.527C323.454 192.279 346.877 218.155 346.877 218.155Z" fill="white"/>
<g style="mix-blend-mode:multiply" opacity="0.2">
<path d="M290.85 157.616C289.799 161.374 287.114 164.431 286.194 167.202C285.92 168.068 285.592 170.544 285.329 173.611C280.245 171.234 269.761 167.027 259.671 167.027C249.581 167.027 239.634 169.919 234.123 171.705C233.882 169.481 233.553 167.805 233.159 167.202C231.79 165.154 229.708 162.031 228.503 157.616C227.879 155.36 227.835 151.569 228.087 147.537C232.962 150.473 243.468 155.261 260.219 155.261C276.06 155.261 286.15 150.649 291.212 147.472C291.475 151.646 291.431 155.546 290.85 157.616Z" fill="#4A6C8E"/>
</g>
<path d="M275.13 114.43C275.13 115.12 261.819 124.98 260 124.98C257.809 124.98 244.86 115.12 244.86 114.43C244.86 113.74 250.151 112.655 250.644 111.286C250.885 110.596 251.291 107.035 251.619 103.639C251.959 100.188 252.244 96.9014 252.244 96.9014L260 101.974L267.746 96.9014C267.746 96.9014 268.031 100.298 268.381 103.814C268.721 107.156 269.104 110.607 269.345 111.286C269.838 112.655 275.13 113.751 275.13 114.43Z" fill="#DD9091"/>
<path d="M268.381 103.814C266.069 105.447 263.276 106.728 260.219 106.728C260.186 106.728 260.153 106.728 260.121 106.728C255.366 106.685 251.751 102.39 252.178 97.6573C252.222 97.1862 252.244 96.9014 252.244 96.9014L260 101.974L267.745 96.9014C267.745 96.9014 268.03 100.298 268.381 103.814Z" fill="#D36E75"/>
<path d="M243.26 74.0155C242.482 72.5146 241.102 71.5834 238.451 72.2846C235.799 72.9857 237.53 82.1554 239.962 84.0726C241.858 85.5625 243.742 85.3106 244.454 84.719C245.155 84.1274 244.038 75.5055 243.26 74.0155Z" fill="#D36E75"/>
<path d="M276.729 74.0155C277.507 72.5146 278.887 71.5834 281.538 72.2846C284.189 72.9857 282.459 82.1554 280.026 84.0726C278.131 85.5625 276.247 85.3106 275.535 84.719C274.823 84.1274 275.951 75.5055 276.729 74.0155Z" fill="#D36E75"/>
<path d="M260 46.2871C284.376 46.2871 276.707 85.4527 274.516 90.9304C272.325 96.4081 263.835 102.981 260 102.981C256.166 102.981 247.675 96.4081 245.484 90.9304C243.293 85.4527 235.624 46.2871 260 46.2871Z" fill="#DD9091"/>
<path d="M272.916 77.7412C272.916 77.7412 271.087 79.4393 268.173 79.4393C265.258 79.4393 263.747 77.9713 263.747 77.9713L272.916 77.7412Z" fill="#191B24"/>
<path d="M264.404 71.6936C263.911 71.8469 263.966 72.4166 264.448 72.6138C264.93 72.811 266.945 72.6796 269.509 72.8877C272.073 73.0959 273.716 74.2243 274.023 74.1914C274.329 74.1585 273.858 72.2742 270.736 71.5402C267.625 70.8062 264.831 71.5512 264.382 71.6936H264.404Z" fill="#80455D"/>
<path d="M247.072 77.7402C247.072 77.7402 248.902 79.4383 251.816 79.4383C254.73 79.4383 256.242 77.9703 256.242 77.9703L247.062 77.7402H247.072Z" fill="#191B24"/>
<path d="M255.596 71.6924C256.089 71.8458 256.034 72.4155 255.552 72.6127C255.07 72.8099 253.054 72.6784 250.491 72.8866C247.927 73.0947 246.284 74.2231 245.977 74.1903C245.67 74.1574 246.821 71.9444 249.943 71.2213C253.054 70.4873 255.169 71.561 255.607 71.6924H255.596Z" fill="#80455D"/>
<path d="M259.671 79.4385C259.671 79.4385 257.524 86.0994 257.568 87.3264C257.611 88.5534 259.671 89.9338 259.671 89.9338C259.671 89.9338 258.795 88.5643 258.937 86.8334C259.079 85.1024 259.671 79.4385 259.671 79.4385Z" fill="#80455D"/>
<path d="M265.139 91.9379C264.47 91.8393 254.479 91.653 254.15 91.8064C253.942 91.8941 256.155 95.1369 259.672 95.1369C263.188 95.1369 265.697 92.0255 265.139 91.9379Z" fill="white"/>
<path d="M280.607 62.4024C280.574 62.9721 280.531 63.5527 280.465 64.1224C280.246 66.3683 279.819 68.5813 279.337 70.4108C278.657 73.062 277.857 74.9135 277.397 74.9573C276.532 75.0559 277.145 73.3688 276.926 71.8131C276.784 70.6847 276.926 66.0835 273.848 64.4401C271.854 63.3775 269.575 61.4164 270.035 57.5711C269.937 57.7354 269.838 57.8997 269.729 58.075C267.505 61.6574 263.462 62.6325 257.48 63.498C252.156 64.2758 248.541 63.6185 247.073 64.6483C245.616 65.6671 243.699 74.8587 242.734 75.3408C241.781 75.8228 236.994 64.0238 239.36 56.0812C239.36 56.0592 239.371 56.0483 239.382 56.0264C239.656 55.0733 240.083 54.164 240.598 53.3094C244.378 47.021 253.701 43.2743 260.723 43.0113C268.359 42.7155 272.752 48.2919 272.982 49.9899C275.568 48.7301 280.947 55.8073 280.607 62.4024Z" fill="#191B24"/>
<g style="mix-blend-mode:multiply" opacity="0.2">
<path d="M280.465 64.1226C279.917 69.6222 278.175 74.8808 277.397 74.9575C276.532 75.0561 277.145 73.3689 276.926 71.8133C276.784 70.6849 276.926 66.0836 273.848 64.4403C271.854 63.3776 269.575 61.4166 270.035 57.5712C269.937 57.7356 269.838 57.8999 269.729 58.0752C267.505 61.6576 263.462 62.6326 257.48 63.4981C252.156 64.2759 248.541 63.6186 247.073 64.6484C245.616 65.6673 243.699 74.8589 242.734 75.3409C241.781 75.8229 236.994 64.024 239.36 56.0813C239.645 55.1063 240.072 54.186 240.598 53.3096C244.312 62.7312 260.219 54.3065 260.219 54.3065L256.253 59.1707C256.253 59.1707 267.165 54.3613 269.97 53.8793C272.763 53.3863 273.705 56.388 275.316 61.8548C276.269 65.0538 278.635 65.2181 280.465 64.1226Z" fill="#4A6C8E"/>
</g>
<path d="M280.608 62.4024C280.575 62.9721 280.531 63.5527 280.465 64.1224C280.246 66.3683 279.819 68.5813 279.337 70.4108C281.878 55.128 272.216 52.2248 272.216 52.2248C272.216 52.2248 270.32 44.2055 256.736 46.4294C247.489 47.9522 241.957 52.9698 239.382 56.0264C239.656 55.0733 240.083 54.164 240.598 53.3094C244.378 47.021 253.701 43.2743 260.723 43.0113C268.359 42.7155 272.752 48.2919 272.983 49.9899C275.568 48.7301 280.947 55.8073 280.608 62.4024Z" fill="white"/>
</g>
</svg>
