<svg width="520" height="294" viewBox="0 0 520 294" fill="none" xmlns="http://www.w3.org/2000/svg">
<mask id="mask0_2714_3835" style="mask-type:alpha" maskUnits="userSpaceOnUse" x="0" y="0" width="520" height="294">
<rect width="520" height="294" rx="9" fill="white"/>
</mask>
<g mask="url(#mask0_2714_3835)">
<rect width="520" height="294" rx="9" fill="#7944D1"/>
<g style="mix-blend-mode:multiply" opacity="0.3">
<path d="M464.177 158.443C462.325 171.321 458.796 185.065 448.691 193.252C435.846 203.653 417.422 201.538 400.916 200.749C376.026 199.565 351.158 202.645 326.366 205.22C260.694 212.059 194.649 215.358 128.626 215.106C119.387 215.073 109.72 214.865 101.599 210.459C95.2638 207.018 90.4852 201.319 86.2327 195.499C60.9371 160.854 49.1551 116.609 53.8788 73.9743C54.2295 70.8178 57.9779 66.8284 59.4903 69.6232C58.6793 75.8485 59.6328 82.282 62.1646 88.025C62.9647 89.8444 65.4526 90.1732 66.6143 88.573C70.2421 83.5753 69.2228 75.4649 68.346 68.8122C66.5376 55.2437 67.798 41.2806 71.9628 28.2382C72.73 25.827 70.001 23.8762 67.9624 25.3777C64.9703 27.5916 61.8358 29.5973 58.5697 31.3947C56.8161 32.3592 54.6679 31.0221 54.7447 29.0164C56.1256 -7.42561 71.4039 -43.21 96.8639 -69.3277C102.421 -75.0269 108.624 -80.5507 112.416 -87.4226C113.479 -89.3406 111.791 -91.6313 109.632 -91.1929C106.125 -90.4914 102.618 -89.79 99.1107 -89.0886C96.7434 -88.6173 95.0555 -91.3682 96.579 -93.2314C110.969 -110.866 145.987 -131.712 151.006 -134.649C151.401 -134.879 151.85 -135 152.311 -135H359.082C359.323 -135 359.564 -134.967 359.805 -134.901C391.052 -126.035 421.116 -111.337 439.978 -85.6033C440.876 -84.3758 440.504 -82.6002 439.178 -81.855C433.917 -78.9177 426.333 -81.4604 420.699 -84.6826C417.06 -86.765 413.038 -89.0447 409.016 -90.075C406.144 -90.8093 404.566 -86.8418 407.12 -85.3402C423.899 -75.4653 438.882 -62.3133 448.921 -45.7089C459.64 -27.9646 464.221 -6.02272 459.18 13.9902C458.686 15.9302 456.297 16.6316 454.861 15.2397C451.245 11.7215 447.617 8.21431 444 4.69615C441.183 1.95615 436.755 -0.904404 433.741 1.62737C431.243 3.73167 432.141 7.68823 433.139 10.8009C440.8 34.7485 441.172 60.9648 434.257 85.1316C433.73 86.951 435.342 88.7594 437.205 88.3757C442.115 87.3674 446.236 82.271 448.811 77.4925C451.475 72.5714 454.522 66.8722 459.289 64.6035C460.889 63.8363 462.785 64.8227 463.016 66.5873C466.994 97.0561 468.594 128.04 464.199 158.443H464.177Z" fill="#4A6C8F"/>
</g>
<path d="M362.509 127.964C362.509 127.964 361.04 130.825 359.736 135.329C358.969 137.992 358.815 141.401 358.103 145.697V145.719C357.04 147.035 356.349 146.98 354.76 146.969C353.127 146.947 350.573 146.004 348.973 145.664C347.373 145.336 346.913 149.303 350.31 149.873C353.697 150.443 356.634 149.687 356.634 149.687C356.634 149.687 356.919 149.632 357.347 149.533C356.886 151.55 356.262 153.731 355.407 156.098C354.924 157.392 354.365 158.806 353.708 160.307C351.658 161.765 350.76 161.414 348.6 160.734C346.441 160.055 343.449 157.753 341.455 156.657C339.482 155.583 337.235 160.658 341.52 162.784C345.795 164.899 350.003 165.097 350.003 165.097C350.003 165.097 350.562 165.151 351.34 165.184C350.069 167.585 348.579 170.05 346.869 172.451C344.348 174.248 343.219 173.799 340.545 172.944C337.849 172.1 334.111 169.218 331.634 167.869C329.168 166.521 326.374 172.845 331.711 175.498C336.347 177.81 340.928 178.281 342.024 178.369C338.495 182.128 334.32 185.329 329.497 187.291C315.578 192.946 308.816 180.397 308.816 180.397L306.306 177.744C306.306 177.744 298.93 171.103 297.088 164.439C295.806 159.792 295.828 151.879 304.771 142.486C304.684 144.47 304.739 147.155 305.352 150.005C306.613 155.835 313.441 154.674 312.739 151.956C312.027 149.227 310.164 144.886 309.988 142.07C309.824 139.352 309.692 138.157 311.775 136.272L311.83 136.228C313.167 135.22 314.624 134.189 316.192 133.148C318.011 131.943 319.874 130.901 321.77 130.036C321.518 130.967 320.653 134.496 321.113 138.551C321.639 143.308 327.185 142.935 326.845 140.711C326.505 138.486 325.376 134.858 325.475 132.6C325.563 130.331 325.76 129.203 327.809 127.778L327.864 127.734C327.864 127.734 327.886 127.734 327.886 127.712C327.886 127.712 327.897 127.712 327.919 127.712C332.04 126.474 336.117 125.86 340.008 125.63C339.986 125.684 339.964 125.717 339.964 125.717C339.964 125.717 338.912 127.635 338.693 130.123C338.473 132.611 341.345 132.995 341.4 131.822C341.444 130.638 341.246 128.666 341.52 127.515C341.783 126.474 341.871 125.98 342.792 125.498C342.814 125.498 342.825 125.498 342.836 125.476C353.982 125.279 362.553 127.964 362.553 127.964H362.509Z" fill="#40267A"/>
<path d="M291.554 197.045C291.554 197.045 299.259 179.98 316.181 161.534C339.076 136.578 356.064 130.967 356.064 130.967C356.064 130.967 336.84 140.655 316.663 163.77C300.651 182.106 293.658 198.513 293.658 198.513L291.554 197.045Z" fill="#7944D1"/>
<path d="M247.286 127.71C247.286 127.71 247.856 130.308 247.944 134.188C247.999 136.478 247.396 139.229 247.056 142.824C247.626 144.118 248.185 144.216 249.467 144.545C250.771 144.874 253.018 144.655 254.366 144.731C255.714 144.797 255.243 148.074 252.404 147.811C249.577 147.548 247.396 146.32 247.396 146.32C247.396 146.32 247.177 146.211 246.859 146.046C246.804 147.756 246.837 149.63 247.012 151.702C247.122 152.842 247.275 154.091 247.483 155.417C248.81 157.017 249.599 156.93 251.473 156.842C253.347 156.754 256.23 155.549 258.038 155.099C259.846 154.661 260.559 159.188 256.69 159.977C252.821 160.766 249.423 160.031 249.423 160.031C249.423 160.031 248.963 159.955 248.338 159.812C248.842 161.993 249.511 164.284 250.377 166.564C252.01 168.525 253.007 168.416 255.331 168.306C257.665 168.197 261.26 166.695 263.518 166.136C265.776 165.577 266.663 171.233 261.841 172.219C257.643 173.085 253.884 172.493 252.985 172.329C255.013 176.077 257.676 179.518 261.107 182.105C271.025 189.569 279.092 180.976 279.092 180.976L281.657 179.387C281.657 179.387 288.956 175.638 291.839 170.706C293.855 167.265 295.51 160.941 290.348 151.537C289.997 153.149 289.383 155.275 288.287 157.423C286.052 161.818 280.835 159.44 281.975 157.423C283.114 155.395 285.526 152.327 286.26 150.113C286.972 147.975 287.323 147.044 286.052 145.104L286.019 145.06C285.164 143.964 284.21 142.835 283.18 141.673C281.975 140.325 280.714 139.098 279.388 138.002C279.388 138.802 279.333 141.805 278.106 144.95C276.681 148.633 272.33 147.175 273.075 145.455C273.809 143.745 275.486 141.093 275.892 139.273C276.297 137.443 276.385 136.489 275.048 134.922L275.015 134.878C275.015 134.878 275.004 134.878 275.004 134.856C275.004 134.856 274.997 134.853 274.982 134.845C271.957 132.982 268.823 131.634 265.765 130.615C265.765 130.659 265.776 130.692 265.776 130.692C265.776 130.692 266.214 132.456 265.863 134.484C265.513 136.511 263.134 136.215 263.332 135.273C263.54 134.319 264.121 132.785 264.143 131.809C264.143 130.922 264.186 130.505 263.562 129.924C263.551 129.924 263.54 129.913 263.54 129.902C254.673 127.382 247.253 127.721 247.253 127.721L247.286 127.71Z" fill="#40267A"/>
<path d="M289.351 197.942C289.351 197.942 286.808 182.675 277.185 164.35C264.176 139.558 251.78 131.47 251.78 131.47C251.78 131.47 265.096 143.285 276.319 166.027C285.23 184.067 287.345 198.665 287.345 198.665L289.34 197.942H289.351Z" fill="#40267A"/>
<path d="M160.746 136.16C160.746 136.16 168.846 150.89 172.408 165.127C172.934 167.21 173.745 169.643 174.863 172.284C178.063 173.183 182.03 170.541 184.759 169.95C187.762 169.303 191.598 171.013 189.067 173.994C186.645 176.865 179.005 176.328 176.594 176.076C178.699 180.373 181.471 185.02 184.88 189.437C184.946 189.447 185.022 189.469 185.088 189.491C189.615 191.026 194.963 185.502 198.602 184.099C202.252 182.685 209.485 183.398 206.888 187.639C204.652 191.333 193.999 193.492 189.001 194.336C192.004 197.58 195.347 200.583 199.04 203.126H199.073C204.115 204.824 210.91 199.859 214.516 197.448C219.908 193.875 227.723 197.536 223.744 201.405C221.311 203.783 213.288 206.194 207.447 207.729C211.732 209.515 216.346 210.611 221.3 210.787C249.149 211.751 252.744 190.763 252.744 190.763C252.744 190.763 260.482 183.266 259.013 170.947C257.907 161.664 253.292 152.249 240.765 145.246C242.617 151.033 245.116 159.921 244.36 163.439C243.176 168.854 235.932 164.163 236.129 157.696C236.239 153.608 236.622 145.454 233.214 141.717H233.203C229.531 140.281 225.366 138.999 220.653 137.914C219.579 137.661 218.494 137.431 217.42 137.234C219.393 142.002 223.076 151.964 221.147 155.778C218.911 160.228 214.483 154.452 213.76 150.627C213.014 146.791 214.878 139.327 211.173 136.302C211.107 136.248 211.052 136.193 210.976 136.138C205.32 135.305 199.687 134.856 194.36 134.658C195.95 136.73 200.202 142.714 199.084 146.21C197.879 149.926 194.404 147.58 193.363 144.687C192.344 141.826 192.607 136.478 189.439 134.527H189.428C173.197 134.308 160.746 136.149 160.746 136.149V136.16Z" fill="#7944D1"/>
<path d="M262.477 195.432C262.477 195.432 241.039 181.019 215.195 165.588C189.351 150.156 173.854 146.342 173.854 146.342C173.854 146.342 191.949 153.849 219.787 171.791C246.99 189.316 256.755 197.393 256.755 197.393L262.477 195.432Z" fill="#40267A"/>
<path d="M9.10342 41.9263C9.10342 41.9263 3.96318 10.6246 18.9565 -28.5245C33.9497 -67.6736 56.2424 -77.5596 56.2424 -77.5596C56.2424 -77.5596 32.3605 -63.8157 18.4961 -18.3865C7.26214 18.4172 12.7093 41.3783 12.7093 41.3783L9.10342 41.9263Z" fill="#7944D1"/>
<path d="M494.982 -12.115C494.982 -12.115 495.585 -2.02086 498.347 6.36354C498.753 7.59106 499.114 9.09259 499.388 10.7914C498.051 12.2819 495.18 12.2052 493.601 12.7751C491.87 13.4108 490.467 15.5151 492.703 16.2166C494.851 16.9071 498.566 14.178 499.717 13.2793C500.024 16.1399 500.101 19.395 499.783 22.7378C499.75 22.7707 499.717 22.7926 499.695 22.8364C497.887 25.0723 493.393 23.9763 491.091 24.4256C488.779 24.875 485.327 27.5602 488.012 28.8863C490.335 30.0481 496.451 27.7355 499.268 26.5519C498.785 29.1603 498.04 31.7688 496.977 34.2458C496.977 34.2458 496.973 34.2458 496.966 34.2458C494.949 36.7337 489.897 36.383 487.288 36.3172C483.398 36.2295 480.592 40.6026 483.858 41.2931C485.853 41.7205 490.719 40.3724 494.182 39.2764C492.571 41.5561 490.587 43.6056 488.11 45.2715C474.246 54.6971 465.686 45.1729 465.686 45.1729C465.686 45.1729 459.34 43.8358 456.14 37.1063C453.729 32.0319 453.049 25.7627 457.181 18.1784C458.102 21.7185 459.68 27.0341 461.193 28.5904C463.538 30.9687 465.708 26.2559 463.538 23.0227C462.168 20.9732 459.362 16.9509 459.888 13.9588C461.302 12.0408 463.001 10.0571 465.051 7.99658C465.522 7.5253 465.993 7.05403 466.475 6.61563C467.001 9.67347 468.328 15.9207 470.531 17.2468C473.095 18.7922 473.49 14.4301 472.635 12.2491C471.78 10.0571 468.437 6.85674 469.358 4.1277C469.38 4.0729 469.391 4.02906 469.402 3.98522C472.01 1.74938 474.728 -0.289175 477.381 -2.09758C477.238 -0.530295 476.997 3.87562 478.685 5.28946C480.493 6.79098 481.501 4.47843 481.107 2.68099C480.712 0.894506 478.86 -1.7359 479.847 -3.74158C488.034 -9.06814 494.96 -12.126 494.96 -12.126L494.982 -12.115Z" fill="#FF5454"/>
<path d="M462.234 50.6854C462.234 50.6854 468.514 36.4703 476.712 20.3372C484.91 4.1931 491.574 -2.72266 491.574 -2.72266C491.574 -2.72266 484.779 6.90022 476.361 24.9623C468.141 42.6079 465.774 49.8525 465.774 49.8525L462.234 50.6964V50.6854Z" fill="#7944D1"/>
<g style="mix-blend-mode:multiply" opacity="0.3">
<path d="M26.5188 64.0791C26.5188 64.0791 26.9024 70.403 28.6231 75.6638C28.8752 76.431 29.1053 77.3736 29.2807 78.4367C28.4368 79.3683 26.6393 79.3245 25.6529 79.6861C24.5679 80.0807 23.6911 81.3959 25.094 81.8453C26.4421 82.2727 28.7765 80.5629 29.4889 80.004C29.6862 81.8014 29.7301 83.84 29.5328 85.9333C29.5109 85.9553 29.4889 85.9662 29.478 85.9881C28.3381 87.391 25.5214 86.7005 24.0857 86.9855C22.6389 87.2705 20.4689 88.9473 22.1567 89.7803C23.6144 90.5037 27.4504 89.0569 29.2149 88.3226C28.9081 89.9557 28.4477 91.5887 27.7792 93.145C26.5078 94.7013 23.3513 94.4821 21.7073 94.4383C19.2742 94.3835 17.5097 97.1235 19.5592 97.5509C20.8086 97.8249 23.8555 96.981 26.0256 96.2905C25.0173 97.7153 23.7678 98.9977 22.2225 100.05C13.5312 105.957 8.17174 99.995 8.17174 99.995C8.17174 99.995 4.19326 99.1621 2.18758 94.9425C0.6751 91.7641 0.24766 87.8294 2.83422 83.0728C3.40414 85.2867 4.4015 88.6295 5.34406 89.594C6.8127 91.0845 8.17174 88.1253 6.8127 86.1087C5.95782 84.8264 4.19326 82.3056 4.52206 80.4205C5.40982 79.2149 6.47294 77.9764 7.75526 76.6831C8.05118 76.3872 8.3471 76.0913 8.65398 75.8173C8.98278 77.7353 9.81574 81.648 11.1967 82.4809C12.8078 83.4454 13.0489 80.7164 12.5119 79.3464C11.9749 77.9764 9.8815 75.9707 10.4514 74.2609C10.4514 74.2281 10.4733 74.1952 10.4843 74.1733C12.1173 72.7704 13.8271 71.4881 15.4821 70.3592C15.3944 71.3346 15.2409 74.1075 16.2931 74.9953C17.422 75.9378 18.0577 74.4911 17.8165 73.3622C17.5645 72.2443 16.4137 70.5893 17.0274 69.3399C22.1567 65.9971 26.4969 64.0791 26.4969 64.0791H26.5188Z" fill="#4A6C8F"/>
</g>
<path d="M5.99072 103.436C5.99072 103.436 9.92536 94.5254 15.0656 84.4094C20.2058 74.2933 24.3816 69.9531 24.3816 69.9531C24.3816 69.9531 20.1182 75.9921 14.8464 87.3028C9.6952 98.3614 8.20464 102.899 8.20464 102.899L5.99072 103.425V103.436Z" fill="#7944D1"/>
<g style="mix-blend-mode:multiply" opacity="0.3">
<path d="M469.04 62.7207C469.04 62.7207 469.413 65.3511 469.215 69.22C469.095 71.5106 468.295 74.2068 467.692 77.7578C468.163 79.0949 468.722 79.2374 469.972 79.6539C471.254 80.0814 473.512 80.0266 474.849 80.2019C476.186 80.3773 475.473 83.5995 472.668 83.1282C469.873 82.657 467.78 81.276 467.78 81.276C467.78 81.276 467.571 81.1554 467.264 80.9581C467.078 82.6569 466.969 84.5311 467.001 86.6135C467.023 87.7533 467.089 89.0137 467.199 90.3618C468.404 92.0606 469.204 92.0277 471.068 92.0716C472.942 92.1154 475.901 91.129 477.742 90.8221C479.584 90.5153 479.956 95.0856 476.032 95.5897C472.12 96.0939 468.788 95.0965 468.788 95.0965C468.788 95.0965 468.339 94.9869 467.725 94.8006C468.065 97.0145 468.569 99.349 469.259 101.694C470.75 103.777 471.747 103.733 474.071 103.799C476.405 103.865 480.11 102.626 482.4 102.242C484.691 101.859 485.162 107.558 480.274 108.183C476.021 108.731 472.317 107.865 471.44 107.635C473.183 111.526 475.583 115.153 478.816 117.992C488.154 126.168 496.835 118.2 496.835 118.2L499.509 116.808C499.509 116.808 507.06 113.619 510.315 108.906C512.573 105.629 514.699 99.4367 510.25 89.6823C509.789 91.2605 509.011 93.332 507.762 95.3925C505.208 99.6011 500.188 96.8611 501.471 94.9212C502.764 92.9813 505.394 90.0988 506.293 87.9397C507.159 85.8682 507.586 84.9585 506.457 82.9309L506.435 82.8871C505.668 81.7363 504.802 80.5417 503.86 79.3032C502.764 77.8674 501.591 76.5522 500.342 75.3686C500.287 76.1686 500.002 79.1607 498.555 82.1966C496.856 85.7696 492.626 83.9831 493.503 82.3281C494.369 80.6841 496.232 78.1524 496.769 76.3659C497.306 74.5685 497.47 73.6259 496.243 71.96L496.221 71.9161C496.221 71.9161 496.21 71.9162 496.221 71.8942C496.221 71.8942 496.213 71.8906 496.199 71.8833C493.316 69.8009 490.291 68.2226 487.321 66.9841C487.321 67.028 487.321 67.0718 487.321 67.0718C487.321 67.0718 487.628 68.8583 487.124 70.864C486.62 72.8587 484.274 72.3874 484.548 71.4558C484.833 70.5242 485.524 69.0337 485.622 68.0582C485.699 67.1814 485.765 66.765 485.173 66.1402C485.162 66.1402 485.151 66.1293 485.151 66.1183C476.493 62.9509 469.073 62.7317 469.073 62.7317L469.04 62.7207Z" fill="#4A6C8F"/>
</g>
<path d="M505.789 135.879C505.789 135.879 504.386 120.47 496.144 101.476C484.998 75.7858 473.249 66.8096 473.249 66.8096C473.249 66.8096 485.644 79.578 495.158 103.098C502.709 121.752 503.739 136.46 503.739 136.46L505.778 135.879H505.789Z" fill="#7944D1"/>
<path d="M-2.07576 119.042C-2.07576 119.042 -1.70312 121.672 -1.9004 125.541C-2.02096 127.832 -2.82104 130.528 -3.42384 134.079C-2.95256 135.416 -2.3936 135.559 -1.14416 135.975C0.138158 136.403 2.39592 136.348 3.73304 136.523C5.07016 136.699 4.35776 139.921 1.552 139.45C-1.2428 138.978 -3.33616 137.597 -3.33616 137.597C-3.33616 137.597 -3.5444 137.477 -3.85128 137.279C-4.0376 138.978 -4.1472 140.852 -4.11432 142.935C-4.0924 144.075 -4.02664 145.335 -3.91704 146.683C-2.71144 148.382 -1.91136 148.349 -0.0481625 148.393C1.826 148.437 4.7852 147.45 6.62648 147.143C8.46776 146.837 8.8404 151.407 4.91672 151.911C1.004 152.415 -2.32784 151.418 -2.32784 151.418C-2.32784 151.418 -2.7772 151.308 -3.39096 151.122C-3.0512 153.336 -2.54704 155.67 -1.85656 158.016C-0.366002 160.098 0.631359 160.054 2.95488 160.12C5.28936 160.186 8.99384 158.947 11.2845 158.564C13.5751 158.18 14.0464 163.879 9.15824 164.504C4.90576 165.052 1.20128 164.186 0.324478 163.956C2.06712 167.847 4.46736 171.475 7.70056 174.313C17.0385 182.489 25.7188 174.522 25.7188 174.522L28.393 173.13C28.393 173.13 35.9445 169.94 39.1996 165.227C41.4574 161.95 43.5836 155.758 39.1338 146.004C38.6735 147.582 37.8954 149.653 36.6459 151.714C34.0922 155.922 29.0726 153.182 30.3549 151.242C31.6482 149.303 34.2786 146.42 35.1773 144.261C36.0431 142.19 36.4706 141.28 35.3417 139.252L35.3198 139.208C34.5526 138.058 33.6867 136.863 32.7442 135.624C31.6482 134.189 30.4754 132.874 29.226 131.69C29.1712 132.49 28.8862 135.482 27.4395 138.518C25.7407 142.091 21.5102 140.304 22.387 138.649C23.2528 137.005 25.116 134.474 25.653 132.687C26.1901 130.89 26.3545 129.947 25.127 128.281L25.105 128.237C25.105 128.237 25.0941 128.237 25.105 128.216C25.105 128.216 25.0977 128.212 25.0831 128.205C22.2006 126.122 19.1757 124.544 16.2055 123.305C16.2055 123.349 16.2055 123.393 16.2055 123.393C16.2055 123.393 16.5124 125.18 16.0082 127.185C15.5041 129.18 13.1586 128.709 13.4326 127.777C13.7176 126.846 14.4081 125.355 14.5067 124.38C14.5834 123.503 14.6492 123.086 14.0574 122.462C14.0464 122.462 14.0354 122.451 14.0354 122.44C5.37704 119.272 -2.04288 119.053 -2.04288 119.053L-2.07576 119.042Z" fill="#FF5454"/>
<path d="M34.673 192.201C34.673 192.201 33.2702 176.791 25.0283 157.797C13.8819 132.107 2.13281 123.131 2.13281 123.131C2.13281 123.131 14.5286 135.899 24.0418 159.419C31.5933 178.073 32.6235 192.782 32.6235 192.782L34.6621 192.201H34.673Z" fill="#7944D1"/>
<path d="M493.766 129.3C493.766 129.3 490.237 142.967 490.302 155.297C490.302 157.106 490.149 159.254 489.787 161.632C487.365 163.024 483.595 161.709 481.25 161.786C478.674 161.884 475.901 164.076 478.586 165.972C481.151 167.803 487.256 165.775 489.174 165.074C488.363 169.008 487.069 173.359 485.206 177.667C485.151 177.689 485.096 177.722 485.053 177.754C481.688 179.946 476.186 176.56 472.942 176.176C469.676 175.793 463.933 177.864 466.936 180.779C469.522 183.311 478.641 182.862 482.883 182.511C481.118 185.777 479.025 188.912 476.537 191.75C476.537 191.75 476.529 191.75 476.515 191.75C472.766 194.183 466.201 191.564 462.771 190.347C457.642 188.561 452.041 193.164 456.085 195.477C458.562 196.902 465.588 197.197 470.662 197.23C467.55 199.576 464.02 201.428 460.02 202.601C437.563 209.177 430.275 192.857 430.275 192.857C430.275 192.857 422.416 188.364 421.046 178.039C420.016 170.258 421.813 161.643 430.549 153.336C430.242 158.432 430.055 166.181 431.414 168.888C433.508 173.053 438.418 167.715 436.916 162.498C435.974 159.199 433.968 152.645 435.963 148.886H435.974C438.67 146.946 441.783 145.039 445.388 143.187C446.21 142.759 447.043 142.343 447.876 141.959C447.263 146.244 446.342 155.122 448.698 157.818C451.449 160.975 453.839 155.352 453.641 152.086C453.455 148.809 450.375 143.121 452.764 139.888C452.808 139.833 452.841 139.767 452.885 139.712C457.313 137.86 461.806 136.315 466.103 135.054C465.237 137.071 463.023 142.825 464.656 145.433C466.41 148.206 468.755 145.576 468.996 143.011C469.237 140.468 467.911 136.172 470.081 133.936H470.092C483.255 130.374 493.766 129.278 493.766 129.278V129.3Z" fill="#40267A"/>
<path d="M423.315 198.688C423.315 198.688 437.76 182.5 455.57 164.57C473.38 146.639 485.206 140.315 485.206 140.315C485.206 140.315 472.043 150.19 453.126 170.576C434.637 190.49 428.378 199.094 428.378 199.094L423.315 198.688Z" fill="#40267A"/>
<path d="M22.6611 12.0517C23.516 11.416 24.2613 9.80488 24.6887 8.7308C26.1573 10.2871 27.6698 12.0736 29.0617 14.0026C29.3029 16.611 25.0942 20.5238 24.3051 21.817C23.4721 23.1651 24.9846 25.2914 27.3301 23.9323C29.1494 22.8802 30.9359 19.4716 31.6373 18.003C31.725 18.1454 31.8017 18.2989 31.8894 18.4414C33.106 20.6553 34.0705 23.0117 34.75 25.4229C34.75 25.4996 34.75 25.5763 34.75 25.653C34.9473 29.1602 27.7137 33.5771 26.2779 35.0677C24.8531 36.5582 26.1793 39.6928 29.5549 38.6078C31.736 37.9063 34.3554 35.1006 35.9117 33.2264C35.9775 38.3228 34.5965 43.0356 31.5058 46.2578C25.6093 52.4064 20.0745 50.2034 20.0745 50.2034C20.0745 50.2034 16.8304 56.9 9.52006 57.3822C3.95238 57.7549 -2.70033 50.6638 -3.77441 40.6682C-2.10849 42.4438 0.346546 44.7234 2.36319 45.2824C5.77175 46.225 6.96639 43.0246 5.46487 41.5998C3.97431 40.175 -3.45657 36.076 -3.41273 32.5688C-3.41273 32.5688 -3.41273 32.5469 -3.41273 32.525C-3.41273 32.514 -3.41273 32.503 -3.41273 32.4921C-3.27025 31.8674 -3.12777 31.2317 -2.95241 30.5741C-2.41537 28.5684 -1.71393 26.6175 -0.880974 24.7214C0.00678611 26.3106 1.76039 29.1054 3.44823 29.9932C5.84847 31.2536 7.26231 29.0397 6.37455 27.7464C5.54159 26.5189 1.34391 22.935 1.27815 20.3265C2.48375 18.1126 3.82087 16.0302 5.16895 14.1341C5.57447 15.1205 6.51703 17.2138 7.56919 17.9153C8.97207 18.8688 10.0023 17.5974 9.54198 16.7206C9.11454 15.9206 6.81295 13.4326 6.90063 11.8106C11.0325 6.484 14.9453 2.98776 15.833 2.51648C16.7317 2.03424 19.6252 3.82072 22.9351 6.96624C22.4529 8.47872 20.9623 10.2871 20.6554 10.9557C20.2389 11.8434 21.324 13.071 22.683 12.0517H22.6611Z" fill="#40267A"/>
<path d="M534 195.347H-14V413.462H534V195.347Z" fill="#40267A"/>
<g style="mix-blend-mode:multiply" opacity="0.2">
<path d="M-14 266.334L534 291.553V332.204L-14 380.581V266.334Z" fill="#4A6C8E"/>
</g>
<path d="M329.048 214.348H259.726H190.404L130.672 311.585H259.726H388.78L329.048 214.348Z" fill="#48597B"/>
<path d="M182.458 308.548L215.47 217.383" stroke="#40267A" stroke-width="2" stroke-linecap="round" stroke-linejoin="round"/>
<path d="M233.981 308.548L248.821 217.383" stroke="#40267A" stroke-width="2" stroke-linecap="round" stroke-linejoin="round"/>
<path d="M336.994 308.548L302.886 217.383" stroke="#40267A" stroke-width="2" stroke-linecap="round" stroke-linejoin="round"/>
<path d="M285.471 308.548L270.631 217.383" stroke="#40267A" stroke-width="2" stroke-linecap="round" stroke-linejoin="round"/>
<path d="M363.199 262.966C363.199 271.372 328.642 273.959 307.994 272.863C287.345 271.767 273.744 266.287 259.901 266.287C246.059 266.287 220.675 272.972 199.764 273.104C178.852 273.235 156.11 270.123 156.11 262.911C156.11 255.699 204.553 240.421 259.66 240.421C314.767 240.421 363.21 255.896 363.21 262.977L363.199 262.966Z" fill="#281849"/>
<path d="M363.615 252.98C361.544 262.274 267.584 242.842 260.043 242.842C252.503 242.842 158.543 262.274 156.471 252.98C154.411 243.686 161.206 233.822 176.561 227.06C176.89 226.917 177.219 226.775 177.569 226.632C193.308 219.969 224.675 212.571 226.319 210.916C227.985 209.217 229.169 207.343 231.394 201.994L260.043 206.915L288.693 201.994C290.918 207.343 292.101 209.217 293.778 210.916C295.455 212.603 328.16 220.297 343.526 227.06C344.797 227.619 346.003 228.2 347.153 228.791C359.955 235.444 365.511 244.453 363.615 252.98Z" fill="#CBE5F8"/>
<path d="M288.857 217.152C288.857 217.152 279.728 225.92 275.705 231.762C271.683 237.604 268.581 240.289 266.028 240.409C263.474 240.53 282.654 219.838 288.857 217.152Z" fill="#40267A"/>
<path d="M231.229 217.152C231.229 217.152 240.359 225.92 244.381 231.762C248.404 237.604 251.505 240.289 254.059 240.409C256.613 240.53 237.433 219.838 231.229 217.152Z" fill="#40267A"/>
<g style="mix-blend-mode:multiply" opacity="0.3">
<path d="M363.615 252.981C361.544 262.275 267.584 242.843 260.043 242.843C252.503 242.843 158.543 262.275 156.471 252.981C154.411 243.687 161.206 233.823 176.561 227.061C176.89 226.918 177.219 226.776 177.569 226.633C193.056 225.252 207.83 230.403 215.469 231.598C225.41 233.165 233.323 219.235 233.323 219.235C233.323 219.235 249.357 233.428 259.649 230.557C269.776 227.74 285.613 219.115 286.106 218.852C285.942 219.169 282.599 225.647 285.471 228.847C288.43 232.124 306.327 224.134 306.327 224.134C306.327 224.134 328.905 228.935 347.153 228.792C359.955 235.445 365.511 244.454 363.615 252.981Z" fill="#4A6C8E"/>
</g>
<path d="M293.362 248.126C293.362 248.126 304.169 243.862 310.208 240.486C316.247 237.111 324.817 232.694 329.015 231.28C333.213 229.866 342.068 229.011 343.241 228.737C344.414 228.463 342.945 223.444 339.252 223.203C335.547 222.972 334.725 223.959 333.651 223.816C332.577 223.674 331.503 222.359 327.513 222.402C323.524 222.446 317.386 224.989 314.164 225.406C310.953 225.833 308.027 223.619 304.662 224.189C301.297 224.748 297.889 232.595 295.795 234.426C293.702 236.256 283.695 237.407 283.695 237.407L293.373 248.126H293.362Z" fill="#D36E75"/>
<path d="M300.048 249.232C300.048 249.232 297.176 250.108 292.354 251.5C278.325 255.545 247.758 263.852 223.054 267.14C217.771 267.853 212.762 268.324 208.236 268.477C175.257 269.606 157.886 261.89 156.472 252.98C155.902 249.319 160.362 247.818 167.771 245.001C169.021 244.53 171.125 243.949 173.832 243.313C180.989 241.625 192.333 239.532 203.15 237.767C212.291 236.277 221.059 235.027 226.605 234.479C234.595 233.69 247.736 234.107 261.688 233.91C269.097 233.811 277.152 233.668 283.082 233.548C288.31 233.438 291.872 233.351 291.872 233.351C291.872 233.351 293.625 234.293 296.65 238.239C296.814 238.458 296.968 238.677 297.11 238.907C299.719 242.93 300.037 249.232 300.037 249.232H300.048Z" fill="#CBE5F8"/>
<g style="mix-blend-mode:multiply" opacity="0.3">
<path d="M300.048 249.233C300.048 249.233 297.176 250.109 292.354 251.501C278.325 255.546 247.758 263.853 223.054 267.141C217.771 267.854 212.762 268.325 208.236 268.478C175.257 269.607 157.886 261.891 156.472 252.981C155.902 249.32 160.362 247.819 167.771 245.002C169.021 244.531 171.125 243.95 173.832 243.314C175.213 250.69 183.959 256.499 204.641 255.502C223.81 254.581 271.015 244.662 297.121 238.908C299.73 242.931 300.048 249.233 300.048 249.233Z" fill="#4A6C8E"/>
</g>
<path d="M300.048 249.233C300.048 249.233 297.187 250.11 292.354 251.513C291.51 243.172 285.866 236.41 283.093 233.55C288.321 233.451 291.883 233.363 291.883 233.363C291.883 233.363 293.636 234.306 296.661 238.251C299.686 242.197 300.037 249.233 300.037 249.233H300.048Z" fill="#E6F3FC"/>
<path d="M300.048 249.232C300.048 249.232 297.176 250.108 292.354 251.5C278.325 255.545 253.238 265.167 223.054 267.14C222.177 251.402 212.247 241.308 203.15 237.767C212.291 236.277 221.059 235.027 226.605 234.479C234.595 233.69 247.736 234.107 261.688 233.91C269.097 233.811 277.152 233.668 283.082 233.548C288.31 233.438 291.872 233.351 291.872 233.351C291.872 233.351 293.625 234.293 296.65 238.239C299.686 242.184 300.037 249.232 300.037 249.232H300.048Z" fill="#7F9CB5"/>
<path d="M241.236 237.954L231.92 248.487C231.92 248.487 221.519 244.3 215.71 240.979C209.902 237.658 201.649 233.318 197.615 231.937C193.593 230.556 185.055 229.701 183.937 229.438C182.809 229.164 184.211 224.232 187.773 224.002C191.335 223.772 192.135 224.736 193.166 224.594C194.163 224.462 195.182 223.235 198.81 223.213H199.073C202.92 223.257 208.817 225.756 211.918 226.172C215.009 226.578 217.826 224.418 221.059 224.966C223.821 225.438 226.605 231.115 228.621 233.888C228.961 234.37 229.29 234.765 229.586 235.028C231.602 236.825 241.236 237.954 241.236 237.954Z" fill="#DD9091"/>
<path d="M241.236 237.954L231.92 248.487C231.92 248.487 221.519 244.3 215.71 240.979C209.902 237.658 201.649 233.318 197.615 231.937C193.593 230.556 185.055 229.701 183.937 229.438C182.809 229.164 184.211 224.232 187.773 224.002C191.335 223.772 192.135 224.736 193.166 224.594C194.163 224.462 195.182 223.235 198.81 223.213C194.13 228.561 201.462 228.167 208.773 231.751C217.201 235.883 224.095 239.357 224.095 239.357C224.095 239.357 225.355 235.926 228.621 233.888C228.961 234.37 229.29 234.765 229.586 235.028C231.602 236.825 241.236 237.954 241.236 237.954Z" fill="#D36E75"/>
<path d="M363.802 252.005C362.443 260.762 345.565 269.585 313.824 268.478C289.088 267.612 249.27 256.619 232.885 251.797C228.249 250.427 225.487 249.561 225.487 249.561C225.487 249.561 225.739 244.377 227.701 240.475C228.008 239.862 228.347 239.292 228.742 238.766C231.657 234.897 233.334 233.965 233.334 233.965C233.334 233.965 255.967 233.023 263.102 233.121C276.517 233.308 289.088 232.508 296.782 233.286C306.722 234.294 326.724 239.445 340.468 242.317C346.167 243.5 350.683 244.596 352.765 245.407C359.889 248.18 364.35 248.4 363.802 252.005Z" fill="#D5EBFA"/>
<path d="M225.487 249.562C225.487 249.562 228.238 250.428 232.885 251.798C233.696 243.6 239.132 236.958 241.795 234.141C236.764 234.043 233.334 233.955 233.334 233.955C233.334 233.955 231.646 234.887 228.731 238.767C225.815 242.646 225.476 249.562 225.476 249.562H225.487Z" fill="#EBF5FC"/>
<g style="mix-blend-mode:multiply" opacity="0.3">
<path d="M363.802 252.005C362.443 260.763 345.565 269.585 313.824 268.478C289.088 267.613 249.27 256.62 232.885 251.797C228.249 250.427 225.487 249.561 225.487 249.561C225.487 249.561 225.739 244.377 227.701 240.476C239.921 248.597 297.812 259.162 323.392 258.099C347.833 257.08 342.331 245.364 340.468 242.317C346.167 243.501 350.683 244.597 352.765 245.408C359.889 248.18 364.35 248.4 363.802 252.005Z" fill="#4A6C8E"/>
</g>
<path d="M181.866 228.847C180.813 230.667 179.728 236.048 178.906 238.152C178.084 240.246 172.747 244.893 170.906 246.383C170.127 247.019 168.549 246.942 166.686 246.482C163.223 245.627 158.828 243.391 156.997 241.791C154.192 239.325 152.383 236.815 153.139 234.82C153.896 232.837 160.033 227.872 161.085 227.203C162.927 226.03 168.012 222.918 168.878 222.83C169.744 222.742 172.824 221.033 172.824 221.033C172.824 221.033 175.794 220.715 178.534 222.907C179.411 223.608 180.068 224.463 180.55 225.307C181.592 227.115 181.866 228.847 181.866 228.847Z" fill="#DD9091"/>
<path d="M181.866 228.847C180.813 230.666 179.728 236.047 178.906 238.152C178.084 240.245 172.747 244.892 170.906 246.383C170.127 247.018 168.549 246.942 166.686 246.481C170.325 244.114 175.257 238.689 176.221 236.584C177.394 234.075 179.257 228.354 180.55 225.307C181.592 227.115 181.866 228.847 181.866 228.847Z" fill="#D36E75"/>
<path d="M172.879 226.61C172.879 226.61 170.588 232.518 171.158 236.189C171.728 239.861 172.068 242.831 168.933 243.061C165.798 243.291 159.398 237.22 158.521 234.567C157.644 231.915 159.825 230.666 161.382 230.348C162.938 230.03 167.979 229.23 169.865 228.419C171.75 227.608 172.879 226.61 172.879 226.61Z" fill="#D36E75"/>
<path d="M169.952 222.468C168.166 222.38 163.65 221.81 161.546 222.468C159.441 223.126 157.48 224.134 156.11 224.682C154.74 225.23 152.504 225 152.23 225.592C151.956 226.183 153.161 228.058 154.937 228.375C156.712 228.693 160.132 227.466 161.272 227.367C162.412 227.279 162.686 229.373 166.248 229.417C169.81 229.461 174.555 225.12 174.555 225.12C174.555 225.12 173.295 222.611 169.952 222.446V222.468Z" fill="#DD9091"/>
<path d="M154.038 227.631C153.151 226.392 151.32 226.392 150.86 226.896C150.4 227.4 150.849 234.327 151.309 236.333C151.77 238.339 152.592 240.531 154.093 241.451C155.595 242.372 161.535 238.624 161.535 238.624L158.883 235.61C158.883 235.61 156.943 236.103 156.055 236.158C155.167 236.212 154.795 231.73 154.652 230.634C154.51 229.538 154.477 228.277 154.027 227.642L154.038 227.631Z" fill="#DD9091"/>
<path d="M158.313 230.545C157.469 229.284 155.627 229.229 155.156 229.723C154.685 230.216 155.014 238.03 155.419 240.058C155.825 242.075 156.581 244.288 158.061 245.253C159.54 246.206 163.288 242.809 163.288 242.809L161.688 239.817C161.688 239.817 161.075 239.992 160.187 240.014C159.299 240.036 159.047 235.553 158.937 234.457C158.828 233.361 158.751 231.213 158.313 230.567V230.545Z" fill="#DD9091"/>
<path d="M162.467 234.229C161.524 233.122 159.584 233.111 159.102 233.572C158.62 234.021 159.201 241.024 159.683 242.822C160.165 244.619 161.042 246.592 162.642 247.403C164.242 248.225 168.111 245.08 168.111 245.08L166.325 242.438C166.325 242.438 165.678 242.614 164.735 242.647C163.793 242.69 163.398 238.679 163.256 237.693C163.113 236.706 162.96 234.788 162.478 234.218L162.467 234.229Z" fill="#DD9091"/>
<path d="M172.287 245.222C170.029 247.283 168.374 248.324 166.314 248.422C166.018 248.433 165.755 248.357 165.535 248.225C164.231 247.425 164.143 244.444 164.111 243.655C164.067 242.745 164.571 238.547 164.976 238.219C165.393 237.901 167.596 238.679 167.979 239.643C168.363 240.597 167.947 243.611 168.308 243.973C168.67 244.334 170.051 242.614 170.051 242.614C170.051 242.614 170.424 242.756 170.873 242.997C171.826 243.501 173.175 244.411 172.287 245.222Z" fill="#DD9091"/>
<path d="M172.287 245.222C170.029 247.282 168.374 248.324 166.313 248.422C166.017 248.433 165.754 248.356 165.535 248.225C167.212 246.723 169.119 244.838 170.873 242.997C171.826 243.501 173.174 244.411 172.287 245.222Z" fill="#D36E75"/>
<path d="M233.981 132.99C233.981 138.514 233.389 145.189 231.591 151.206C230.66 154.351 229.564 158.177 228.369 162.297C224.423 175.921 219.437 192.733 216.072 198.334C211.688 205.644 181.866 228.847 181.866 228.847L179.838 227.093L172.824 221.032C172.824 221.032 196.245 195.145 199.533 189.391C201.824 185.39 206.975 163.383 211.074 148.006C212.872 141.254 214.472 135.785 215.524 133.67C218.987 126.732 222.834 125.012 232.413 121.296C232.424 121.285 232.435 121.285 232.446 121.285C232.676 121.285 232.939 121.932 233.18 123.083C233.608 125.11 233.97 128.705 233.97 132.99H233.981Z" fill="#DD9091"/>
<path d="M233.981 132.99C233.981 138.514 233.389 145.189 231.592 151.206C227.58 164.73 220.456 191.034 216.072 198.334C211.688 205.644 181.866 228.846 181.866 228.846L179.838 227.093C180.277 225.931 180.682 224.934 181.022 224.254C182.293 221.722 209.452 202.082 212.39 193.007C215.338 183.943 222.517 154.647 226.561 143.304C228.183 138.777 231.076 135.401 233.981 132.99Z" fill="#D36E75"/>
<path d="M337.585 228.845C338.638 230.665 339.723 236.046 340.545 238.15C341.367 240.244 346.704 244.891 348.545 246.381C349.324 247.017 350.902 246.94 352.765 246.48C356.228 245.625 360.623 243.389 362.454 241.789C365.259 239.323 367.068 236.813 366.312 234.818C365.555 232.835 359.418 227.87 358.366 227.201C356.524 226.028 351.439 222.916 350.573 222.828C349.707 222.74 346.627 221.031 346.627 221.031C346.627 221.031 343.657 220.713 340.917 222.905C340.04 223.606 339.383 224.461 338.901 225.305C337.859 227.114 337.585 228.845 337.585 228.845Z" fill="#DD9091"/>
<path d="M337.585 228.845C338.638 230.664 339.723 236.045 340.545 238.15C341.367 240.243 346.704 244.89 348.545 246.381C349.324 247.016 350.902 246.94 352.765 246.479C349.126 244.112 344.194 238.687 343.23 236.583C342.057 234.073 340.194 228.352 338.901 225.305C337.859 227.113 337.585 228.845 337.585 228.845Z" fill="#D36E75"/>
<path d="M346.573 226.608C346.573 226.608 348.863 232.516 348.293 236.187C347.724 239.859 347.384 242.829 350.518 243.059C353.653 243.289 360.054 237.218 360.93 234.565C361.807 231.913 359.626 230.664 358.07 230.346C356.513 230.028 351.472 229.228 349.587 228.417C347.702 227.606 346.573 226.608 346.573 226.608Z" fill="#D36E75"/>
<path d="M349.499 222.466C351.286 222.378 355.801 221.808 357.906 222.466C360.01 223.124 361.972 224.132 363.342 224.68C364.712 225.228 366.948 224.998 367.222 225.59C367.496 226.182 366.29 228.056 364.514 228.374C362.739 228.691 359.319 227.464 358.18 227.365C357.04 227.278 356.766 229.371 353.204 229.415C349.642 229.459 344.896 225.118 344.896 225.118C344.896 225.118 346.156 222.609 349.499 222.444V222.466Z" fill="#DD9091"/>
<path d="M365.413 227.629C366.301 226.39 368.131 226.39 368.592 226.894C369.052 227.399 368.603 234.325 368.142 236.331C367.682 238.337 366.86 240.529 365.358 241.449C363.857 242.37 357.917 238.622 357.917 238.622L360.569 235.608C360.569 235.608 362.509 236.101 363.397 236.156C364.284 236.21 364.657 231.728 364.799 230.632C364.942 229.536 364.975 228.275 365.424 227.64L365.413 227.629Z" fill="#DD9091"/>
<path d="M361.138 230.543C361.982 229.282 363.824 229.228 364.295 229.721C364.766 230.214 364.437 238.028 364.032 240.056C363.626 242.073 362.87 244.287 361.391 245.251C359.911 246.205 356.163 242.807 356.163 242.807L357.763 239.815C357.763 239.815 358.377 239.99 359.264 240.012C360.152 240.034 360.404 235.551 360.514 234.455C360.623 233.359 360.7 231.211 361.138 230.565V230.543Z" fill="#DD9091"/>
<path d="M356.985 234.226C357.927 233.119 359.867 233.108 360.349 233.569C360.832 234.018 360.251 241.022 359.769 242.819C359.286 244.616 358.41 246.589 356.809 247.4C355.209 248.222 351.34 245.077 351.34 245.077L353.127 242.435C353.127 242.435 353.773 242.611 354.716 242.644C355.659 242.687 356.053 238.676 356.196 237.69C356.338 236.703 356.492 234.785 356.974 234.215L356.985 234.226Z" fill="#DD9091"/>
<path d="M347.165 245.219C349.422 247.28 351.077 248.321 353.138 248.42C353.434 248.43 353.697 248.354 353.916 248.222C355.22 247.422 355.308 244.441 355.341 243.652C355.385 242.742 354.881 238.545 354.475 238.216C354.059 237.898 351.856 238.676 351.472 239.641C351.088 240.594 351.505 243.608 351.143 243.97C350.782 244.331 349.401 242.611 349.401 242.611C349.401 242.611 349.028 242.753 348.579 242.994C347.625 243.498 346.277 244.408 347.165 245.219Z" fill="#DD9091"/>
<path d="M347.165 245.22C349.422 247.28 351.077 248.322 353.138 248.42C353.434 248.431 353.697 248.355 353.916 248.223C352.239 246.722 350.332 244.836 348.579 242.995C347.625 243.499 346.277 244.409 347.165 245.22Z" fill="#D36E75"/>
<path d="M346.627 221.03L344.896 222.532L339.613 227.091L337.585 228.845C337.585 228.845 307.763 205.643 303.379 198.332C300.091 192.852 295.247 176.653 291.345 163.205C290.052 158.734 288.857 154.569 287.86 151.204C286.063 145.187 285.471 138.513 285.471 132.989C285.471 129.043 285.778 125.7 286.15 123.607C286.435 122.051 286.764 121.185 287.038 121.294C287.345 121.415 287.641 121.536 287.937 121.645C296.858 125.13 300.574 126.95 303.927 133.668C307.402 140.617 316.63 183.635 319.918 189.389C323.206 195.143 346.627 221.03 346.627 221.03Z" fill="#DD9091"/>
<path d="M285.471 132.988C285.471 138.512 286.063 145.187 287.86 151.204C291.871 164.728 298.995 191.032 303.379 198.332C307.763 205.642 337.585 228.844 337.585 228.844L339.613 227.091C339.175 225.929 338.769 224.932 338.429 224.252C337.158 221.72 309.999 202.08 307.062 193.005C304.114 183.941 296.935 154.645 292.891 143.302C291.269 138.775 288.375 135.399 285.471 132.988Z" fill="#D36E75"/>
<path d="M292.332 160.478C292.036 161.508 291.696 162.407 291.345 163.207C289.734 166.802 287.696 168.391 286.578 170.079C286.008 170.923 285.591 173.97 285.361 177.641C285.032 182.836 285.109 189.281 285.756 192.492C286.852 197.972 290.184 203.025 291.236 205.83C291.882 207.54 277.328 212.768 260.044 214.237C248.536 215.201 227.208 209.754 227.208 207.935C227.208 206.115 233.236 197.972 234.332 192.492C234.901 189.664 235.022 184.327 234.825 179.548C234.638 175.066 234.167 171.065 233.51 170.079C232.304 168.26 230.013 166.55 228.369 162.297C228.15 161.738 227.942 161.136 227.756 160.478C227.164 158.472 227.109 156.083 227.328 153.551C227.701 148.981 228.972 143.928 229.674 139.796C230.485 135.062 230.846 127.795 231.515 123.915C231.767 122.513 232.052 121.559 232.414 121.307C232.424 121.296 232.435 121.296 232.446 121.285C234.003 120.266 245.752 116.485 251.002 114.117H269.064C274.368 116.506 286.293 120.342 287.663 121.307C287.762 121.373 287.849 121.482 287.926 121.647C288.233 122.206 288.474 123.302 288.682 124.726C289.285 128.749 289.647 135.369 290.403 139.796C291.082 143.775 292.288 148.619 292.715 153.058C292.978 155.776 292.946 158.341 292.321 160.478H292.332Z" fill="#FF5454"/>
<path opacity="0.7" d="M346.627 221.032L344.896 222.534C338.473 215.355 318.088 192.404 316.772 188.886C315.205 184.7 303.708 135.314 297.954 130.086C296.277 128.562 292.891 126.666 288.693 124.726C287.871 124.354 287.027 123.981 286.15 123.609C276.144 119.29 262.97 115.191 256.668 115.191C250.98 115.191 241.137 119.17 233.191 123.082C232.622 123.367 232.063 123.641 231.515 123.915C226.714 126.36 222.834 128.661 221.388 129.823C219.207 131.566 214.702 140.366 211.074 148.006C212.872 141.254 214.472 135.785 215.524 133.67C218.987 126.732 222.834 125.011 232.413 121.296C232.424 121.285 232.435 121.285 232.446 121.285C234.003 120.266 245.752 116.485 251.001 114.117H269.064C274.368 116.506 286.293 120.342 287.663 121.307C287.761 121.373 287.849 121.482 287.926 121.647C296.847 125.132 300.563 126.951 303.916 133.67C307.391 140.618 316.619 183.636 319.907 189.39C323.195 195.144 346.617 221.032 346.617 221.032H346.627Z" fill="white"/>
<g style="mix-blend-mode:multiply" opacity="0.3">
<path d="M292.331 160.467C290.687 166.089 287.947 168.007 286.577 170.068C286.008 170.912 285.591 173.959 285.361 177.63C281.591 174.704 273.009 171.668 261.282 171.668C249.555 171.668 239.362 175.855 234.824 179.537C234.638 175.055 234.167 171.054 233.509 170.068C232.139 168.007 229.399 166.089 227.755 160.467C227.163 158.461 227.109 156.072 227.328 153.54C230.55 155.392 241.017 160.237 262.005 160.237C285.449 160.237 291.729 154.209 292.726 153.047C292.989 155.765 292.956 158.33 292.331 160.467Z" fill="#4A6C8E"/>
</g>
<path d="M274.861 118.361C274.861 119.051 268.22 127.819 259.726 127.819C251.232 127.819 244.59 119.051 244.59 118.361C244.59 117.67 249.884 115.489 250.377 114.119C250.629 113.407 251.045 109.582 251.396 106.063C251.714 102.764 251.977 99.7285 251.977 99.7285L259.726 104.803L267.474 99.7285C267.474 99.7285 267.759 102.984 268.088 106.414C268.439 109.834 268.833 113.429 269.074 114.119C269.568 115.489 274.861 117.681 274.861 118.361Z" fill="#DD9091"/>
<path d="M267.551 100.594C267.935 104.88 264.888 108.869 260.603 109.264C260.427 109.275 260.252 109.286 260.098 109.286C257.304 109.286 253.797 107.773 251.407 106.063C251.725 102.764 251.988 99.7285 251.988 99.7285L259.737 104.803L267.486 99.7285C267.486 99.7285 267.518 100.046 267.562 100.583L267.551 100.594Z" fill="#D36E75"/>
<path d="M276.473 76.8318C277.251 75.3303 278.632 74.3987 281.284 75.1001C283.936 75.8015 282.205 84.9751 279.772 86.8931C277.875 88.3836 275.99 88.1315 275.278 87.5397C274.566 86.9479 275.694 78.3223 276.473 76.8318Z" fill="#D36E75"/>
<path d="M242.979 76.8318C242.201 75.3303 240.82 74.3987 238.167 75.1001C235.515 75.8015 237.247 84.9751 239.68 86.8931C241.576 88.3836 243.461 88.1315 244.174 87.5397C244.886 86.9479 243.757 78.3223 242.979 76.8318Z" fill="#D36E75"/>
<path d="M259.726 49.0918C235.34 49.0918 243.012 88.2738 245.204 93.7538C247.396 99.2338 255.89 105.81 259.726 105.81C263.562 105.81 272.056 99.2338 274.248 93.7538C276.44 88.2738 284.112 49.0918 259.726 49.0918Z" fill="#DD9091"/>
<path d="M246.804 80.5566C246.804 80.5566 248.635 82.2554 251.55 82.2554C254.465 82.2554 255.978 80.7868 255.978 80.7868L246.804 80.5566Z" fill="#191B24"/>
<path d="M255.32 75.2748C255.813 75.4283 255.758 75.9982 255.276 76.1955C254.794 76.4037 252.777 76.2612 250.213 76.4695C247.648 76.6777 246.004 77.8066 245.697 77.7737C245.39 77.7408 246.749 75.8557 249.873 75.1214C252.986 74.3871 254.893 75.1323 255.342 75.2748H255.32Z" fill="#191B24"/>
<path d="M272.648 80.5576C272.648 80.5576 270.817 82.2564 267.902 82.2564C264.987 82.2564 263.474 80.7878 263.474 80.7878L272.648 80.5576Z" fill="#191B24"/>
<path d="M264.132 75.2744C263.639 75.4278 263.694 75.9977 264.176 76.195C264.658 76.4032 266.675 76.2608 269.239 76.469C271.804 76.6772 273.448 77.8061 273.755 77.7732C274.062 77.7404 272.582 75.5374 269.469 74.8031C266.357 74.0688 264.559 75.1319 264.121 75.2744H264.132Z" fill="#191B24"/>
<path d="M260.504 82.6182C260.504 82.6182 262.553 88.9859 262.498 90.2244C262.455 91.4519 260.043 92.7562 260.043 92.7562C260.043 92.7562 261.205 91.2766 261.063 89.5339C260.92 87.7913 260.493 82.6182 260.493 82.6182H260.504Z" fill="#191B24"/>
<path d="M254.619 95.1225C255.287 95.0239 265.283 94.8376 265.611 94.991C265.82 95.0787 263.836 97.5885 260.318 97.5885C256.8 97.5885 254.049 95.2102 254.619 95.1225Z" fill="white"/>
<path d="M267.157 47.2067C265.491 49.7055 263.474 51.1523 263.474 51.1523H255.342C255.342 51.1523 248.974 46.7244 250.136 38.6907C250.245 37.9345 250.454 37.244 250.739 36.6083C253.873 29.6378 266.707 29.9227 268.866 37.518C269.995 41.4746 268.735 44.8174 267.157 47.2067Z" fill="#191B24"/>
<path d="M267.157 47.2066C268.099 42.3075 268.165 35.7863 262.488 34.1533C256.405 32.4106 252.646 34.7451 250.739 36.6083C253.873 29.6378 266.707 29.9227 268.867 37.518C269.995 41.4746 268.735 44.8174 267.157 47.2066Z" fill="white"/>
<path d="M246.114 70.8367C244.382 72.7547 243.22 73.5767 242.782 74.6288C242.343 75.681 243.187 77.873 242.321 77.7744C241.456 77.6867 239.417 71.286 239.11 65.2142V65.1923C238.77 58.6053 244.152 51.5361 246.727 52.7965H246.738C247.111 52.9938 247.56 53.8048 247.999 54.846C248.908 57.0052 249.785 60.1726 249.993 60.885C251.462 65.9047 247.856 68.9187 246.114 70.8367Z" fill="#191B24"/>
<path d="M276.988 78.158C276.834 78.0813 276.692 77.9827 276.549 77.8621C275.782 77.2484 275.048 76.1304 273.809 75.2646C272.352 74.2344 270.138 74.1686 262.871 71.7684C255.616 69.3791 252.207 64.469 249.993 60.8851C248.788 58.9232 247.999 57.2135 247.505 55.8325C247.056 54.6269 246.826 53.6734 246.738 53.0268C246.727 52.961 246.727 52.8843 246.738 52.7966C246.968 51.0868 251.363 45.5192 258.991 45.8151C267.003 46.111 275.618 49.4648 277.996 57.4108C280.363 65.3568 277.952 78.6403 276.988 78.158Z" fill="#191B24"/>
<path d="M276.988 78.158C276.834 78.0813 276.692 77.9827 276.549 77.8621C280.396 58.6273 271.683 48.9825 260.822 48.5551C252.262 48.2153 249.018 52.7856 247.999 54.8461C247.703 55.4489 247.593 55.8325 247.593 55.8325H247.505C242.541 55.8983 240.14 61.5646 239.11 65.1924C238.77 58.6054 244.152 51.5362 246.727 52.7966H246.738C246.968 51.0868 251.363 45.5192 258.992 45.8151C267.003 46.111 275.618 49.4648 277.996 57.4108C280.364 65.3568 277.952 78.6403 276.988 78.158Z" fill="white"/>
</g>
</svg>
